<svg xmlns="http://www.w3.org/2000/svg" xmlns:xlink="http://www.w3.org/1999/xlink" fill="none" version="1.1" width="512" height="512" viewBox="0 0 512 512"><defs><clipPath id="master_svg0_12_91"><rect x="0" y="512" width="512" height="512" rx="0"/></clipPath><radialGradient cx="0" cy="0" r="1" gradientUnits="userSpaceOnUse" id="master_svg1_7_04645" gradientTransform="translate(256 768) rotate(90) scale(256 256)"><stop offset="0%" stop-color="#824E1C" stop-opacity="1"/><stop offset="100%" stop-color="#000000" stop-opacity="1"/></radialGradient><filter id="master_svg2_12_96" filterUnits="objectBoundingBox" color-interpolation-filters="sRGB" x="-24.189258575439453" y="-24.189258575439453" width="365.3785171508789" height="373.3785171508789"><feFlood flood-opacity="0" result="BackgroundImageFix"/><feColorMatrix in="SourceAlpha" type="matrix" values="0 0 0 0 0 0 0 0 0 0 0 0 0 0 0 0 0 0 127 0"/><feOffset dy="0" dx="0"/><feGaussianBlur stdDeviation="6.047314643859863"/><feColorMatrix type="matrix" values="0 0 0 0 0.9940476417541504 0 0 0 0 0.7512537240982056 0 0 0 0 0.184734508395195 0 0 0 1 0"/><feBlend mode="normal" in2="BackgroundImageFix" result="effect1_dropShadow"/><feBlend mode="normal" in="SourceGraphic" in2="effect1_dropShadow" result="shape"/><feColorMatrix in="SourceAlpha" type="matrix" result="hardAlpha" values="0 0 0 0 0 0 0 0 0 0 0 0 0 0 0 0 0 0 127 0"/><feOffset dy="0" dx="0"/><feGaussianBlur stdDeviation="19.956138610839844"/><feComposite in2="hardAlpha" operator="arithmetic" k2="-1" k3="1"/><feColorMatrix type="matrix" values="0 0 0 0 0.9921568632125854 0 0 0 0 0.7529411911964417 0 0 0 0 0.18431372940540314 0 0 0 1 0"/><feBlend mode="normal" in2="shape" result="effect2_innerShadow"/></filter><radialGradient cx="0" cy="0" r="1" gradientUnits="userSpaceOnUse" id="master_svg3_7_2327" gradientTransform="translate(243.5 1092.5) rotate(90) scale(257.2515547275543 250.9192087650299)"><stop offset="0%" stop-color="#F5B24D" stop-opacity="1"/><stop offset="69.9999988079071%" stop-color="#FF5100" stop-opacity="0"/></radialGradient><linearGradient x1="0.5" y1="0" x2="0.5" y2="1" id="master_svg4_7_9465"><stop offset="0%" stop-color="#FDB744" stop-opacity="1"/><stop offset="100%" stop-color="#F6D271" stop-opacity="1"/></linearGradient><linearGradient x1="0.5" y1="0" x2="0.5" y2="1" id="master_svg5_7_9465"><stop offset="0%" stop-color="#FDB744" stop-opacity="1"/><stop offset="100%" stop-color="#F6D271" stop-opacity="1"/></linearGradient><linearGradient x1="0.5" y1="0" x2="0.5" y2="1" id="master_svg6_7_9465"><stop offset="0%" stop-color="#FDB744" stop-opacity="1"/><stop offset="100%" stop-color="#F6D271" stop-opacity="1"/></linearGradient><linearGradient x1="0.5" y1="0" x2="0.5" y2="1" id="master_svg7_7_9465"><stop offset="0%" stop-color="#FDB744" stop-opacity="1"/><stop offset="100%" stop-color="#F6D271" stop-opacity="1"/></linearGradient><linearGradient x1="0.5" y1="0" x2="0.5" y2="1" id="master_svg8_7_9465"><stop offset="0%" stop-color="#FDB744" stop-opacity="1"/><stop offset="100%" stop-color="#F6D271" stop-opacity="1"/></linearGradient><linearGradient x1="0.5" y1="0" x2="0.5" y2="1" id="master_svg9_7_9465"><stop offset="0%" stop-color="#FDB744" stop-opacity="1"/><stop offset="100%" stop-color="#F6D271" stop-opacity="1"/></linearGradient><linearGradient x1="0.5" y1="0" x2="0.5" y2="1" id="master_svga_7_9465"><stop offset="0%" stop-color="#FDB744" stop-opacity="1"/><stop offset="100%" stop-color="#F6D271" stop-opacity="1"/></linearGradient><linearGradient x1="0.5" y1="0" x2="0.5" y2="1" id="master_svgb_7_9465"><stop offset="0%" stop-color="#FDB744" stop-opacity="1"/><stop offset="100%" stop-color="#F6D271" stop-opacity="1"/></linearGradient></defs><g transform="matrix(1,0,0,-1,0,1024)" clip-path="url(#master_svg0_12_91)"><g><rect x="0" y="512" width="512" height="512" rx="155" fill="url(#master_svg1_7_04645)" fill-opacity="1"/></g><g transform="matrix(1,0,0,-1,0,1860)" filter="url(#master_svg2_12_96)"><path d="M110.0226,1125.263C109.2461,1127.37,109.6279,1129.836,111.0053,1131.6100000000001C112.7142,1133.811,120.0038,1134.214,134.1453,1134.953L204.54000000000002,1138.629C210.077,1138.9180000000001,212.93200000000002,1139.083,214.511,1140.3600000000001C215.839,1141.435,216.697,1143.016,216.876,1144.715C217.089,1146.734,215.673,1149.219,212.901,1154.021L189.29000000000002,1194.931C179.6494,1211.635,174.7199,1220.219,175.7929,1222.937C176.65030000000002,1225.109,178.7082,1226.741,181.01819999999998,1227.0810000000001C183.9092,1227.507,191.144,1220.751,205.213,1207.558L244.505,1170.712C247.706,1167.711,249.358,1166.177,251.089,1165.817C252.565,1165.51,254.114,1165.732,255.443,1166.442C257.003,1167.275,258.156,1169.212,260.38300000000004,1172.993L287.34299999999996,1218.772C293.59299999999996,1229.386,296.841,1234.855,299.494,1235.403C301.64300000000003,1235.846,303.962,1235.1480000000001,305.50800000000004,1233.591C307.41700000000003,1231.6689999999999,307.10400000000004,1225.316,306.452,1213.016L303.173,1151.187C302.959,1147.151,302.85900000000004,1145.0819999999999,303.611,1143.586C304.255,1142.306,305.31600000000003,1141.271,306.611,1140.658C308.124,1139.941,310.19,1140.091,314.219,1140.401L360.361,1143.953C372.57,1144.893,378.876,1145.356,380.843,1143.497C382.436,1141.992,383.192,1139.695,382.805,1137.538C382.327,1134.874,376.979,1131.5,366.599,1125.004L326.091,1099.653C321.856,1097.002,319.682,1095.626,318.904,1093.876C318.245,1092.395,318.168,1090.7,318.69100000000003,1089.166C319.308,1087.353,321.349,1085.786,325.328,1082.7649999999999L357.197,1058.565C369.908,1048.914,376.437,1043.9279999999999,376.566,1041.087C376.67,1038.805,375.517,1036.529,373.616,1035.263C371.249,1033.686,363.367,1036,348.065,1040.536L304.092,1053.574C300.067,1054.767,297.998,1055.37,296.332,1054.955C294.908,1054.6,293.639,1053.762,292.752,1052.593C291.71500000000003,1051.224,291.45500000000004,1049.085,290.969,1044.915L281.804,966.3141C280.54200000000003,955.4927,279.86699999999996,949.9005,277.76099999999997,948.322C276.048,947.0375,273.728,946.6684,271.701,947.3574C269.20799999999997,948.2042,266.831,953.3105,262.272,963.2055L231.863,1029.2091C230.246,1032.719,229.41,1034.513,228.104,1035.477C226.983,1036.304,225.617,1036.747,224.224,1036.735C222.601,1036.721,220.871,1035.759,217.502,1033.866L157.7471,1000.2932C147.2517,994.3965000000001,141.8191,991.3706,139.2594,992.2159C137.1847,992.901,135.52949999999998,994.6509,134.9609,996.7605C134.2592,999.3633,137.5826,1004.6192,144.054,1014.7704L186.326,1081.079C188.65699999999998,1084.7359999999999,189.845,1086.619,189.887,1088.374C189.922,1089.87,189.43,1091.344,188.50400000000002,1092.519C187.417,1093.898,185.337,1094.691,181.2765,1096.216L131.0685,1115.079C117.8123,1120.059,110.986,1122.648,110.0226,1125.263Z" fill="url(#master_svg3_7_2327)" fill-opacity="1"/></g><g transform="matrix(0.8996340036392212,0.4366447627544403,0.4366447627544403,-0.8996340036392212,-331.8880066342308,1443.8871106731167)"><g><path d="M238.2120033203125,866.2975062988281C235.5285033203125,864.8918062988281,232.4922033203125,864.2388062988281,229.4454033203125,864.4123062988281L227.4954033203125,864.5270062988282L227.2072033203125,862.7238062988281L226.2745033203125,856.8059062988282C225.9693033203125,854.8223062988282,225.6811033203125,852.8387062988281,225.2572033203125,850.9043062988281L224.0872033203125,844.9864062988281C223.7311033203125,843.0356062988282,223.2733033203125,841.0684062988281,222.84930332031252,839.1013062988281L222.6628033203125,838.2160062988281L223.3072033203125,837.6259062988281C225.6302033203125,835.4694062988282,227.7999033203125,833.1636062988281,229.8015033203125,830.7244062988282C231.83050332031252,828.3924062988282,233.4099033203125,825.7272062988282,234.4646033203125,822.8557062988282C235.5155033203125,820.0605062988282,235.7903033203125,817.0479062988281,235.2616033203125,814.1181162988281C234.5155033203125,811.4132462988281,233.0233033203125,808.3149462988281,230.5985033203125,807.3805362988281C229.3508033203125,806.9656062988281,227.9750033203125,807.1288362988281,226.8681033203125,807.8231462988281C225.6370033203125,808.5734362988281,224.6082033203125,809.5961162988282,223.8668033203125,810.8067062988281C223.0492033203125,812.0502362988282,222.4744033203125,813.4282062988282,222.1711033203125,814.8722062988281C221.9946033203125,815.6134062988281,221.8587033203125,816.3630062988282,221.7641033203125,817.1181062988281C221.6624033203125,817.8722062988281,221.5946033203125,818.6262062988282,221.5437033203125,819.3967062988281C221.4678033203125,825.6818062988282,222.2199033203125,831.9507062988281,223.7820033203125,838.0521062988281L223.9176033203125,838.6259062988281L223.4937033203125,839.0029062988281C220.2380033203125,841.9701062988281,216.93150332031252,844.8881062988281,213.79450332031251,847.8552062988281C210.6396033203125,850.8184062988281,207.7469033203125,854.0317062988281,205.1466933203125,857.4616062988281C202.5775033203125,860.8655062988281,200.5274233203125,864.6086062988281,199.0592733203125,868.5762062988281C197.6353133203125,872.5374062988282,197.0584433203125,876.7370062988281,197.3636133203125,880.9202062988281C197.6690833203125,885.1056062988281,198.7849533203125,889.1984062988281,200.6531933203125,892.9856062988281C202.5509833203125,896.7359062988281,205.2636033203125,900.0462062988281,208.6058033203125,902.6903062988281C211.9687033203125,905.2797062988282,215.9725033203125,906.9747062988281,220.2211033203125,907.6087062988281C224.4687033203125,908.2337062988281,228.80990332031251,907.8507062988281,232.8707033203125,906.4937062988281L234.2781033203125,906.0507062988281L234.2781033203125,907.4767062988282Q234.6511033203125,915.1167062988281,234.7698033203125,922.8047062988281C234.7698033203125,927.9197062988281,234.7698033203125,933.0337062988281,234.4476033203125,938.2147062988281L233.9979033203125,939.3007062988281L232.0398033203125,938.9687062988281C229.0046033203125,935.9197062988281,223.6802033203125,935.1487062988281,219.4071033203125,936.4437062988281C217.3602033203125,936.9707062988282,215.5636033203125,938.1627062988281,214.3202033203125,939.8207062988281C213.28330332031248,941.2347062988281,213.28330332031248,943.1277062988281,214.3202033203125,944.5417062988281C215.5486033203125,946.0737062988281,217.2850033203125,947.1507062988281,219.2376033203125,947.5907062988281C221.3024033203125,948.1067062988282,223.4645033203125,948.1407062988281,225.5454033203125,947.6897062988281C227.4861033203125,947.3387062988281,229.2649033203125,946.4107062988281,230.6324033203125,945.0337062988281C231.7130033203125,944.043706298828,232.0502033203125,942.5117062988281,231.4802033203125,941.1817062988281L231.2767033203125,940.5917062988281L231.3785033203125,939.7557062988282C231.89640332031252,934.4097062988282,232.10020332031252,929.0407062988281,231.9889033203125,923.6737062988282C231.9889033203125,918.1987062988281,231.7855033203125,912.7067062988281,231.5141033203125,907.2807062988281L231.4124033203125,905.1167062988281L233.4981033203125,904.3296062988281C237.4293033203125,902.8732062988281,240.9252033203125,900.4962062988282,243.6720033203125,897.4117062988281C245.0230033203125,895.8652062988281,246.16270332031252,894.1573062988281,247.0633033203125,892.3299062988281C247.9738033203125,890.5493062988281,248.5862033203125,888.6404062988281,248.8777033203125,886.6742062988282C249.2167033203125,884.6932062988282,249.2167033203125,882.6718062988282,248.8777033203125,880.6907062988281C248.5426033203125,878.6429062988282,247.8669033203125,876.6610062988282,246.8768033203125,874.8220062988281C245.9149033203125,873.0244062988281,244.6931033203125,871.3684062988282,243.2481033203125,869.9040062988281C241.7476033203125,868.4851062988281,240.0532033203125,867.2717062988281,238.2120033203125,866.2975062988281ZM240.2976033203125,862.3796062988281C242.60350332031248,863.5179062988282,244.7325033203125,864.9637062988281,246.62240332031251,866.6745062988281C248.4870033203125,868.4240062988281,250.0753033203125,870.4290062988281,251.3364033203125,872.6253062988281C252.6042033203125,874.8355062988281,253.5027033203125,877.2256062988281,253.9986033203125,879.7071062988281C254.54880332031252,882.1898062988281,254.6691033203125,884.7436062988281,254.3546033203125,887.2644062988281C254.0844033203125,889.8104062988282,253.3857033203125,892.2967062988281,252.2859033203125,894.6249062988281C251.2339033203125,896.9237062988282,249.8649033203125,899.0743062988281,248.2164033203125,901.0182062988281C244.9285033203125,904.9559062988282,240.6483033203125,908.0097062988282,235.7872033203125,909.8867062988281L237.7711033203125,906.9357062988281C238.0424033203125,912.4937062988281,238.2290033203125,918.0507062988281,238.2459033203125,923.6567062988281C238.2459033203125,926.4437062988281,238.2459033203125,929.2477062988281,238.0255033203125,932.0667062988281C237.9129033203125,934.9317062988281,237.6355033203125,937.7887062988282,237.1946033203125,940.6237062988281L237.0250033203125,939.1817062988281C237.6902033203125,940.8617062988282,237.8028033203125,942.6997062988281,237.3472033203125,944.4437062988281C236.9071033203125,946.0937062988281,236.01700332031248,947.5997062988281,234.7698033203125,948.8047062988281C232.5357033203125,950.8917062988281,229.6741033203125,952.2407062988282,226.5968033203125,952.6567062988281C223.7042033203125,953.1237062988281,220.7378033203125,952.9107062988281,217.9489033203125,952.0337062988281C214.9962033203125,951.1607062988281,212.4564033203125,949.3087062988282,210.7763033203125,946.8047062988281C209.8994033203125,945.4167062988281,209.4795033203125,943.8047062988281,209.5724033203125,942.1817062988281C209.6830033203125,940.5887062988281,210.2723033203125,939.0617062988281,211.2680033203125,937.7877062988281C213.0963033203125,935.5207062988281,215.6879033203125,933.9427062988282,218.5933033203125,933.3287062988281C221.3061033203125,932.6897062988281,224.1382033203125,932.6897062988281,226.8511033203125,933.3287062988281C229.6480033203125,933.8917062988281,232.1853033203125,935.3047062988281,234.09150332031248,937.3617062988282L231.6668033203125,938.1157062988282C232.1755033203125,933.1977062988282,232.3111033203125,928.0337062988281,232.3281033203125,922.9687062988281C232.34500332031251,917.9027062988281,232.2094033203125,912.8047062988281,232.00590332031248,907.7067062988281L233.4811033203125,908.6907062988281C229.0698033203125,910.1087062988281,224.3692033203125,910.4737062988281,219.7802033203125,909.7557062988282C215.1998033203125,909.0067062988281,210.8992033203125,907.1197062988281,207.3002033203125,904.2805062988282C203.7296033203125,901.4630062988281,200.8364833203125,897.9276062988281,198.8219033203125,893.9200062988282C196.8730933203125,889.9123062988281,195.7225943203125,885.5856062988281,195.4305819203125,881.1661062988281C195.1425713203125,876.7168062988281,195.7826473203125,872.2570062988282,197.3127633203125,868.0516062988281C198.80766332031249,863.9192062988282,200.9091533203125,860.0160062988281,203.5527633203125,856.4616062988281C206.2064033203125,852.9584062988281,209.1496033203125,849.6690062988281,212.3532033203125,846.6257062988282C215.54110332031252,843.5438062988281,218.7967033203125,840.6586062988281,222.0015033203125,837.6915062988281L221.6963033203125,838.6423062988281C220.04190332031249,832.3701062988281,219.2270033203125,825.9186062988281,219.2715033203125,819.4459062988282C219.2715033203125,818.6262062988282,219.37320332031248,817.8066062988281,219.4919033203125,816.9869062988281C219.5877033203125,816.1659062988281,219.7292033203125,815.3506062988281,219.9158033203125,814.5443462988281C220.2614033203125,812.8479662988282,220.9221033203125,811.2261662988282,221.8659033203125,809.7575462988282C222.8154033203125,808.2254162988281,224.1218033203125,806.9287362988281,225.6811033203125,805.9707242988281C227.4094033203125,804.9389516988281,229.5250033203125,804.7103542988282,231.4463033203125,805.3477852988282C233.2214033203125,806.0763662988281,234.6992033203125,807.3494862988281,235.6515033203125,808.9706662988282L236.34680332031252,810.1017962988282C236.53330332031248,810.4788362988281,236.6859033203125,810.8722762988281,236.87240332031251,811.2657162988281C237.2499033203125,812.0550762988281,237.54530332031248,812.8787862988281,237.7541033203125,813.7246862988281C238.4166033203125,817.0449062988281,238.1712033203125,820.4749062988282,237.04200332031252,823.6753062988281C236.5174033203125,825.2884062988281,235.8302033203125,826.8478062988281,234.9902033203125,828.3310062988281C234.1427033203125,829.7617062988281,233.2143033203125,831.1463062988281,232.2094033203125,832.4784062988281C230.21230332031251,835.1006062988281,228.0251033203125,837.5822062988282,225.6641033203125,839.9045062988281L226.1898033203125,838.4292062988281C226.68150332031252,840.3635062988282,227.1902033203125,842.2815062988282,227.6480033203125,844.2651062988281L229.0385033203125,850.1830062988281C230.00500332031248,854.1174062988281,230.6324033203125,858.0517062988281,231.4294033203125,861.9861062988281L229.2080033203125,860.3468062988281C233.0203033203125,859.9869062988281,236.8608033203125,860.6625062988281,240.2976033203125,862.2976062988281L240.2976033203125,862.3796062988281Z" fill="url(#master_svg4_7_9465)" fill-opacity="1"/><path d="M240.7932033203125,861.9511062988281Q244.2105033203125,863.6755062988282,247.0283033203125,866.2262062988282Q249.9140033203125,868.9337062988282,251.8608033203125,872.3241062988282Q253.8238033203125,875.7463062988281,254.59160332031252,879.5886062988282Q255.4427033203125,883.4281062988281,254.9547033203125,887.3392062988281Q254.5371033203125,891.2748062988281,252.8327033203125,894.8832062988281Q251.2158033203125,898.4164062988282,248.6776033203125,901.4094062988281Q244.42900332031252,906.4977062988281,238.4894033203125,909.3737062988281Q238.8311033203125,917.1897062988281,238.8506033203125,923.6557062988281Q238.8506033203125,929.2597062988282,238.6293033203125,932.1027062988281Q238.47430332031252,936.0297062988282,237.9116033203125,939.9207062988281Q238.5523033203125,942.2227062988281,237.93230332031249,944.5967062988282Q237.2159033203125,947.2827062988281,235.1899033203125,949.2397062988282Q231.6067033203125,952.5877062988282,226.6851033203125,953.2547062988281Q222.1451033203125,953.9867062988282,217.7676033203125,952.6107062988281Q215.4626033203125,951.9287062988282,213.52910332031252,950.5197062988282Q211.5938033203125,949.1087062988281,210.2741033203125,947.1407062988281Q210.2695033203125,947.1347062988282,210.2651033203125,947.1277062988281Q208.8149033203125,944.8327062988282,208.9686033203125,942.1467062988281Q209.1515033203125,939.5137062988281,210.7916033203125,937.4157062988281Q213.75940332031252,933.7347062988281,218.4616033203125,932.7387062988281Q222.72080332031248,931.7367062988282,226.9800033203125,932.7387062988281Q229.27220332031249,933.2007062988281,231.19260332031251,934.2887062988282Q231.4944033203125,928.9947062988281,231.38430332031248,923.6857062988281Q231.3842033203125,917.7837062988281,231.03680332031252,909.9867062988282Q225.4519033203125,911.2557062988282,219.6867033203125,910.3537062988281Q212.5396033203125,909.1847062988281,206.9256033203125,904.7552062988282Q201.4000233203125,900.3950062988281,198.2815933203125,894.1916062988281Q195.2769069203125,888.0126062988281,194.8271663203125,881.2060062988281Q194.3824923203125,874.3365062988281,196.7444833203125,867.8448062988281Q199.0283733203125,861.5314062988281,203.0675333203125,856.1007062988281Q207.0875033203125,850.7937062988282,211.9367033203125,846.1873062988282Q214.0695033203125,844.1253062988281,218.3919033203125,840.1809062988282Q219.9072033203125,838.7981062988281,220.8815033203125,837.9019062988282Q218.6024033203125,828.8102062988281,218.6668033203125,819.4417062988281Q218.6668033203125,818.4681062988282,218.8922033203125,816.9086062988281Q219.0394033203125,815.6509062988281,219.3249033203125,814.4157662988281Q219.8707033203125,811.7436262988281,221.3571033203125,809.4306162988281Q222.8713033203125,806.9873162988281,225.3645033203125,805.4554752988281Q226.7809033203125,804.6098692988281,228.4264033203125,804.4320712988281Q230.0710033203125,804.2543622988281,231.6367033203125,804.7738182988281Q231.6566033203125,804.7804022988281,231.6759033203125,804.7883422988281Q234.6014033203125,805.9890592988281,236.1730033203125,808.6643662988281L236.8620033203125,809.7851462988282Q236.8765033203125,809.8087862988282,236.8888033203125,809.8336562988281Q236.9975033203125,810.0534662988281,237.1883033203125,810.4920362988281Q237.3387033203125,810.8375862988281,237.4188033203125,811.0066662988281Q238.0123033203125,812.2476162988281,238.3412033203125,813.5797262988282Q238.3445033203125,813.5929762988281,238.3472033203125,813.6063562988281Q239.3899033203125,818.8324062988281,237.61470332031251,823.8695062988281Q236.8076033203125,826.3490062988282,235.5164033203125,828.6290062988281Q234.2211033203125,830.8159062988282,232.6921033203125,832.8426062988282Q230.0779033203125,836.2751062988282,227.0539033203125,839.3672062988281Q227.0887033203125,839.5031062988281,227.1288033203125,839.6590062988281Q227.8868033203125,842.6106062988281,228.2373033203125,844.1291062988281L229.6272033203125,850.0447062988281Q230.2740033203125,852.6777062988281,231.26450332031249,857.9403062988281Q231.4405033203125,858.8758062988281,231.5876033203125,859.6445062988281Q236.2588033203125,859.7064062988281,240.55740332031252,861.7515062988281Q240.7017033203125,861.8201062988281,240.7932033203125,861.9511062988281ZM231.8222033203125,860.8591062988281Q235.9729033203125,860.9654062988282,239.8097033203125,862.7367062988282Q239.8971033203125,862.8562062988282,240.02990332031248,862.9218062988281Q243.4302033203125,864.6005062988281,246.21660332031252,867.1229062988282Q248.9549033203125,869.6923062988282,250.8119033203125,872.9264062988282Q252.6764033203125,876.1768062988281,253.4055033203125,879.8256062988281Q254.21660332031252,883.4858062988282,253.7546033203125,887.1895062988281Q253.3560033203125,890.9435062988281,251.7391033203125,894.3666062988282Q250.1854033203125,897.7614062988281,247.7552033203125,900.6271062988282Q243.83820332031252,905.3177062988282,238.4298033203125,908.0527062988281Q238.4033033203125,907.4827062988281,238.3751033203125,906.9067062988281Q238.3682033203125,906.7637062988281,238.29780332031248,906.6387062988281Q238.2274033203125,906.5137062988281,238.1085033203125,906.4347062988281Q238.0087033203125,906.3667062988281,237.8908033203125,906.3437062988281Q237.7729033203125,906.3197062988281,237.65490332031248,906.3427062988281Q237.53680332031252,906.3657062988282,237.43660332031249,906.4327062988282Q237.3364033203125,906.4987062988281,237.2693033203125,906.5987062988281L235.2854033203125,909.5497062988281Q235.2447033203125,909.6097062988281,235.2195033203125,909.6787062988282Q235.19440332031252,909.7467062988281,235.1862033203125,909.8197062988281Q235.17810332031252,909.8917062988281,235.1875033203125,909.9647062988281Q235.19680332031248,910.0367062988281,235.2231033203125,910.1047062988281Q235.2445033203125,910.1607062988281,235.2764033203125,910.2107062988281Q235.3083033203125,910.2607062988282,235.3494033203125,910.3037062988282Q235.3904033203125,910.3467062988282,235.43910332031248,910.3817062988281Q235.4879033203125,910.4157062988281,235.5423033203125,910.4397062988281Q235.59680332031252,910.4637062988281,235.65490332031248,910.4767062988282Q235.7130033203125,910.4897062988281,235.7725033203125,910.4917062988281Q235.8321033203125,910.4927062988281,235.8908033203125,910.4827062988281Q235.9495033203125,910.4727062988281,236.00500332031248,910.4507062988281Q236.6629033203125,910.1967062988281,237.3023033203125,909.9187062988282Q237.62230332031248,917.4217062988281,237.6412033203125,923.6587062988281Q237.6412033203125,929.2237062988281,237.4226033203125,932.0197062988282Q237.4217033203125,932.0317062988281,237.4212033203125,932.0427062988281Q237.29200332031252,935.3327062988282,236.8719033203125,938.5967062988282Q236.8195033203125,938.6097062988281,236.7702033203125,938.6327062988281Q236.7210033203125,938.6557062988281,236.6767033203125,938.6867062988281Q236.6323033203125,938.7187062988281,236.5942033203125,938.7567062988281Q236.5562033203125,938.7957062988281,236.52560332031248,938.8407062988281Q236.4950033203125,938.8857062988282,236.4729033203125,938.9347062988281Q236.4507033203125,938.9847062988281,236.4378033203125,939.0367062988281Q236.4248033203125,939.0897062988281,236.4215033203125,939.1437062988282Q236.4181033203125,939.1977062988282,236.4244033203125,939.2517062988281L236.5940033203125,940.6947062988281Q236.6031033203125,940.7717062988281,236.6316033203125,940.8447062988281Q236.6600033203125,940.9177062988281,236.7060033203125,940.9807062988282Q236.7520033203125,941.043706298828,236.8124033203125,941.0927062988281Q236.8729033203125,941.1417062988281,236.9439033203125,941.1747062988281Q237.17380332031252,942.7147062988281,236.7621033203125,944.2907062988281Q236.1339033203125,946.6467062988281,234.3497033203125,948.3697062988281Q231.0600033203125,951.4437062988281,226.5158033203125,952.0577062988282Q226.5080033203125,952.0587062988282,226.5003033203125,952.0597062988281Q222.2387033203125,952.7477062988281,218.1302033203125,951.4567062988281Q213.7624033203125,950.1647062988282,211.2832033203125,946.4747062988281Q210.0448033203125,944.5107062988282,210.1761033203125,942.2157062988281Q210.3324033203125,939.9667062988281,211.7444033203125,938.1607062988281Q214.4328033203125,934.8257062988281,218.7183033203125,933.9207062988281Q218.72510332031248,933.9197062988281,218.73200332031251,933.9177062988281Q222.7222033203125,932.9777062988281,226.7124033203125,933.9177062988281Q226.7221033203125,933.9197062988281,226.7319033203125,933.9217062988281Q229.1461033203125,934.4077062988281,231.1083033203125,935.6487062988281Q231.0524033203125,936.4827062988281,230.98630332031252,937.3157062988281Q229.0147033203125,935.9807062988282,226.2968033203125,935.4827062988281Q222.6893033203125,934.8207062988281,219.2438033203125,935.8617062988282Q215.8823033203125,936.7297062988281,213.8364033203125,939.4577062988282Q212.9378033203125,940.6837062988282,212.9378033203125,942.1817062988281Q212.9378033203125,943.6797062988281,213.8325033203125,944.8997062988282Q213.8402033203125,944.9097062988282,213.8484033203125,944.9207062988281Q215.8776033203125,947.4507062988281,219.0978033203125,948.1797062988281Q222.3676033203125,948.9947062988281,225.6631033203125,948.2827062988281Q228.8212033203125,947.7097062988281,231.0518033203125,945.4697062988281Q231.99390332031248,944.6007062988281,232.2659033203125,943.3647062988282Q232.53760332031248,942.1307062988282,232.0450033203125,940.9647062988281L231.89390332031252,940.5257062988281L231.9788033203125,939.8287062988281Q231.9797033203125,939.8207062988281,231.9804033203125,939.8137062988282Q231.9919033203125,939.6947062988281,232.0033033203125,939.5757062988281L233.8968033203125,939.8967062988281Q233.9471033203125,939.9047062988282,233.9981033203125,939.9047062988282Q234.0491033203125,939.9047062988282,234.0994033203125,939.8967062988281Q234.14970332031248,939.8877062988281,234.19780332031252,939.870706298828Q234.2460033203125,939.8547062988281,234.2906033203125,939.8297062988281Q234.3352033203125,939.8047062988281,234.3751033203125,939.7727062988281Q234.4150033203125,939.7417062988281,234.4489033203125,939.7037062988281Q234.48290332031252,939.6657062988281,234.5100033203125,939.6217062988281Q234.5372033203125,939.5787062988281,234.5567033203125,939.5317062988281L235.0064033203125,938.4457062988281Q235.0449033203125,938.3527062988281,235.0512033203125,938.2517062988281Q235.3745033203125,933.0527062988281,235.3745033203125,922.7957062988281Q235.2557033203125,915.1047062988281,234.8828033203125,907.4627062988282L234.8828033203125,906.0507062988281Q234.8828033203125,905.9577062988282,234.8549033203125,905.8697062988281Q234.8189033203125,905.7547062988281,234.7416033203125,905.6627062988281Q234.6643033203125,905.5707062988281,234.5577033203125,905.5147062988282Q234.4510033203125,905.4587062988281,234.3312033203125,905.4487062988281Q234.2114033203125,905.4377062988281,234.0966033203125,905.4737062988281L232.67900332031252,905.9197062988281Q232.3721033203125,906.0227062988281,232.0649033203125,906.1177062988281L232.0371033203125,905.5267062988281L233.7115033203125,904.8954062988281Q239.8387033203125,902.6255062988281,244.1236033203125,897.8139062988281Q246.2143033203125,895.4207062988281,247.6058033203125,892.5972062988282Q249.0198033203125,889.8321062988281,249.4749033203125,886.7696062988281Q250.00260332031252,883.6792062988281,249.4737033203125,880.5887062988281Q248.9522033203125,877.4012062988281,247.40930332031252,874.5353062988281Q245.9185033203125,871.7494062988281,243.6785033203125,869.4793062988281Q243.6712033203125,869.4718062988281,243.6636033203125,869.4646062988281Q241.34240332031248,867.2696062988281,238.49480332031249,865.7630062988281Q234.2392033203125,863.5337062988281,229.4111033203125,863.8085062988281L228.0062033203125,863.8912062988281L227.8043033203125,862.6284062988282L226.8719033203125,856.7117062988282Q226.8399033203125,856.5036062988281,226.7758033203125,856.0848062988281Q226.2310033203125,852.5234062988281,225.8479033203125,850.7749062988281L224.6804033203125,844.8691062988281Q224.4155033203125,843.4175062988281,223.7711033203125,840.4872062988281Q223.6769033203125,840.0588062988281,223.6030033203125,839.7211062988281Q223.7596033203125,839.5787062988281,223.8956033203125,839.4548062988281L224.3195033203125,839.0777062988282Q224.3807033203125,839.0234062988281,224.4251033203125,838.9547062988281Q224.4696033203125,838.8860062988281,224.4943033203125,838.8080062988281Q224.5189033203125,838.7299062988282,224.5219033203125,838.6482062988281Q224.5249033203125,838.5664062988282,224.5061033203125,838.4867062988282L224.3678033203125,837.9021062988281Q224.3220033203125,837.7234062988281,224.2773033203125,837.5448062988281Q227.4770033203125,834.5095062988281,230.2635033203125,831.1147062988281Q233.4004033203125,827.5069062988281,235.0323033203125,823.0642062988281Q236.6932033203125,818.6464062988281,235.8567033203125,814.0107262988281Q235.8518033203125,813.9837462988281,235.8445033203125,813.9573162988281Q235.1734033203125,811.5243962988282,234.0722033203125,809.7646062988281Q232.6756033203125,807.5328562988282,230.8160033203125,806.8162562988281Q230.8028033203125,806.8111662988281,230.7893033203125,806.8067062988281Q229.7255033203125,806.4529162988281,228.6092033203125,806.5853562988282Q227.4920033203125,806.7179062988281,226.5467033203125,807.3108562988281Q224.5597033203125,808.5218062988281,223.3561033203125,810.4825562988282Q222.0629033203125,812.4526462988281,221.5809033203125,814.7399962988281Q221.3097033203125,815.8807062988282,221.1641033203125,817.0429062988281Q221.0250033203125,818.0735062988281,220.9403033203125,819.3569062988281Q220.93920332031252,819.3731062988281,220.9390033203125,819.3894062988281Q220.8302033203125,828.3923062988281,222.9343033203125,837.1469062988281Q222.9171033203125,837.1629062988281,222.8987033203125,837.1799062988281L222.5688033203125,837.4821062988282Q222.5271033203125,837.3690062988281,222.4453033203125,837.2806062988282Q222.39640332031252,837.2278062988281,222.3365033203125,837.1880062988281Q222.2766033203125,837.1481062988281,222.2090033203125,837.1234062988282Q222.1415033203125,837.0988062988281,222.0700033203125,837.0906062988281Q221.9985033203125,837.0825062988281,221.9271033203125,837.0913062988282Q219.8147033203125,828.3989062988281,219.8762033203125,819.4500062988282Q219.8762033203125,818.5527062988281,220.0904033203125,817.0736062988282Q220.09160332031252,817.0653062988281,220.0926033203125,817.0570062988281Q220.2324033203125,815.8581062988281,220.5050033203125,814.6807562988281Q220.50680332031249,814.6729262988281,220.5084033203125,814.6650562988282Q221.0085033203125,812.2103462988281,222.3746033203125,810.0844662988281Q223.7485033203125,807.8678962988281,225.9977033203125,806.4859762988282Q227.17380332031252,805.7839212988281,228.5563033203125,805.6345352988282Q229.9293033203125,805.4861822988281,231.2361033203125,805.9152332988281Q233.7702033203125,806.9620362988281,235.13010332031251,809.2769762988281L235.8166033203125,810.3940462988281Q235.9111033203125,810.5879462988281,236.0793033203125,810.9745662988281Q236.2374033203125,811.3379862988281,236.3260033203125,811.5247662988281Q236.8649033203125,812.6515662988281,237.1638033203125,813.8565062988281Q238.1373033203125,818.7534062988282,236.47170332031249,823.4741062988281Q236.4692033203125,823.4812062988282,236.4669033203125,823.4883062988281Q235.6970033203125,825.8558062988282,234.4640033203125,828.0330062988281Q233.2149033203125,830.1414062988281,231.7266033203125,832.1142062988281Q229.3624033203125,835.2185062988282,226.6540033203125,838.0417062988281Q226.5483033203125,837.9149062988281,226.3927033203125,837.8595062988281Q226.3366033203125,837.8395062988282,226.2777033203125,837.8308062988281Q226.2188033203125,837.8222062988282,226.1593033203125,837.8252062988281Q226.0998033203125,837.8282062988281,226.0420033203125,837.8427062988281Q225.9843033203125,837.8573062988281,225.9305033203125,837.8828062988281Q225.87670332031252,837.9084062988281,225.8289033203125,837.9439062988281Q225.7811033203125,837.9795062988281,225.7411033203125,838.0236062988281Q225.70120332031252,838.0678062988281,225.6707033203125,838.1190062988281Q225.6401033203125,838.1701062988282,225.6201033203125,838.2262062988282L225.0945033203125,839.7016062988281Q225.0659033203125,839.7818062988281,225.0606033203125,839.8668062988281Q225.0553033203125,839.9518062988282,225.0736033203125,840.0350062988281Q225.0920033203125,840.1182062988281,225.1326033203125,840.1930062988281Q225.1733033203125,840.2679062988282,225.2330033203125,840.3286062988282Q225.2731033203125,840.3694062988282,225.3201033203125,840.4019062988282Q225.3671033203125,840.4344062988281,225.4194033203125,840.4575062988281Q225.47170332031249,840.4807062988282,225.5273033203125,840.4936062988281Q225.5830033203125,840.5065062988281,225.6401033203125,840.5088062988282Q225.6973033203125,840.5111062988282,225.7538033203125,840.5026062988281Q225.8103033203125,840.4941062988281,225.8643033203125,840.4752062988281Q225.9182033203125,840.4563062988282,225.9676033203125,840.4276062988281Q226.01710332031251,840.3989062988281,226.0603033203125,840.3614062988281Q226.7358033203125,843.0018062988281,227.0588033203125,844.4011062988282L228.4498033203125,850.3214062988282Q229.09150332031248,852.9339062988281,230.0759033203125,858.1640062988281Q230.22850332031248,858.9751062988281,230.3596033203125,859.6623062988281Q229.7585033203125,859.6874062988281,229.1512033203125,859.7447062988281Q229.0227033203125,859.7569062988281,228.9104033203125,859.8204062988282Q228.7981033203125,859.8839062988282,228.7215033203125,859.9877062988281Q228.6861033203125,860.0356062988282,228.6608033203125,860.0895062988282Q228.6354033203125,860.1434062988282,228.6211033203125,860.2012062988281Q228.6068033203125,860.2591062988281,228.6040033203125,860.3186062988282Q228.6012033203125,860.3780062988282,228.6101033203125,860.4369062988281Q228.61890332031248,860.4958062988281,228.6391033203125,860.5519062988282Q228.65930332031252,860.6079062988281,228.69010332031252,860.6589062988281Q228.72080332031248,860.7099062988282,228.7609033203125,860.7540062988281Q228.8010033203125,860.7980062988281,228.8490033203125,860.8334062988281L231.0703033203125,862.4727062988281Q231.1734033203125,862.5488062988281,231.2986033203125,862.5765062988281Q231.42380332031252,862.6042062988281,231.5494033203125,862.5788062988281Q231.60780332031248,862.5670062988281,231.66270332031252,862.5440062988281Q231.7177033203125,862.5210062988281,231.76710332031251,862.4877062988281Q231.8165033203125,862.4545062988282,231.8585033203125,862.4122062988281Q231.9004033203125,862.3699062988281,231.9333033203125,862.3203062988281Q231.9663033203125,862.2707062988281,231.9889033203125,862.2156062988281Q232.0115033203125,862.1604062988281,232.0229033203125,862.1020062988281Q232.03430332031252,862.0435062988281,232.0341033203125,861.9840062988281Q232.0339033203125,861.9244062988281,232.0220033203125,861.8660062988281Q231.9346033203125,861.4342062988281,231.8222033203125,860.8591062988281ZM221.3353033203125,839.1274062988281Q220.4539033203125,839.9366062988281,219.2072033203125,841.0743062988281Q214.8977033203125,845.0070062988282,212.7697033203125,847.0642062988281Q207.9920033203125,851.6027062988281,204.0380033203125,856.8225062988281Q200.1051233203125,862.1103062988282,197.8810433203125,868.2584062988282Q195.6058203203125,874.5116062988282,196.0339973203125,881.1262062988282Q196.4681233203125,887.6966062988281,199.3622033203125,893.6484062988281Q202.3600333203125,899.6119062988281,207.6748033203125,903.8057062988281Q213.0433033203125,908.0417062988281,219.8737033203125,909.1587062988281Q225.5172033203125,910.0417062988281,230.9805033203125,908.7587062988281Q230.95550332031252,908.2287062988281,230.92900332031252,907.6897062988281Q225.6314033203125,909.0157062988281,220.1319033203125,908.2067062988281Q213.4932033203125,907.2157062988281,208.2306033203125,903.1646062988282Q203.0539133203125,899.0692062988281,200.1108533203125,893.2531062988281Q197.2313633203125,887.4159062988281,196.7604933203125,880.9642062988281Q196.2886183203125,874.4961062988282,198.4921233203125,868.3663062988281Q200.7366333203125,862.3007062988281,204.6647833203125,857.0963062988282Q208.60270332031251,851.9018062988281,213.3790033203125,847.4159062988281Q215.5173033203125,845.3933062988281,219.9559033203125,841.3895062988281Q221.3455033203125,840.1360062988281,222.2726033203125,839.2954062988281Q222.2650033203125,839.2605062988281,222.2582033203125,839.2287062988281L222.2039033203125,838.9710062988281Q222.1162033203125,839.1064062988281,221.9727033203125,839.1801062988282Q221.8657033203125,839.2351062988281,221.7459033203125,839.2450062988281Q221.6260033203125,839.2548062988282,221.5115033203125,839.2181062988282Q221.4159033203125,839.1874062988281,221.3353033203125,839.1274062988281ZM222.5702033203125,840.6577062988281Q221.7962033203125,841.3582062988281,220.7660033203125,842.2875062988281Q216.33810332031248,846.2818062988281,214.2101033203125,848.2946062988282Q209.5050033203125,852.7136062988282,205.6286033203125,857.8269062988281Q201.8091833203125,862.8874062988282,199.6264233203125,868.7860062988282Q197.5135333203125,874.6638062988281,197.9667433203125,880.8762062988282Q198.4204333203125,887.0925062988281,201.1955233203125,892.7180062988282Q204.0129533203125,898.2857062988281,208.9810033203125,902.2161062988281Q213.9822033203125,906.0667062988281,220.3103033203125,907.0097062988282Q225.6907033203125,907.8017062988281,230.8700033203125,906.4567062988281L230.8083033203125,905.1447062988282Q230.8038033203125,905.0497062988281,230.8291033203125,904.9568062988282Q230.85440332031249,904.8644062988282,230.9071033203125,904.7843062988281Q230.95970332031249,904.7043062988281,231.0345033203125,904.6444062988281Q231.1093033203125,904.5845062988282,231.1989033203125,904.5507062988281L233.2846033203125,903.7638062988282Q239.1359033203125,901.5960062988281,243.2204033203125,897.0096062988281Q245.1994033203125,894.7442062988281,246.5209033203125,892.0625062988281Q247.8541033203125,889.4552062988281,248.2795033203125,886.5855062988281Q248.2805033203125,886.5789062988281,248.2816033203125,886.5722062988282Q248.7761033203125,883.6825062988281,248.2816033203125,880.7927062988281Q247.7913033203125,877.7963062988281,246.3443033203125,875.1086062988281Q244.9371033203125,872.4789062988282,242.8249033203125,870.3362062988281Q240.6264033203125,868.2591062988281,237.9292033203125,866.8320062988281Q233.9741033203125,864.7602062988282,229.4798033203125,865.0160062988281L227.5310033203125,865.1307062988282Q227.4753033203125,865.1340062988281,227.4200033203125,865.1270062988282Q227.36470332031251,865.1201062988281,227.3115033203125,865.1031062988282Q227.2584033203125,865.0862062988281,227.2093033203125,865.0598062988281Q227.1602033203125,865.0334062988281,227.1167033203125,864.9985062988281Q227.0732033203125,864.9636062988282,227.0369033203125,864.9213062988281Q227.0005033203125,864.8790062988281,226.9725033203125,864.8308062988281Q226.9445033203125,864.7826062988281,226.9258033203125,864.7301062988281Q226.9071033203125,864.6776062988281,226.8983033203125,864.6225062988282L226.6100033203125,862.8193062988281L225.67720332031251,856.9000062988281Q225.6448033203125,856.6898062988281,225.5803033203125,856.2677062988281Q225.0413033203125,852.7445062988281,224.6664033203125,851.0338062988282L223.4939033203125,845.1037062988281Q223.2296033203125,843.6561062988281,222.5898033203125,840.7470062988282Q222.5785033203125,840.6953062988281,222.5702033203125,840.6577062988281ZM232.6187033203125,938.4527062988282L233.6237033203125,938.6237062988281L233.8503033203125,938.0767062988282Q233.8504033203125,938.0727062988282,233.8506033203125,938.0697062988281L232.6187033203125,938.4527062988282ZM233.9409033203125,936.3447062988281Q233.2677033203125,935.6977062988282,232.5314033203125,935.1557062988281Q232.9095033203125,929.9287062988282,232.9328033203125,922.9707062988281Q232.9526033203125,917.0577062988282,232.6818033203125,909.5647062988281Q233.17470332031252,909.4237062988282,233.6662033203125,909.2657062988281Q233.7120033203125,909.2517062988281,233.7549033203125,909.2297062988281Q234.0600033203125,916.0027062988281,234.16510332031248,922.8137062988282Q234.16510332031248,931.3397062988281,233.9409033203125,936.3447062988281ZM233.7032033203125,908.1117062988282Q233.6888033203125,907.8087062988282,233.6740033203125,907.5067062988281Q233.6733033203125,907.4917062988281,233.6733033203125,907.4767062988282L233.6733033203125,906.8747062988282L233.0624033203125,907.0667062988281Q232.7507033203125,907.1717062988281,232.4381033203125,907.2677062988281L233.7032033203125,908.1117062988282ZM232.3576033203125,937.2677062988281L232.95880332031248,937.0807062988281Q232.6933033203125,936.8327062988282,232.4171033203125,936.6027062988281Q232.3881033203125,936.9397062988281,232.3576033203125,937.2677062988281ZM223.9501033203125,836.1835062988281Q226.8123033203125,833.4139062988281,229.3341033203125,830.3408062988282Q229.3396033203125,830.3340062988282,229.3453033203125,830.3274062988281Q232.3404033203125,826.8850062988281,233.8969033203125,822.6472062988281Q235.4389033203125,818.5458062988281,234.6713033203125,814.2524562988282Q234.0486033203125,812.0068262988282,233.0469033203125,810.4062062988281Q231.8695033203125,808.5247362988281,230.3942033203125,807.9498962988281Q228.6955033203125,807.3907362988281,227.1894033203125,808.3354462988282Q225.4344033203125,809.4051362988281,224.3824033203125,811.1225662988281Q224.3774033203125,811.1308262988281,224.3721033203125,811.1389262988281Q223.1982033203125,812.9243062988281,222.7629033203125,814.9965062988281Q222.7613033203125,815.0044062988281,222.75940332031252,815.0123062988281Q222.5021033203125,816.0926062988282,222.3642033203125,817.1933062988281Q222.2300033203125,818.1878062988281,222.1482033203125,819.4203062988281Q222.0475033203125,827.9142062988282,223.9501033203125,836.1835062988281ZM230.8669033203125,938.7287062988281Q228.9461033203125,937.1977062988282,226.0785033203125,936.6717062988281Q222.7532033203125,936.0617062988281,219.5825033203125,937.0227062988281Q219.5702033203125,937.0267062988281,219.5578033203125,937.0297062988282Q216.5989033203125,937.7907062988281,214.8040033203125,940.1837062988282Q214.14720332031249,941.0797062988281,214.14720332031249,942.1817062988281Q214.14720332031249,943.2777062988281,214.8003033203125,944.1737062988282Q216.5653033203125,946.3687062988281,219.3706033203125,947.0017062988281Q219.3774033203125,947.0027062988281,219.3842033203125,947.0047062988281Q222.3888033203125,947.7557062988282,225.4173033203125,947.0987062988281Q225.4276033203125,947.0967062988282,225.4380033203125,947.0947062988281Q228.2348033203125,946.5897062988281,230.2034033203125,944.6077062988281Q230.2134033203125,944.5977062988281,230.2238033203125,944.5877062988282Q230.8933033203125,943.9747062988281,231.08470332031249,943.1047062988281Q231.2754033203125,942.2387062988281,230.9244033203125,941.4197062988281Q230.9157033203125,941.3997062988282,230.9085033203125,941.3787062988281L230.7050033203125,940.7887062988282Q230.6596033203125,940.6567062988281,230.6764033203125,940.5187062988282L230.7764033203125,939.6967062988281L230.7782033203125,939.6817062988281Q230.8241033203125,939.2057062988281,230.8669033203125,938.7287062988281Z" fill-rule="evenodd" fill="url(#master_svg5_7_9465)" fill-opacity="1"/></g><g style="mix-blend-mode:luminosity"><path d="M232.97254740142822,908.3295653869629C228.56124740142823,909.556865386963,223.91044740142823,909.7479653869628,219.4073474014282,908.8868653869629C217.1676474014282,908.4538653869629,214.99194740142823,907.7545653869629,212.92994740142822,906.8049653869629C211.89814740142822,906.334065386963,210.90604740142822,905.7859653869629,209.96254740142822,905.1656653869629L208.53814740142823,904.2967653869629L207.19864740142822,903.2968653869628C203.63476740142823,900.6153653869629,200.81966740142823,897.1161653869628,199.00858740142823,893.116665386963C197.28179440142821,889.1563653869629,196.37724270142823,884.9064653869629,196.34640653142822,880.6086653869629C196.30908780142823,872.0646653869629,199.18117740142822,863.7462653869629,204.51947740142822,856.9369653869629C209.77604740142823,850.1666653869629,216.59254740142822,845.0519653869629,222.62904740142824,839.3143653869629L224.15174740142822,839.8233313869629L224.1890474014282,839.8389433869629C225.10474740142823,843.5274053869629,225.88474740142823,847.3142153869629,226.7156474014282,851.0682653869629C227.15644740142824,852.9370653869629,227.44474740142823,854.8222653869628,227.80084740142823,856.6910653869629L228.85214740142823,862.3303653869629L229.02174740142823,863.2975653869629L228.00434740142822,863.4778653869629C224.85384740142823,864.0189653869629,221.91954740142822,865.3919653869629,219.52604740142823,867.4449653869628C217.14124740142822,869.4679653869629,215.42514740142823,872.1247653869628,214.59164740142822,875.0841653869629C213.85964740142822,878.0156653869628,214.1950474014282,881.1014653869629,215.54124740142822,883.8217653869629C216.89844740142823,886.474465386963,219.15454740142823,888.597665386963,221.93384740142824,889.8380653869629L219.4073474014282,890.526565386963L220.08554740142822,889.1823653869629L220.86554740142822,891.6085653869629C217.65274740142823,890.1435653869629,215.04704740142822,887.6707653869629,213.47254740142822,884.5922653869629C211.8705474014282,881.4172653869629,211.43404740142822,877.8096653869629,212.23474740142822,874.3629653869629C213.14864740142824,870.9517653869628,215.07624740142822,867.8742653869629,217.77954740142823,865.5106653869628C220.50224740142824,863.1803653869629,223.83324740142822,861.6155653869629,227.4108474014282,860.9861653869629L230.4799474014282,860.4779653869629L231.03954740142822,863.4778653869629C231.66694740142822,866.9532653869629,232.26034740142822,870.4613653869629,232.7351474014282,873.9694653869628C233.20994740142822,877.4776653869629,233.66784740142822,881.0021653869629,234.05774740142823,884.5430653869629C234.44774740142822,888.0839653869629,234.7530474014282,891.6249653869629,234.82084740142824,895.198665386963L235.2447474014282,905.8705653869629L235.2447474014282,907.6082653869629L233.54914740142823,908.0672653869628L232.97254740142822,908.3295653869629ZM231.59914740142824,904.1328653869629L232.31124740142823,903.8705653869629L230.76824740142823,906.0836653869629L229.7847474014282,895.6411653869629C229.5134474014282,892.1658653869629,228.93694740142823,888.7068653869629,228.3943474014282,885.2479653869628C227.8517474014282,881.7889653869629,227.27514740142823,878.3300653869629,226.69864740142822,874.8874653869628L225.00304740142823,864.4778653869629L228.61474740142822,866.9695653869629C226.12354740142823,867.3347653869629,223.78034740142823,868.3427653869629,221.83214740142822,869.8875653869629C219.87764740142822,871.4176653869629,218.39404740142822,873.4359653869628,217.54214740142822,875.723565386963C216.77254740142823,878.0419653869629,216.83834740142822,880.5440653869629,217.72864740142822,882.8217653869629C218.68424740142822,885.1774653869629,220.4270474014282,887.1566653869629,222.67994740142822,888.4446653869629L224.3756474014282,889.428265386963L223.45994740142822,890.8871653869629L222.64604740142823,892.1658653869629L221.69644740142823,893.6740653869629L220.28904740142823,892.8707653869628C217.01884740142822,891.0649653869629,214.45154740142823,888.2719653869628,212.9808474014282,884.9200653869628C211.49194740142823,881.6371653869629,211.18164740142822,877.9671653869628,212.0990474014282,874.4940653869629C213.12104740142823,871.1166653869628,215.1427474014282,868.1021653869628,217.91514740142821,865.8220653869629C220.64774740142823,863.5588653869629,223.97574740142824,862.0721653869629,227.52954740142823,861.5270653869629L226.69864740142822,862.6581653869629L225.74914740142822,857.0189653869629C225.4099474014282,855.1337653869629,225.13864740142822,853.2321653869628,224.69784740142822,851.3960653869628C223.88384740142823,847.6748653869629,223.13784740142822,843.9700153869629,222.23914740142823,840.2323733869629L223.79914740142823,840.6749853869629C217.71174740142823,846.3961953869629,211.01384740142822,851.6747653869629,206.04557740142823,858.1828653869629C201.06545740142823,864.6700653869628,198.43711740142822,872.5638653869629,198.56773740142822,880.6414653869629C198.61753740142822,884.6041653869629,199.52435740142823,888.5129653869628,201.22991740142822,892.116665386963C202.92217740142823,895.676465386963,205.58303740142821,898.7248653869628,208.92824740142822,900.9361653869629C215.49824740142822,905.4553653869629,223.91514740142821,906.644765386963,231.54824740142823,904.1328653869629L231.59914740142824,904.1328653869629Z" fill="url(#master_svg6_7_9465)" fill-opacity="1" style="mix-blend-mode:luminosity"/><path d="M233.75464740142823,908.6380653869629L235.40274740142823,908.1919653869629Q235.45054740142822,908.1790653869629,235.4955474014282,908.1584653869629Q235.54064740142823,908.1379653869628,235.58174740142823,908.1103653869629Q235.62274740142823,908.0828653869629,235.65884740142823,908.0489653869629Q235.69494740142824,908.0150653869629,235.7250474014282,907.9757653869628Q235.75504740142821,907.9364653869629,235.77834740142822,907.8927653869629Q235.80164740142823,907.8491653869629,235.81754740142821,907.8022653869629Q235.83344740142823,907.7553653869629,235.8414474014282,907.7065653869629Q235.84944740142822,907.6576653869629,235.84944740142822,907.6082653869629L235.84944740142822,905.8705653869629Q235.84944740142822,905.8585653869629,235.8490474014282,905.8465653869629L235.42544740142822,895.1871653869629Q235.33944740142823,890.6559653869629,234.65884740142823,884.4768653869629Q234.18424740142822,880.1677653869629,233.33444740142824,873.8883653869628Q232.7385474014282,869.4855653869629,231.63404740142823,863.3669653869629L231.07444740142822,860.3670653869628Q231.06364740142823,860.3092653869629,231.04194740142822,860.2546653869629Q231.0202474014282,860.1999653869628,230.98844740142823,860.1505653869629Q230.95664740142823,860.1011653869629,230.9158474014282,860.0587653869629Q230.87514740142822,860.0163653869629,230.8269474014282,859.9826653869629Q230.7788474014282,859.9489653869629,230.7250474014282,859.9250653869628Q230.67134740142822,859.9012653869629,230.61404740142822,859.8882653869629Q230.55664740142822,859.8751653869629,230.49794740142823,859.8734653869628Q230.43914740142822,859.8717653869629,230.38114740142822,859.8813653869629L229.05174740142823,860.1014653869629L228.39484740142822,856.5778653869629Q228.2841474014282,855.9968653869629,228.07524740142821,854.8279653869629Q227.6110474014282,852.2300653869629,227.30604740142823,850.9375653869629Q227.08234740142822,849.9267653869629,226.64174740142823,847.8977653869629Q225.4467474014282,842.3952853869629,224.77604740142823,839.6932433869629Q224.74144740142822,839.5539763869629,224.6479474014282,839.4450893869629Q224.55454740142824,839.3362015869629,224.42214740142822,839.2809093869629L224.38474740142823,839.2652972869629Q224.36434740142823,839.2567917869629,224.34344740142822,839.2497939869629L222.8208474014282,838.7408283869629Q222.74274740142823,838.7147243869629,222.66044740142823,838.7104493869629Q222.57824740142823,838.7061743869629,222.49784740142823,838.7240393869629Q222.41754740142824,838.7419053869629,222.3448474014282,838.7806093869629Q222.2721474014282,838.8193143869629,222.21244740142822,838.8760403869629Q220.39764740142823,840.6010053869629,216.61174740142823,843.9507453869629Q212.19834740142824,847.855725386963,210.07274740142822,849.9222653869629Q206.51314740142823,853.3830653869629,204.04355740142822,856.5638653869629Q199.97723740142823,861.7506653869629,197.8454674014282,867.9249653869629Q195.71324340142823,874.1005653869629,195.74169040142823,880.613065386963Q195.78928440142823,887.2463653869629,198.45770740142822,893.3661653869628Q201.28110740142822,899.601265386963,206.83684740142823,903.7814653869629L208.17644740142822,904.7813653869629Q208.19914740142823,904.7983653869629,208.2232474014282,904.8130653869629L209.63904740142823,905.6766653869629Q211.0913474014282,906.6305653869629,212.6769474014282,907.3542653869629Q215.8483474014282,908.8146653869629,219.29374740142822,909.4808653869629Q226.28534740142823,910.817765386963,233.13464740142823,908.9121653869629Q233.18004740142823,908.8994653869629,233.22304740142823,908.8799653869629L233.75464740142823,908.6380653869629ZM227.85834740142823,860.2990653869629L227.20674740142823,856.8042653869629Q227.0947474014282,856.2164653869629,226.88464740142823,855.0407653869629Q226.4262474014282,852.4755653869629,226.12514740142822,851.1989653869629Q225.90094740142823,850.1856653869629,225.45984740142822,848.1544253869629Q224.54364740142822,843.9357353869628,223.93784740142823,841.3735153869629Q223.63034740142822,841.6605353869629,223.2703474014282,841.9924653869629Q223.80074740142823,844.3240053869629,224.55384740142821,847.8526453869629Q225.03934740142822,850.1275653869629,225.2858474014282,851.2548653869629Q225.6076474014282,852.5950653869629,226.07024740142822,855.3268653869629Q226.24954740142823,856.3851653869629,226.34544740142823,856.9185653869629L226.94134740142823,860.4577653869629Q227.1230474014282,860.4227653869629,227.30604740142823,860.3905653869629L227.85834740142823,860.2990653869629ZM225.75904740142823,860.7196653869629L225.15274740142823,857.1193653869628Q225.0580474014282,856.5931653869629,224.87784740142823,855.5288653869629Q224.42204740142822,852.8375653869629,224.10974740142822,851.5372653869629Q223.85714740142822,850.3827653869629,223.37104740142823,848.1050853869629Q222.72444740142822,845.0756853869628,222.24314740142822,842.9337053869629Q221.0032474014282,844.0639453869629,219.32394740142823,845.5705053869629Q214.72824740142823,849.6933653869629,212.55334740142823,851.8327653869629Q208.94274740142822,855.3843653869629,206.52624740142824,858.5498653869629Q202.85211740142822,863.3357653869629,200.96388740142822,869.0067653869629Q199.07608740142823,874.6765653869629,199.1723874014282,880.6316653869629Q199.24628740142822,886.5118653869629,201.7765274014282,891.8579653869629Q204.2899574014282,897.1451653869628,209.26164740142823,900.4317653869629Q214.08124740142821,903.7467653869629,219.92414740142823,904.5723653869629Q225.04034740142822,905.2953653869629,229.96224740142821,903.9754653869629L229.18264740142823,895.6978653869629Q228.93934740142822,892.5817653869628,227.95924740142823,886.3721653869629Q227.85074740142824,885.6848653869629,227.7969474014282,885.3416653869629L227.38384740142823,882.7459653869629L226.10204740142822,874.9860653869629L225.06464740142823,868.6176653869629Q223.54814740142822,869.2986653869629,222.2078474014282,870.3614653869629Q219.3559474014282,872.5940653869629,218.11264740142823,875.9243653869629Q216.99834740142822,879.2924653869629,218.2918474014282,882.6016653869628Q219.68504740142822,886.0358653869629,222.9801474014282,887.9196653869628L224.67904740142822,888.9051653869628Q224.73054740142823,888.9349653869629,224.77524740142823,888.9743653869629Q224.81994740142824,889.0137653869629,224.85614740142822,889.0610653869629Q224.89234740142822,889.1083653869629,224.9185474014282,889.1618653869629Q224.94474740142823,889.2153653869628,224.96004740142823,889.2728653869628Q224.97534740142822,889.3304653869629,224.97914740142824,889.3898653869629Q224.98294740142822,889.4493653869629,224.9750474014282,889.5083653869629Q224.96714740142824,889.5673653869629,224.94784740142822,889.6237653869629Q224.92864740142824,889.6801653869629,224.89874740142824,889.7316653869628Q224.89344740142823,889.740765386963,224.88784740142822,889.7496653869629L223.97214740142823,891.2086653869629L223.15624740142823,892.4905653869629L222.20824740142822,893.9962653869629Q222.17734740142822,894.0452653869629,222.13774740142821,894.0874653869629Q222.0982474014282,894.1297653869628,222.05134740142822,894.163765386963Q222.00444740142822,894.1977653869629,221.9519474014282,894.2221653869628Q221.89944740142823,894.2466653869628,221.84324740142821,894.2606653869628Q221.78704740142823,894.2747653869629,221.7292474014282,894.2778653869628Q221.67144740142822,894.2810653869628,221.61404740142822,894.2731653869629Q221.55664740142822,894.2652653869629,221.50184740142822,894.2465653869629Q221.44704740142822,894.2279653869629,221.39674740142823,894.1992653869629L219.98934740142823,893.3959653869629Q217.4578474014282,891.9981653869629,215.51494740142823,889.8844653869629Q213.57054740142823,887.7691653869629,212.4270474014282,885.1630653869629Q211.2704474014282,882.6127653869629,211.03504740142822,879.8293653869629Q210.7995474014282,877.0455653869628,211.5144474014282,874.3395653869629Q211.51714740142822,874.3291653869629,211.52024740142824,874.3188653869629Q211.88054740142823,873.1283653869629,212.37784740142823,872.0239653869629Q213.99204740142824,868.0189653869629,217.38144740142823,865.0553653869629Q221.07454740142822,861.8944653869629,225.75904740142823,860.7196653869629ZM218.58124740142821,891.0552653869629Q219.5204474014282,891.7555653869629,220.5888474014282,892.3455653869629L221.49334740142822,892.8617653869629L222.1359474014282,891.8411653869629L222.94774740142822,890.5657653869629L223.53054740142824,889.6371653869629L222.3798474014282,888.9696653869629Q218.7215474014282,886.8782653869629,217.16544740142822,883.0419653869629Q215.71084740142823,879.3208653869629,216.9681474014282,875.5330653869629Q216.9716474014282,875.5226653869629,216.97544740142823,875.5124653869628Q218.33724740142821,871.8555653869629,221.45644740142822,869.4137653869628Q223.04684740142824,868.1526653869629,224.86384740142822,867.3850653869629L224.49154740142822,865.0995653869629Q222.00934740142822,866.1116653869628,219.91974740142822,867.9039653869629Q216.40504740142822,870.8853653869629,215.1762474014282,875.2394653869629Q214.1025474014282,879.5510653869629,216.08324740142822,883.5535653869629Q218.07994740142823,887.4558653869628,222.1803474014282,889.2858653869629Q222.29014740142821,889.3348653869629,222.37284740142823,889.4221653869629Q222.45564740142822,889.5094653869629,222.49864740142823,889.6218653869629Q222.54164740142824,889.7341653869629,222.5383474014282,889.8544653869629Q222.53514740142822,889.9746653869629,222.4860474014282,890.0844653869628Q222.43064740142822,890.2087653869629,222.32734740142823,890.2972653869629Q222.2240474014282,890.3857653869629,222.09284740142823,890.4214653869628L221.1976474014282,890.6654653869629L221.44134740142823,891.4234653869629Q221.47814740142823,891.5379653869629,221.46834740142822,891.6578653869628Q221.45854740142823,891.7777653869629,221.40354740142823,891.8847653869628Q221.34864740142822,891.9917653869629,221.25694740142822,892.069565386963Q221.16514740142821,892.1473653869629,221.05064740142822,892.1842653869629Q220.94314740142823,892.2187653869629,220.8303474014282,892.2122653869629Q220.71754740142822,892.2056653869629,220.61474740142822,892.1587653869628Q219.55024740142824,891.6733653869629,218.58124740142821,891.0552653869629ZM219.42924740142823,889.1406653869628Q216.60374740142822,887.2260653869629,214.99924740142822,884.0899653869628Q213.94194740142822,881.9535653869629,213.68594740142822,879.5974653869629Q213.42984740142822,877.2409653869629,214.0049474014282,874.9376653869629Q214.00714740142823,874.9289653869629,214.00954740142822,874.9202653869629Q215.33754740142822,870.2049653869628,219.13234740142823,866.9859653869629Q222.34714740142823,864.2284653869629,226.42114740142821,863.1954653869628Q226.37894740142823,863.1736653869629,226.3406474014282,863.1455653869629Q226.24564740142822,863.0757653869629,226.18374740142823,862.975365386963Q226.12194740142823,862.8749653869629,226.10234740142823,862.7586653869629L226.0469474014282,862.4294653869629Q221.7352474014282,863.4433653869629,218.29934740142824,866.2891653869628Q215.11584740142823,868.9073653869629,213.49054740142822,872.5001653869629Q213.1000474014282,873.4721653869628,212.82144740142823,874.5096653869629Q212.24794740142823,876.9860653869629,212.5529474014282,879.5068653869629Q212.85864740142821,882.0331653869629,214.0109474014282,884.316865386963Q215.80504740142823,887.8245653869628,219.03544740142823,889.9211653869629L219.42924740142823,889.1406653869628ZM228.11524740142823,861.6774653869629Q228.08614740142824,861.7907653869629,228.0169474014282,861.8850653869629L227.18604740142823,863.0161653869629Q227.18514740142822,863.0174653869628,227.18414740142822,863.0187653869629Q227.5383474014282,862.9442653869629,227.89874740142824,862.8823653869629L228.32184740142822,862.8074653869629L228.25764740142822,862.4411653869629L228.11524740142823,861.6774653869629ZM226.1384474014282,864.5264653869629Q227.09754740142822,864.2471653869629,228.10984740142823,864.0733653869629L229.12724740142824,863.8929653869629Q229.18584740142822,863.8825653869629,229.2412474014282,863.8609653869629Q229.29664740142823,863.8394653869628,229.34684740142822,863.8074653869629Q229.3970474014282,863.7754653869629,229.4399474014282,863.7342653869629Q229.48294740142822,863.6931653869628,229.51704740142821,863.6444653869629Q229.55114740142824,863.5956653869629,229.57514740142824,863.5412653869629Q229.59914740142824,863.4867653869629,229.6120474014282,863.4287653869629Q229.62494740142822,863.3706653869629,229.62624740142823,863.3111653869629Q229.62764740142822,863.2516653869629,229.61734740142822,863.1931653869628L229.4466474014282,862.2195653869629L229.27344740142823,861.2906653869629L229.99414740142822,861.1713653869629L230.4450474014282,863.5887653869629Q231.5435474014282,869.6740653869629,232.1359474014282,874.050565386963Q232.98374740142822,880.3151653869629,233.45664740142823,884.6092653869629Q234.13124740142823,890.7337653869629,234.21624740142823,895.2100653869629L234.6400474014282,905.8825653869629L234.6400474014282,907.1454653869629L233.39104740142824,907.4835653869629Q233.34354740142822,907.4963653869629,233.29874740142822,907.5167653869629L232.7652474014282,907.7594653869629Q226.21104740142823,909.5721653869629,219.52094740142823,908.2928653869628Q216.22144740142824,907.6549653869629,213.18284740142823,906.2556653869628Q211.67334740142823,905.5666653869629,210.29474740142822,904.6603653869629Q210.28614740142822,904.6547653869629,210.27744740142822,904.6493653869629L208.87724740142824,903.7952653869629L207.56034740142823,902.8122653869628Q202.25533740142822,898.8206653869629,199.5594774014282,892.8671653869629Q196.99693940142822,886.9900653869629,196.95112240142822,880.6043653869629Q196.9235924014282,874.3008653869629,198.98870740142823,868.3196653869629Q201.05424740142823,862.3372653869629,204.99538740142822,857.3100653869628Q207.4167474014282,854.1914653869629,210.9158474014282,850.7894653869629Q213.0211474014282,848.7426653869629,217.41324740142824,844.8565453869629Q220.08524740142823,842.4923153869629,221.78354740142822,840.9303453869629Q221.85614740142822,841.2387553869629,221.93434740142823,841.5775153869629Q220.54934740142824,842.8462653869628,218.51624740142822,844.6702353869629Q213.89994740142822,848.8116753869629,211.7052474014282,850.9704653869629Q208.03344740142822,854.582265386963,205.56490740142823,857.815965386963Q201.76885740142822,862.7606653869628,199.8163674014282,868.6246653869629Q197.86344740142823,874.4900653869629,197.96308740142823,880.6512653869629Q198.04023740142821,886.7908653869629,200.6833174014282,892.3753653869629Q203.3421674014282,897.9684653869629,208.5947474014282,901.4406653869629Q213.63034740142822,904.9044653869629,219.7549474014282,905.7699653869629Q225.01374740142822,906.5130653869629,230.07724740142822,905.1961653869629L230.16614740142822,906.1403653869629Q230.17864740142824,906.2730653869629,230.24584740142822,906.3882653869629Q230.3130474014282,906.503465386963,230.42234740142823,906.5796653869629Q230.47124740142823,906.6137653869629,230.52574740142822,906.6376653869629Q230.5803474014282,906.6615653869629,230.6385474014282,906.6742653869629Q230.69674740142824,906.6870653869629,230.75624740142823,906.6882653869629Q230.81584740142821,906.6894653869629,230.87444740142823,906.6789653869629Q230.9330474014282,906.6685653869629,230.9885474014282,906.6468653869629Q231.04404740142823,906.6251653869629,231.09414740142822,906.5930653869628Q231.1443474014282,906.5609653869628,231.18724740142824,906.5196653869629Q231.23024740142822,906.4783653869629,231.2643474014282,906.4295653869628L232.80734740142822,904.2164653869629Q232.84914740142824,904.1565653869629,232.87544740142823,904.0883653869629Q232.90174740142822,904.0202653869629,232.91104740142822,903.9477653869628Q232.92034740142822,903.8752653869628,232.91214740142823,903.8026653869629Q232.9039474014282,903.7301653869629,232.87874740142823,903.6615653869629Q232.83714740142824,903.5486653869629,232.75554740142823,903.4603653869628Q232.67394740142822,903.3719653869629,232.56474740142824,903.3215653869629Q232.45554740142822,903.2711653869629,232.33534740142824,903.2663653869629Q232.21514740142823,903.2615653869628,232.10224740142823,903.3031653869629L231.48124740142822,903.5318653869629Q231.41884740142822,903.5388653869629,231.3592474014282,903.5584653869629Q231.25214740142823,903.5936653869629,231.1443474014282,903.6281653869629L230.3868474014282,895.5844653869628Q230.14144740142822,892.4402653869629,229.1538474014282,886.1835653869629Q229.04504740142823,885.4942653869629,228.99174740142823,885.1542653869628L228.57824740142823,882.5558653869629L227.29534740142822,874.7889653869629L226.21614740142823,868.1641653869628Q227.40924740142822,867.7574653869628,228.70244740142823,867.5679653869629Q228.82704740142822,867.5496653869629,228.93404740142822,867.4831653869629Q229.04104740142822,867.4166653869629,229.11254740142823,867.3129653869629Q229.14634740142822,867.2639653869629,229.16994740142823,867.2092653869629Q229.19354740142822,867.1546653869628,229.20604740142824,867.0963653869629Q229.21854740142822,867.0381653869629,229.21944740142823,866.9785653869629Q229.22034740142823,866.9190653869629,229.2095474014282,866.8604653869629Q229.19884740142822,866.8018653869628,229.17684740142823,866.7464653869629Q229.1548474014282,866.6911653869629,229.12254740142822,866.6411653869629Q229.09014740142823,866.5911653869629,229.0486474014282,866.5483653869629Q229.00724740142823,866.5056653869628,228.95814740142822,866.4718653869629L226.1384474014282,864.5264653869629ZM225.82814740142823,865.7817653869629L226.01914740142823,866.9543653869629Q226.54474740142822,866.7835653869629,227.0879474014282,866.6509653869629L225.82814740142823,865.7817653869629Z" fill-rule="evenodd" fill="url(#master_svg7_7_9465)" fill-opacity="1" style="mix-blend-mode:luminosity"/></g><g style="mix-blend-mode:hue"><path d="M220.03471692626954,816.3476576234817C220.47682692626952,814.2711076234817,221.08919692626952,812.2319176234818,221.86602692626954,810.2493676234817C222.30483692626953,809.0779676234818,223.00537692626952,808.0144976234817,223.91777692626954,807.1346776234817C224.47932692626952,806.6085716234818,225.18576692626954,806.2500176234818,225.95256692626953,806.1019036234818C226.64032692626952,805.9626423234818,227.35045692626954,805.9626423234818,228.03821692626954,806.1019036234818C229.18493692626953,806.3723946234818,230.27863692626954,806.8208256234817,231.27693692626954,807.4297476234817C232.28333692626953,808.0288076234817,233.17773692626952,808.7881376234817,233.92213692626953,809.6756076234817C235.31533692626954,811.4739076234818,236.10273692626953,813.6429876234818,236.17733692626953,815.8886176234818C236.21783692626954,820.1666576234818,235.04493692626954,824.3735576234817,232.78603692626953,828.0523576234817C231.71783692626954,829.8555576234818,230.46303692626952,831.5276576234818,229.22513692626953,833.2161576234818L225.63038692626952,838.4291576234817L223.57864692626953,841.3307576234818L221.88298692626952,837.4128576234817C221.21677692626952,835.8076576234818,220.65054692626953,834.1654576234818,220.18733692626952,832.4948576234817C219.68564992626952,830.7905576234817,219.34511792626952,829.0457576234818,219.16994292626953,827.2818576234818C218.98340362626953,825.4831576234817,218.98340362626953,823.6708576234818,219.16994292626953,821.8721576234817C219.31440292626954,820.0122576234818,219.60347992626953,818.1655576234817,220.03471692626954,816.3476576234817ZM224.52820692626952,817.0197576234817C224.45841692626954,818.6021576234817,224.53218692626953,820.1874576234818,224.74863692626954,821.7573576234818L225.42689692626954,826.5605576234817C225.64733692626953,828.1998576234818,225.85081692626954,829.8391576234817,225.95255692626952,831.4784576234817C226.05428692626953,833.1178576234818,226.12211692626954,834.8554576234817,226.18993692626952,836.5603576234818L222.54427692626953,835.5439576234818C224.24133692626953,834.3982576234818,225.82504692626952,833.1031576234817,227.27515692626952,831.6752576234818C228.66980692626953,830.2063576234817,229.93463692626952,828.6270576234817,231.05653692626953,826.9539576234818C232.17323692626954,825.3438576234818,233.02023692626952,823.5735576234817,233.56603692626953,821.7081576234817C234.15633692626955,819.8636576234818,234.39193692626952,817.9300576234817,234.26123692626953,816.0033576234817C234.16413692626952,812.2325276234817,231.32363692626953,809.0538776234818,227.47865692626954,808.4133376234818C226.85562692626954,808.2335176234817,226.18229692626954,808.4418176234817,225.78299692626953,808.9379176234818C225.35204692626954,809.6142676234817,225.06388692626953,810.3664176234818,224.93517692626952,811.1509976234818C224.73169692626954,812.9870276234817,224.68081692626953,814.9542076234818,224.49429692626953,817.0197576234817L224.52820692626952,817.0197576234817Z" fill="url(#master_svg8_7_9465)" fill-opacity="1" style="mix-blend-mode:hue"/><path d="M218.56763192626954,821.8174576234818Q218.28186092626953,824.5808576234817,218.56817192626954,827.3416576234818Q218.83708892626953,830.0493576234818,219.60459192626953,832.6564576234817Q220.30998692626954,835.2004576234817,221.32800692626952,837.6530576234818L223.02366692626953,841.5709576234817Q223.09102692626954,841.7266576234817,223.22950692626952,841.8245576234817Q223.27813692626953,841.8589576234817,223.33253692626954,841.8831576234818Q223.38694692626953,841.9073576234817,223.44503692626952,841.9205576234817Q223.50312692626954,841.9337576234817,223.56266692626954,841.9352576234818Q223.62220692626954,841.9368576234817,223.68090692626953,841.9267576234818Q223.73960692626954,841.9167576234818,223.79521692626952,841.8953576234818Q223.85082692626952,841.8740576234818,223.90120692626954,841.8422576234817Q223.95158692626953,841.8105576234817,223.99480692626952,841.7695576234818Q224.03801692626953,841.7285576234817,224.07240692626954,841.6799576234818L226.12822692626952,838.7724576234817L229.71803692626952,833.5666576234818Q229.83323692626954,833.4095576234818,230.05823692626953,833.1032576234818Q232.32223692626954,830.0217576234818,233.30143692626953,828.3687576234818Q236.84563692626952,822.5966576234817,236.78203692626954,815.8828976234818Q236.78203692626954,815.8757076234817,236.78173692626953,815.8685276234818Q236.66053692626954,812.2228076234818,234.40023692626954,809.3052476234817Q234.39303692626953,809.2959676234817,234.38543692626953,809.2869776234818Q233.19483692626955,807.8675976234817,231.59183692626954,806.9134876234817Q230.00233692626952,805.9438727234817,228.17705692626953,805.5133256234817Q228.16767692626954,805.5111126234817,228.15822692626952,805.5092006234818Q226.99538692626953,805.2737416234818,225.83787692626953,805.5081476234817Q224.49189692626953,805.7681366234817,223.49800692626954,806.6993636234818Q222.01404692626954,808.1303376234818,221.30297692626954,810.0287476234818Q220.11906692626954,813.0501976234817,219.44470192626954,816.2148576234817Q218.78829992626953,818.9842576234818,218.56763192626954,821.8174576234818ZM219.77144792626953,821.9344576234818Q219.77225392626954,821.9267576234818,219.77285792626952,821.9189576234818Q219.98620892626954,819.1721576234818,220.62312692626952,816.4871576234817Q220.62473692626952,816.4803576234817,220.62619692626953,816.4735576234817Q221.28007692626954,813.4023476234818,222.42907692626954,810.4699976234817Q223.05062692626953,808.8109476234818,224.33754692626954,807.5699876234818Q225.06403692626952,806.8894406234817,226.06725692626952,806.6956596234818Q226.99071692626953,806.5086966234818,227.90890692626954,806.6927346234818Q229.54113692626953,807.0793076234818,230.96203692626952,807.9460076234817Q232.39493692626954,808.7989476234817,233.45133692626953,810.0552776234817Q235.46273692626954,812.6570876234817,235.57273692626953,815.9015676234817Q235.63103692626953,822.2633576234817,232.27073692626954,827.7358576234817Q231.31213692626955,829.3538576234818,229.08353692626952,832.3871576234817Q228.85321692626954,832.7007576234818,228.73746692626952,832.8586576234818Q228.73229692626953,832.8656576234818,228.72733692626954,832.8728576234818L226.76153692626954,835.7235576234817Q226.69979692626953,834.2129576234818,226.64576692626954,833.1001576234818Q227.18284692626952,832.6148576234817,227.69946692626954,832.1061576234817Q227.70670692626953,832.0989576234817,227.71369692626953,832.0916576234818Q229.84463692626954,829.8473576234818,231.55873692626955,827.2907576234818Q233.29283692626953,824.7908576234818,234.14433692626955,821.8852576234817Q235.06793692626954,818.9944576234817,234.86543692626952,815.9750176234818Q234.78293692626954,812.9329576234818,232.72633692626954,810.6315376234818Q230.68243692626953,808.3443376234818,227.61067692626952,807.8223176234817Q226.98764692626952,807.6528076234817,226.36820692626952,807.8444376234818Q225.72723692626954,808.0427376234818,225.31190692626953,808.5587476234817Q225.29095692626953,808.5847776234817,225.27299692626954,808.6129576234817Q224.55348692626953,809.7421576234817,224.33841692626953,811.0530876234817Q224.33585692626954,811.0686776234818,224.33411692626953,811.0843876234818Q224.21981692626954,812.1157476234818,224.08498692626952,814.2791276234817Q223.97447692626952,816.0521576234818,223.89201692626952,816.9653576234817Q223.88138692626953,817.0830576234817,223.91587692626953,817.1961576234818Q223.83065692626954,819.5268576234818,224.14957692626953,821.8399576234817L224.82810692626953,826.6451576234817Q225.23406692626952,829.6642576234817,225.34898692626953,831.5159576234818Q225.37745692626953,831.9748576234817,225.40881692626954,832.5810576234818Q223.88976692626954,833.9060576234817,222.20590692626953,835.0427576234817Q222.11663692626954,835.1030576234817,222.05365692626953,835.1904576234817Q221.99068692626952,835.2778576234817,221.96175692626954,835.3815576234817Q221.94576692626953,835.4389576234818,221.94126692626952,835.4983576234818Q221.93677692626954,835.5577576234817,221.94394692626952,835.6168576234818Q221.95112692626952,835.6759576234817,221.96970692626954,835.7325576234817Q221.98827692626952,835.7891576234817,222.01753692626954,835.8410576234818Q222.04679692626954,835.8929576234817,222.08561692626952,835.9381576234817Q222.12442692626954,835.9832576234818,222.17131692626953,836.0200576234818Q222.21819692626954,836.0567576234818,222.27134692626953,836.0836576234817Q222.32449692626952,836.1105576234818,222.38187692626954,836.1265576234817L225.82227692626952,837.0856576234818L225.13254692626953,838.0858576234817L223.70620692626954,840.1029576234818L222.43797692626953,837.1726576234818Q221.45558692626952,834.8055576234817,220.77007692626952,832.3332576234817Q220.02940492626954,829.8168576234817,219.77171392626954,827.2220576234818Q219.49740792626955,824.5769576234818,219.77144792626953,821.9344576234818ZM225.55233692626953,835.7548576234817Q225.51569692626953,834.8589576234817,225.48181692626954,834.1046576234818Q224.72789692626952,834.7258576234817,223.93673692626953,835.3044576234818L225.55233692626953,835.7548576234817ZM226.56133692626952,831.5259576234818Q226.70325692626952,831.3895576234818,226.84360692626953,831.2514576234818Q228.89984692626953,829.0845576234817,230.55423692626954,826.6172576234818Q232.18933692626953,824.2596576234818,232.98563692626954,821.5383576234817Q232.98783692626952,821.5310576234817,232.99013692626954,821.5238576234817Q233.84783692626954,818.8435576234817,233.65793692626954,816.0442576234817Q233.65703692626954,816.0316576234818,233.65673692626953,816.0189576234817Q233.58963692626952,813.4126876234817,231.82453692626953,811.4374476234817Q230.05323692626953,809.4553076234818,227.37927692626954,809.0098476234817Q227.34466692626953,809.0040776234817,227.31095692626954,808.9943476234818Q226.67966692626953,808.8121476234818,226.27393692626953,809.2930076234818Q225.70812692626953,810.1936476234818,225.53445692626954,811.2336076234817Q225.42407692626952,812.2369976234818,225.29210692626953,814.3543576234817Q225.19217692626952,815.9577176234817,225.11437692626953,816.8710576234818Q225.13294692626954,816.9442576234818,225.13293692626954,817.0197576234817Q225.13293692626954,817.0330576234818,225.13234692626952,817.0463576234818Q225.02989692626954,819.3696576234818,225.34770692626952,821.6747576234817L226.02569692626952,826.4759576234818Q226.43852692626953,829.5460576234817,226.55612692626954,831.4410576234817Q226.55873692626952,831.4830576234817,226.56133692626952,831.5259576234818Z" fill-rule="evenodd" fill="url(#master_svg9_7_9465)" fill-opacity="1" style="mix-blend-mode:hue"/></g><g><path d="M249.92893065185547,894.3789968811035C248.26153065185548,897.1952968811036,246.09813065185546,899.7083968811036,243.53633065185548,901.8050968811035C241.02693065185548,903.8508968811035,238.15425065185548,905.4393968811036,235.05805065185547,906.4934968811035L233.48110065185546,907.1327968811036L233.37935065185548,905.4934968811035L232.68413065185547,895.0838968811036C232.53152065185546,891.6084968811035,232.03978065185547,888.1659968811035,231.61587065185546,884.7069968811035C230.66630065185547,877.7726968811036,229.58109065185548,870.8711868811035,228.34325165185547,863.9860668811035L228.15673065185547,862.9205138811035L229.46239065185546,862.6254348811035C233.39633065185546,861.8296268811035,237.49476065185547,862.4106038811035,241.02673065185547,864.2647468811035C244.67353065185546,866.0188268811036,247.75263065185547,868.7064668811036,249.92893065185547,872.0350868811036C252.17033065185547,875.3772968811035,253.34943065185547,879.2812968811036,253.32023065185547,883.2643968811035C253.16973065185547,887.1851968811035,252.00363065185547,891.0067968811035,249.92893065185547,894.3789968811035ZM245.85943065185546,892.3789968811035C246.47893065185548,890.9672968811035,246.91193065185547,889.4856968811035,247.14813065185547,887.9691968811035C247.32543065185547,886.4768968811035,247.32543065185547,884.9698968811035,247.14813065185547,883.4774968811035Q246.82613065185546,880.5269968811035,244.50283065185548,875.0350968811035Q240.93773065185547,870.0872768811035,238.41543065185547,868.3138568811036C235.82626065185548,866.4554968811035,232.75832065185546,865.3212668811035,229.54718065185546,865.0352268811035L230.66631065185547,863.6581968811035Q231.85327065185547,870.5597168811036,233.92197065185547,884.4282968811035Q234.83762065185547,891.3953968811035,235.00718065185546,894.9035968811036L235.68545065185546,905.4115968811035L233.98979065185546,904.3787968811035C239.30893065185546,901.8765968811035,243.52983065185546,897.6214968811036,245.89333065185548,892.3789968811035L245.85943065185546,892.3789968811035Z" fill="url(#master_svga_7_9465)" fill-opacity="1"/><path d="M250.44403065185546,894.6957968811035Q253.68903065185546,889.4214968811035,253.92453065185546,883.2875968811035Q253.92493065185548,883.2781968811036,253.92503065185548,883.2687968811035Q253.97103065185547,876.9764968811036,250.43513065185547,871.7041568811035Q247.01863065185546,866.4787768811035,241.29843065185548,863.7243768811035Q238.56093065185547,862.2893272811035,235.48018065185548,861.8526138811035Q232.39481065185547,861.4152458811035,229.34248065185548,862.0327098811035Q229.33577065185546,862.0340678811035,229.32908065185546,862.0355788811036L228.02342365185547,862.3306579811035Q227.96715065185546,862.3433757811035,227.91429665185547,862.3665043811035Q227.86144365185547,862.3896328811035,227.81391665185546,862.4223378811035Q227.76638965185546,862.4550428811035,227.72590465185547,862.4961448811035Q227.68541865185546,862.5372458811036,227.65343565185546,862.5852608811035Q227.62145165185547,862.6332768811035,227.59912365185548,862.6864728811036Q227.57679565185546,862.7396698811035,227.56492965185546,862.7961288811035Q227.55306265185547,862.8525868811035,227.55208565185546,862.9102708811035Q227.55110865185546,862.9679558811035,227.56105665185547,863.0247838811035L227.74806165185547,864.0930768811036Q229.57168065185547,874.2364968811036,231.01563065185547,884.7805968811035Q231.08748065185546,885.3667968811035,231.23489065185547,886.5369968811035Q231.95427065185547,892.2475968811035,232.07998065185546,895.1103968811035Q232.08029065185548,895.1172968811035,232.08075065185548,895.1241968811036L232.77578065185546,905.5309968811035L232.87753065185547,907.1702968811035Q232.88363065185547,907.2686968811036,232.92067065185546,907.3599968811035Q232.94305065185546,907.4151968811035,232.97576065185547,907.4649968811035Q233.00848065185548,907.5147968811035,233.05028065185547,907.5571968811036Q233.09208065185547,907.5995968811035,233.14135065185548,907.6330968811035Q233.19062065185548,907.6665968811035,233.24547065185547,907.6897968811036Q233.30033065185546,907.7129968811035,233.35865065185547,907.7249968811035Q233.41698065185548,907.7370968811035,233.47654065185546,907.7374968811035Q233.53610065185546,907.7379968811035,233.59460065185547,907.7267968811035Q233.65310065185548,907.7155968811035,233.70830065185547,907.6932968811035L235.26931065185548,907.0603968811035Q240.04533065185547,905.4312968811035,243.91933065185546,902.2729968811035Q247.87443065185548,899.0360968811035,250.44403065185546,894.6957968811035ZM252.71563065185546,883.2505968811035Q252.49013065185548,889.0620968811036,249.41393065185548,894.0620968811036Q246.94283065185547,898.2356968811035,243.15333065185547,901.3370968811035Q240.02973065185546,903.8834968811035,236.28983065185548,905.3912968811035Q236.28952065185547,905.3818968811036,236.28892065185548,905.3725968811035L236.19439065185546,903.9082968811035Q239.10463065185547,902.2262968811035,241.47923065185546,899.8323968811035Q244.62703065185548,896.6590968811036,246.44463065185548,892.6275968811035Q246.48703065185546,892.5334968811035,246.49583065185547,892.4307968811036Q247.39383065185547,890.3212968811035,247.74563065185546,888.0622968811035Q247.74733065185546,888.0514968811035,247.74863065185548,888.0405968811035Q248.02403065185547,885.7233968811036,247.74863065185548,883.4060968811035Q247.41763065185546,880.3731968811035,245.05983065185546,874.7993968811035Q245.03333065185547,874.7367968811035,244.99353065185548,874.6814968811035Q241.36883065185546,869.6511468811035,238.76333065185548,867.8191668811036Q235.43571065185546,865.4308268811035,231.45490065185547,864.6870068811036Q231.35587065185547,864.0997568811035,231.26230065185547,863.5556968811035Q231.24370065185548,863.4475468811036,231.18828065185548,863.3528368811035Q231.13287065185546,863.2581178811035,231.04772065185546,863.1889088811035Q230.95437065185547,863.1130438811035,230.83909065185546,863.0786758811035Q230.72382065185548,863.0443068811035,230.60417065185547,863.0566688811035Q230.48452065185546,863.0690308811036,230.37870065185547,863.1262398811035Q230.27289065185548,863.1834488811035,230.19702065185547,863.2767968811036L229.07788765185546,864.6538168811035L229.07721865185547,864.6546468811035Q229.00810065185547,864.2665268811035,228.93843965185548,863.8790668811035L228.85168565185546,863.3834368811035L229.58896065185547,863.2168128811035Q232.43424065185548,862.6423898811036,235.31043065185546,863.0501048811035Q238.18933065185547,863.4582068811035,240.74573065185547,864.8001868811035Q240.75503065185546,864.8051168811035,240.76463065185547,864.8097168811036Q246.18793065185548,867.4182968811035,249.42283065185546,872.3659968811036Q252.75623065185547,877.3364968811035,252.71563065185546,883.2505968811035ZM229.23651065185547,865.5540568811035Q230.88572065185548,874.9177968811035,232.21611065185547,884.6333968811035Q232.28770065185546,885.2175968811035,232.43487065185548,886.3857968811035Q233.15955065185545,892.1384968811035,233.28798065185546,895.0503968811036L233.87007065185546,903.7662968811035Q234.41296065185546,903.5068968811036,234.93829065185548,903.2241968811035L234.40316065185547,894.9326968811035Q234.23480065185547,891.4494968811035,233.32386065185545,884.5174968811035Q231.53424065185547,872.5198968811035,230.40527065185546,865.7414268811035Q229.95370065185546,865.6785568811035,229.49352065185548,865.6375668811036Q229.35544065185547,865.6252668811035,229.23651065185547,865.5540568811035ZM231.66820065185547,865.9636168811035Q232.78397065185547,872.7001968811035,234.52008065185547,884.3390968811035Q235.44044065185548,891.3412968811035,235.61121065185546,894.8743968811035L236.10691065185546,902.5531968811035Q238.57333065185546,901.0444968811036,240.62063065185546,898.9805968811036Q243.54233065185548,896.0352968811035,245.25813065185548,892.3144968811035Q245.26813065185547,892.2214968811035,245.30563065185547,892.1359968811036Q246.20483065185547,890.0870968811035,246.54883065185547,887.8869968811035Q246.80543065185546,885.7178968811036,246.54763065185546,883.5488968811035Q246.23643065185547,880.6975968811036,243.97243065185546,875.3333968811036Q240.49273065185548,870.5136668811035,238.06764065185547,868.8085468811036Q235.13625065185548,866.7046168811036,231.66820065185547,865.9636168811035ZM233.95693065185546,905.0667968811035L233.98292065185547,905.4560968811035L234.03261065185546,906.2566968811035L234.83084065185548,905.9330968811036Q234.84683065185547,905.9265968811035,234.86316065185548,905.9209968811035Q235.02158065185546,905.8670968811035,235.17924065185548,905.8112968811035L233.95693065185546,905.0667968811035Z" fill-rule="evenodd" fill="url(#master_svgb_7_9465)" fill-opacity="1"/></g></g></g></svg>