<svg xmlns="http://www.w3.org/2000/svg" xmlns:xlink="http://www.w3.org/1999/xlink" fill="none" version="1.1" width="512" height="512" viewBox="0 0 512 512"><defs><clipPath id="master_svg0_12_80"><rect x="0" y="0" width="512" height="512" rx="0"/></clipPath><radialGradient cx="0" cy="0" r="1" gradientUnits="userSpaceOnUse" id="master_svg1_7_5073" gradientTransform="translate(803.8736877441406 342.3481140136719) rotate(90) scale(240.68313598632812 243.1020812988281)"><stop offset="68.57143044471741%" stop-color="#FDC02F" stop-opacity="0.6499999761581421"/><stop offset="100%" stop-color="#FF5100" stop-opacity="0.17000000178813934"/></radialGradient><filter id="master_svg2_12_85" filterUnits="objectBoundingBox" color-interpolation-filters="sRGB" x="-24.189258575439453" y="-24.189258575439453" width="178.3785171508789" height="181.3785171508789"><feFlood flood-opacity="0" result="BackgroundImageFix"/><feColorMatrix in="SourceAlpha" type="matrix" values="0 0 0 0 0 0 0 0 0 0 0 0 0 0 0 0 0 0 127 0"/><feOffset dy="0" dx="0"/><feGaussianBlur stdDeviation="6.047314643859863"/><feColorMatrix type="matrix" values="0 0 0 0 0.9940476417541504 0 0 0 0 0.7512537240982056 0 0 0 0 0.184734508395195 0 0 0 1 0"/><feBlend mode="normal" in2="BackgroundImageFix" result="effect1_dropShadow"/><feBlend mode="normal" in="SourceGraphic" in2="effect1_dropShadow" result="shape"/><feColorMatrix in="SourceAlpha" type="matrix" result="hardAlpha" values="0 0 0 0 0 0 0 0 0 0 0 0 0 0 0 0 0 0 127 0"/><feOffset dy="0" dx="0"/><feGaussianBlur stdDeviation="19.956138610839844"/><feComposite in2="hardAlpha" operator="arithmetic" k2="-1" k3="1"/><feColorMatrix type="matrix" values="0 0 0 0 0.9921568632125854 0 0 0 0 0.7529411911964417 0 0 0 0 0.18431372940540314 0 0 0 1 0"/><feBlend mode="normal" in2="shape" result="effect2_innerShadow"/></filter><radialGradient cx="0" cy="0" r="1" gradientUnits="userSpaceOnUse" id="master_svg3_7_2327" gradientTransform="translate(249.5833740234375 251.59954833984375) rotate(90) scale(105.27525162696838 102.90062189102173)"><stop offset="0%" stop-color="#F5B24D" stop-opacity="1"/><stop offset="69.9999988079071%" stop-color="#FF5100" stop-opacity="0"/></radialGradient><linearGradient x1="0.5" y1="0" x2="0.5" y2="1" id="master_svg4_7_9465"><stop offset="0%" stop-color="#FDB744" stop-opacity="1"/><stop offset="100%" stop-color="#F6D271" stop-opacity="1"/></linearGradient><linearGradient x1="0.5" y1="0" x2="0.5" y2="1" id="master_svg5_7_9465"><stop offset="0%" stop-color="#FDB744" stop-opacity="1"/><stop offset="100%" stop-color="#F6D271" stop-opacity="1"/></linearGradient><linearGradient x1="0.5" y1="0" x2="0.5" y2="1" id="master_svg6_7_9465"><stop offset="0%" stop-color="#FDB744" stop-opacity="1"/><stop offset="100%" stop-color="#F6D271" stop-opacity="1"/></linearGradient><linearGradient x1="0.5" y1="0" x2="0.5" y2="1" id="master_svg7_7_9465"><stop offset="0%" stop-color="#FDB744" stop-opacity="1"/><stop offset="100%" stop-color="#F6D271" stop-opacity="1"/></linearGradient><linearGradient x1="0.5" y1="0" x2="0.5" y2="1" id="master_svg8_7_9465"><stop offset="0%" stop-color="#FDB744" stop-opacity="1"/><stop offset="100%" stop-color="#F6D271" stop-opacity="1"/></linearGradient><linearGradient x1="0.5" y1="0" x2="0.5" y2="1" id="master_svg9_7_9465"><stop offset="0%" stop-color="#FDB744" stop-opacity="1"/><stop offset="100%" stop-color="#F6D271" stop-opacity="1"/></linearGradient><linearGradient x1="0.5" y1="0" x2="0.5" y2="1" id="master_svga_7_9465"><stop offset="0%" stop-color="#FDB744" stop-opacity="1"/><stop offset="100%" stop-color="#F6D271" stop-opacity="1"/></linearGradient><linearGradient x1="0.5" y1="0" x2="0.5" y2="1" id="master_svgb_7_9465"><stop offset="0%" stop-color="#FDB744" stop-opacity="1"/><stop offset="100%" stop-color="#F6D271" stop-opacity="1"/></linearGradient></defs><g clip-path="url(#master_svg0_12_80)"><g transform="matrix(-0.9514435529708862,-0.3078233003616333,-0.3078233003616333,0.9514435529708862,1125.608985154402,177.55505676539178)"><path d="M738.9356064453125,149.77767802734374L776.9026064453125,265.4279780273438L776.9026064453125,266.86397802734376C776.5326064453125,267.07797802734376,776.0776064453125,267.07797802734376,775.7086064453125,266.86397802734376L729.8616064453125,152.65097802734374C728.8486064453125,150.26977802734376,729.9056064453125,147.51237802734374,732.2496064453126,146.42547802734376C734.9686064453125,145.31887802734374,738.0316064453125,146.91107802734376,738.6966064453125,149.77767802734374L738.9356064453125,149.77767802734374ZM626.9450064453125,239.32897802734374L730.3386064453125,303.25897802734374L730.3386064453125,304.69597802734376L728.9066064453125,304.69597802734376L622.1693064453125,247.46997802734376C619.9725064453125,246.12497802734376,619.1470064453125,243.33197802734375,620.2590064453125,241.00497802734375C621.5196064453125,238.69997802734375,624.3971064453125,237.84497802734376,626.7062064453125,239.08897802734376L626.9450064453125,239.32897802734374ZM599.0071064453125,380.11997802734373L718.3996064453124,362.64097802734375L719.5936064453125,362.64097802734375C719.8066064453125,363.01097802734375,719.8066064453125,363.46697802734377,719.5936064453125,363.83797802734375L600.2010064453125,387.78197802734377C597.6053064453125,388.53497802734375,594.9326064453126,386.85997802734374,594.4702064453124,384.1899780273437C594.0229064453125,381.56197802734374,595.6992064453125,379.0409780273437,598.2907064453125,378.44397802734375L599.0071064453125,380.11997802734373ZM667.7776064453125,506.30497802734374L748.7256064453125,415.31797802734377L750.1586064453124,415.31797802734377L750.1586064453124,416.75397802734375L675.1796064453125,512.5309780273437C673.5316064453125,514.6459780273437,670.4846064453125,515.0219780273437,668.3746064453125,513.3689780273437C666.2646064453124,511.71597802734374,665.8896064453124,508.65997802734375,667.5386064453126,506.54497802734375L667.7776064453125,506.30497802734374ZM801.2586064453125,558.5029780273437L805.0786064453125,437.10697802734376L808.8996064453124,558.9819780273438C809.0366064453125,561.5879780273438,806.9646064453125,563.7749780273438,804.3626064453125,563.7709780273437C801.6726064453126,564.0559780273438,799.3326064453125,561.9339780273438,799.3476064453125,559.2219780273438L801.2586064453125,558.5029780273437ZM937.1266064453125,512.2909780273437L861.9096064453124,416.5149780273438L861.9096064453124,415.07797802734376L863.3426064453125,415.07797802734376L944.0516064453125,506.06597802734376C946.0116064453125,507.86897802734376,946.0116064453125,510.96697802734377,944.0516064453125,512.7699780273438C942.0706064453125,514.5109780273438,939.1086064453125,514.5109780273438,937.1266064453125,512.7699780273438L937.1266064453125,512.2909780273437ZM1011.3896064453124,389.2189780273437L891.9966064453125,365.27397802734373L891.9966064453125,363.11897802734376L1011.3896064453124,380.5989780273438C1014.0436064453124,380.96697802734377,1015.8756064453125,383.45297802734376,1015.4486064453125,386.1059780273437C1015.2066064453124,388.73397802734377,1012.7926064453125,390.60397802734377,1010.1956064453125,390.1759780273438L1011.3896064453124,389.2189780273437ZM989.8986064453125,247.46997802734376L882.9226064453126,305.17497802734374L881.4906064453126,305.17497802734374L881.4906064453126,303.73797802734373L984.8846064453126,239.80697802734375C987.0706064453125,238.47897802734374,989.9116064453125,239.11197802734375,991.3316064453124,241.24397802734376C992.6826064453126,243.50997802734375,992.0576064453126,246.43697802734374,989.8986064453125,247.94797802734374L989.8986064453125,247.46997802734376ZM882.2066064453124,152.65097802734374L837.0756064453125,265.66697802734376L835.8816064453125,265.66697802734376L835.8816064453125,264.22997802734375L873.1326064453125,149.77767802734374C874.0296064453125,147.24057802734376,876.8336064453125,145.94237802734375,879.3406064453125,146.90437802734374C881.8416064453124,147.69467802734374,883.1556064453125,150.43967802734375,882.2066064453124,152.89047802734376L882.2066064453124,152.65097802734374ZM805.5566064453125,101.88952302734376L807.9446064453125,144.03107802734377C807.9506064453125,146.28357802734376,806.1316064453125,148.11287802734375,803.8846064453126,148.11287802734375C801.6386064453125,148.11287802734375,799.8196064453125,146.28357802734376,799.8256064453125,144.03107802734377L802.2136064453125,101.88952302734376C802.7306064453126,101.59012822734375,803.3676064453125,101.59012822734375,803.8846064453126,101.88952302734376C804.4126064453125,101.63211292734375,805.0286064453126,101.63211292734375,805.5566064453125,101.88952302734376ZM647.2417064453125,158.87647802734375L676.1346064453126,189.52487802734373C677.7416064453125,191.19477802734374,677.7416064453125,193.84097802734374,676.1346064453126,195.51087802734375C674.6136064453125,197.24027802734375,671.9246064453125,197.24027802734375,670.4036064453126,195.51087802734375L646.5254064453125,161.51027802734376C645.9666064453124,160.81047802734375,645.9666064453124,159.81567802734375,646.5254064453125,159.11587802734374C646.7428064453125,158.98237802734374,646.9879064453125,158.90047802734375,647.2417064453125,158.87647802734375ZM562.2341664453126,304.21697802734377L604.0216064453125,309.2449780273438C606.2717064453125,309.4949780273438,607.8834064453125,311.54197802734376,607.6034064453125,313.79497802734375C607.4995064453125,316.12897802734375,605.3545064453125,317.8269780273438,603.0664064453125,317.38597802734375L562.2341664453126,307.56897802734375Q560.5626714453125,307.56897802734375,560.8014567453125,305.6539780273438C560.9655504453125,304.93897802734375,561.5218004453125,304.38197802734373,562.2341664453126,304.21697802734377ZM590.1720064453125,470.38897802734374L625.2735064453125,446.4449780273437C627.2516064453125,445.1229780273438,629.9243064453125,445.6589780273438,631.2431064453125,447.6419780273437C632.5619064453125,449.62597802734376,632.0274064453125,452.30597802734377,630.0492064453125,453.6279780273438L592.5599064453125,472.54397802734377C591.8620064453125,473.10397802734377,590.8699064453125,473.10397802734377,590.1720064453125,472.54397802734377C589.6505064453125,471.9209780273437,589.6505064453125,471.01197802734373,590.1720064453125,470.38897802734374ZM718.1606064453125,580.7709780273437L730.3386064453125,540.5449780273437C730.9116064453125,538.2279780273437,733.3396064453125,536.8999780273438,735.5926064453125,537.6719780273438C737.8066064453125,538.3549780273438,739.0026064453125,540.7539780273437,738.2186064453125,542.9399780273437L721.5036064453125,580.7709780273437C720.8486064453125,581.4419780273438,719.7716064453125,581.4419780273438,719.1166064453125,580.7709780273437C718.8026064453124,580.8519780273438,718.4746064453125,580.8519780273438,718.1606064453125,580.7709780273437ZM886.2656064453125,580.7709780273437L869.5506064453125,542.2209780273438C868.7006064453125,540.1049780273438,869.6426064453125,537.6899780273437,871.6996064453125,536.7139780273437C873.8756064453125,535.7039780273437,876.4536064453125,536.6739780273438,877.4306064453125,538.8689780273437L889.6086064453125,580.7709780273437C889.9156064453125,581.7009780273438,889.3646064453126,582.6959780273437,888.4146064453125,582.9259780273437C887.8026064453124,583.1549780273438,887.1126064453125,583.0039780273437,886.6506064453125,582.5399780273438C886.1886064453124,582.0769780273438,886.0386064453126,581.3859780273438,886.2656064453125,580.7709780273437ZM1015.6876064453124,473.50197802734374L978.1986064453125,454.58597802734374C976.0996064453125,453.51797802734376,975.2486064453125,450.95597802734375,976.2876064453126,448.8389780273437C977.4346064453125,446.83297802734376,979.9006064453125,446.00897802734374,982.0186064453126,446.92397802734376L1017.1206064453124,470.8679780273437C1017.6786064453124,471.56797802734377,1017.6786064453124,472.5629780273438,1017.1206064453124,473.26197802734373C1016.6846064453125,473.50597802734376,1016.1786064453124,473.59097802734374,1015.6876064453124,473.50197802734374ZM1046.0136064453125,307.56897802734375L1005.1806064453125,317.38597802734375C1002.9286064453124,317.9839780273437,1000.6376064453125,316.56197802734374,1000.1666064453125,314.2739780273438C999.7106064453126,312.03797802734374,1001.0716064453125,309.83297802734376,1003.2706064453125,309.2449780273438L1045.0576064453126,304.21697802734377C1046.0266064453126,304.20897802734373,1046.8476064453125,304.92997802734374,1046.9686064453126,305.89297802734376C1047.0346064453124,306.59797802734374,1046.6526064453124,307.2689780273438,1046.0136064453125,307.56897802734375ZM963.1546064453125,161.03137802734375L938.0826064453124,195.03197802734377C936.4166064453125,196.64367802734375,933.7776064453125,196.64367802734375,932.1126064453125,195.03197802734377C930.3876064453125,193.50687802734376,930.3876064453125,190.81067802734376,932.1126064453125,189.28547802734374L961.0056064453124,158.63697802734376C961.6606064453125,157.96627802734375,962.7376064453125,157.96627802734375,963.3936064453126,158.63697802734376C964.1996064453125,159.28747802734375,964.0736064453125,160.55377802734375,963.1546064453125,161.03137802734375Z" fill="url(#master_svg1_7_5073)" fill-opacity="1"/></g><g filter="url(#master_svg2_12_85)"><path d="M194.0348240234375,265.23714833984377C193.7418540234375,266.0312483398437,193.8854840234375,266.96074833984375,194.4044740234375,267.6293483398438C195.0484740234375,268.4590483398438,197.7998740234375,268.61094833984373,203.1376740234375,268.88914833984376L234.15657402343749,270.50554833984376C236.24477402343751,270.61434833984373,237.3217740234375,270.67634833984374,237.9166740234375,271.15804833984373C238.4172740234375,271.5634483398437,238.7405740234375,272.15934833984375,238.8076740234375,272.8000483398438C238.8873740234375,273.56134833984373,238.3523740234375,274.49804833984376,237.3054740234375,276.3082483398438L226.2117740234375,295.48954833984374C222.5750740234375,301.77754833984375,220.7155740234375,305.00854833984374,221.1187740234375,306.03254833984374C221.4410740234375,306.85154833984376,222.2157740234375,307.46654833984377,223.0859740234375,307.59554833984373C224.1749740234375,307.75754833984377,226.9026740234375,305.21654833984377,232.2064740234375,300.25254833984377L250.3113740234375,283.3111483398437C251.5163740234375,282.18354833984375,252.1380740234375,281.6073483398437,252.7896740234375,281.47204833984375C253.3451740234375,281.35664833984373,253.92817402343752,281.44034833984375,254.4286740234375,281.70754833984375C255.0157740234375,282.0208483398437,255.45007402343748,282.74874833984376,256.28887402343753,284.17004833984373L268.2753740234375,304.4805483398437C270.6303740234375,308.47154833984376,271.85407402343753,310.52754833984375,272.8536740234375,310.73354833984376C273.6631740234375,310.90054833984374,274.5363740234375,310.6365483398438,275.11857402343753,310.0505483398438C275.8374740234375,309.32554833984375,275.7191740234375,306.93554833984376,275.4732740234375,302.30854833984375L274.0348740234375,275.2364483398437C273.95417402343753,273.7160483398437,273.9161740234375,272.93644833984376,274.1996740234375,272.37284833984376C274.4421740234375,271.89054833984375,274.8415740234375,271.50044833984373,275.3294740234375,271.26934833984376C275.8995740234375,270.9993483398438,276.6780740234375,271.05554833984377,278.1961740234375,271.17224833984375L298.86837402343747,272.76034833984374C303.4743740234375,273.11424833984375,305.8543740234375,273.28844833984374,306.5953740234375,272.5876483398438C307.19537402343747,272.02004833984375,307.4803740234375,271.15404833984377,307.3333740234375,270.34114833984376C307.1523740234375,269.3374483398437,305.1333740234375,268.0661483398437,301.2143740234375,265.61874833984376L283.0460740234375,254.27234833984375C281.44647402343753,253.27344833984375,280.6254740234375,252.75464833984375,280.3316740234375,252.09464833984373C280.0829740234375,251.53594833984374,280.0541740234375,250.89694833984373,280.2515740234375,250.31824833984376C280.4846740234375,249.63444833984374,281.2556740234375,249.04384833984375,282.75877402343747,247.90484833984374L297.6683740234375,236.60734833984375C302.4663740234375,232.97154833984376,304.9313740234375,231.09354833984375,304.9813740234375,230.02284833984373C305.0203740234375,229.16294833984375,304.5873740234375,228.30504833984375,303.8713740234375,227.82734833984375C302.9793740234375,227.23234833984375,300.0053740234375,228.10344833984374,294.2333740234375,229.81134833984373L274.03867402343747,235.78614833984375C272.5229740234375,236.23454833984374,271.7441740234375,236.46104833984376,271.11657402343747,236.30434833984376C270.5802740234375,236.17054833984375,270.1024740234375,235.85514833984377,269.7686740234375,235.41464833984375C269.37787402343747,234.89914833984375,269.2799740234375,234.09394833984373,269.0965740234375,232.52404833984374L265.1507740234375,198.75414833984374C264.6752740234375,194.68415833984375,264.4207740234375,192.58085833984376,263.6276740234375,191.98625833984374C262.9822740234375,191.50241833984376,262.10887402343747,191.36315833984375,261.3450740234375,191.62231833984376C260.4063740234375,191.94080833984376,259.5104740234375,193.86068833984376,257.7927740234375,197.58104833984376L244.6559740234375,226.03494833984377C244.0465740234375,227.35494833984376,243.7315740234375,228.02964833984376,243.2397740234375,228.39224833984375C242.8179740234375,228.70324833984375,242.3036740234375,228.87014833984375,241.7795740234375,228.86584833984375C241.1686740234375,228.86094833984376,240.5175740234375,228.49954833984376,239.2493740234375,227.78854833984374L213.2351740234375,213.20334833984376C209.2782740234375,210.98484833984375,207.23017402343748,209.84654833984376,206.2659740234375,210.16584833984376C205.48447402343749,210.42474833984375,204.8614740234375,211.08464833984374,204.64797402343748,211.87974833984376C204.3844740234375,212.86064833984375,205.6386740234375,214.84004833984375,208.0808740234375,218.66284833984375L226.35517402343748,247.26784833984374C227.2361740234375,248.64704833984376,227.6851740234375,249.35744833984376,227.7011740234375,250.01914833984375C227.7146740234375,250.58344833984376,227.5294740234375,251.13914833984376,227.1799740234375,251.58244833984375C226.7700740234375,252.10214833984375,225.9846740234375,252.40094833984375,224.4521740234375,252.97544833984375L201.9804740234375,261.4001483398438C196.9755740234375,263.27644833984374,194.3983540234375,264.25174833984374,194.0348240234375,265.23714833984377Z" fill="url(#master_svg3_7_2327)" fill-opacity="1"/></g><g transform="matrix(0.8996340036392212,-0.4366447627544403,0.4366447627544403,0.8996340036392212,-80.0812716535429,124.07444312011012)"><g><path d="M247.37315131835936,261.30041586914064C246.27595131835938,260.7256158691406,245.03455131835938,260.4586158691406,243.78875131835937,260.5296158691406L242.99145131835937,260.5765158691406L242.87365131835938,259.8392158691406L242.49235131835937,257.4196158691406C242.36755131835938,256.6085158691406,242.24965131835938,255.79751586914062,242.07635131835937,255.00661586914063L241.59795131835938,252.58701586914063C241.45235131835938,251.7894158691406,241.2651513183594,250.98511586914063,241.09185131835937,250.18081586914062L241.01565131835937,249.81881586914062L241.27905131835936,249.57751586914063C242.22885131835938,248.69581586914063,243.11595131835938,247.75311586914063,243.93435131835938,246.75581586914063C244.76395131835937,245.8023158691406,245.40975131835938,244.71262586914062,245.84095131835937,243.53854586914062C246.27065131835937,242.3957058691406,246.38295131835937,241.1639658691406,246.1667513183594,239.96607586914064C245.86175131835938,238.86014586914064,245.25165131835936,237.59335586914062,244.26025131835937,237.21131486914064C243.75005131835937,237.04166286914062,243.18755131835937,237.10840486914063,242.73495131835938,237.39228586914064C242.23165131835938,237.69904586914063,241.81105131835938,238.11718586914063,241.50785131835937,238.61215586914062C241.1735513183594,239.12058586914063,240.93855131835937,239.68398586914063,240.81455131835938,240.27439586914062C240.74235131835937,240.57742586914063,240.68685131835937,240.88393586914063,240.64815131835937,241.19264586914062C240.60655131835938,241.50096586914063,240.57885131835937,241.80928586914064,240.5580513183594,242.1243058691406C240.52695131835938,244.6940558691406,240.8345513183594,247.25721586914062,241.47315131835938,249.75181586914061L241.52865131835938,249.98641586914061L241.35535131835937,250.14061586914062C240.02425131835938,251.35371586914061,238.67228131835938,252.54681586914063,237.38968131835938,253.76001586914063C236.09974131835938,254.97151586914063,234.91701131835939,256.2853158691406,233.8538913183594,257.6877158691406C232.80344131835938,259.07941586914063,231.96523131835937,260.6098158691406,231.36496131835938,262.23201586914064C230.78275531835936,263.85161586914063,230.54689131835937,265.56871586914065,230.67166731835937,267.2790158691406C230.79656331835938,268.9903158691406,231.2528013183594,270.6637158691406,232.01666131835938,272.21211586914063C232.79259131835937,273.7455158691406,233.90169131835938,275.0990158691406,235.2682013183594,276.18011586914065C236.64314131835937,277.23861586914063,238.28016131835938,277.93171586914065,240.01725131835937,278.19081586914064C241.75395131835938,278.4465158691406,243.52895131835936,278.29001586914063,245.18925131835937,277.7351158691406L245.76465131835937,277.5541158691406L245.76465131835937,278.1372158691406Q245.91715131835937,281.2606158691406,245.96575131835937,284.40411586914064C245.96575131835937,286.49531586914065,245.96575131835937,288.5865158691406,245.83395131835937,290.7045158691406L245.65015131835938,291.1486158691406L244.84955131835937,291.0129158691406C243.6085513183594,289.76621586914064,241.43155131835937,289.45121586914064,239.68448131835936,289.9807158691406C238.84755131835936,290.1959158691406,238.11298131835937,290.6836158691406,237.60460131835939,291.3614158691406C237.18066131835937,291.93961586914065,237.18066131835937,292.71361586914065,237.60460131835939,293.2917158691406C238.10687131835937,293.91811586914065,238.81680131835938,294.3583158691406,239.61515131835938,294.53841586914064C240.45935131835938,294.74941586914065,241.34335131835937,294.7631158691406,242.19425131835936,294.5786158691406C242.98765131835938,294.4353158691406,243.71495131835937,294.0557158691406,244.27405131835937,293.4928158691406C244.71595131835937,293.0879158691406,244.85375131835937,292.4615158691406,244.62075131835937,291.91771586914064L244.53755131835936,291.6764158691406L244.57915131835938,291.33461586914063C244.7908513183594,289.1492158691406,244.87425131835937,286.95391586914064,244.82875131835937,284.75941586914064C244.82875131835937,282.52071586914064,244.7455513183594,280.2753158691406,244.63455131835937,278.0568158691406L244.59295131835938,277.17201586914064L245.44575131835938,276.8503158691406C247.05305131835937,276.25491586914063,248.48245131835938,275.2830158691406,249.60555131835937,274.0218158691406C250.15785131835938,273.3895158691406,250.62385131835939,272.69121586914065,250.9920513183594,271.9440158691406C251.36435131835938,271.2161158691406,251.61475131835937,270.4355158691406,251.73395131835937,269.63171586914063C251.87255131835937,268.82171586914063,251.87255131835937,267.9952158691406,251.73395131835937,267.1852158691406C251.59695131835937,266.34791586914065,251.32065131835938,265.5376158691406,250.9158513183594,264.78571586914063C250.52255131835938,264.0507158691406,250.0229513183594,263.3737158691406,249.4321513183594,262.7749158691406C248.81875131835938,262.1948158691406,248.12595131835937,261.6986158691406,247.37315131835936,261.30041586914064ZM248.2258513183594,259.6984158691406C249.16865131835937,260.1639158691406,250.0391513183594,260.7550158691406,250.81185131835937,261.4545158691406C251.57415131835938,262.1698158691406,252.22355131835937,262.9896158691406,252.73915131835938,263.8875158691406C253.2575513183594,264.7912158691406,253.62495131835936,265.76851586914063,253.8276513183594,266.7831158691406C254.05265131835938,267.79811586914064,254.10185131835937,268.84231586914063,253.97325131835936,269.8729158691406C253.8627513183594,270.9139158691406,253.57705131835937,271.9305158691406,253.12745131835936,272.88241586914063C252.69725131835938,273.82231586914065,252.13755131835939,274.7016158691406,251.46355131835938,275.4964158691406C250.11925131835937,277.1064158691406,248.36925131835937,278.3551158691406,246.38175131835936,279.1225158691406L247.19285131835937,277.9160158691406C247.3037513183594,280.1882158691406,247.38005131835936,282.4604158691406,247.38695131835937,284.7527158691406C247.38695131835937,285.89211586914064,247.38695131835937,287.03821586914063,247.2968513183594,288.1911158691406C247.25085131835937,289.3625158691406,247.13745131835938,290.5306158691406,246.95715131835937,291.6898158691406L246.88785131835937,291.10001586914063C247.15975131835938,291.78701586914065,247.20575131835938,292.5383158691406,247.0195513183594,293.25151586914063C246.83955131835938,293.92631586914064,246.47565131835938,294.54201586914064,245.96575131835937,295.0344158691406C245.05225131835937,295.88801586914065,243.88225131835938,296.4395158691406,242.62405131835936,296.60951586914064C241.44145131835938,296.80061586914064,240.22855131835937,296.71321586914064,239.08826131835937,296.3548158691406C237.88099131835938,295.9978158691406,236.84257131835938,295.2407158691406,236.15562131835938,294.2167158691406C235.79708131835937,293.6495158691406,235.62541131835937,292.9903158691406,235.66339131835937,292.3266158691406C235.70862131835938,291.6753158691406,235.94958131835938,291.05101586914066,236.35668131835936,290.5303158691406C237.10420131835937,289.60311586914065,238.1638013183594,288.9581158691406,239.35171131835938,288.7072158691406C240.46095131835938,288.4457158691406,241.61885131835936,288.4457158691406,242.72805131835938,288.7072158691406C243.87165131835937,288.9371158691406,244.9090513183594,289.5149158691406,245.68845131835937,290.3560158691406L244.69705131835937,290.66431586914064C244.90495131835937,288.6536158691406,244.9604513183594,286.5423158691406,244.96735131835936,284.4712158691406C244.97435131835937,282.4001158691406,244.91885131835937,280.31561586914063,244.83565131835937,278.23111586914064L245.43885131835938,278.6332158691406C243.63525131835937,279.21301586914063,241.71335131835937,279.3625158691406,239.83701131835937,279.0689158691406C237.96423131835937,278.7627158691406,236.20589131835936,277.99131586914064,234.73437131835936,276.8302158691406C233.27449131835937,275.67831586914065,232.09160131835938,274.2328158691406,231.26791131835938,272.5942158691406C230.47111031835937,270.9556158691406,230.00071131835938,269.18651586914064,229.88131821835938,267.37961586914065C229.76356111835938,265.5604158691406,230.02526531835937,263.73701586914063,230.65087531835937,262.01751586914065C231.26209131835938,260.3279158691406,232.12131131835937,258.7321158691406,233.20219131835938,257.2788158691406C234.2871813183594,255.84651586914063,235.49052131835938,254.50161586914064,236.80038131835937,253.25731586914063C238.10377131835938,251.99721586914063,239.43490131835938,250.81751586914064,240.74525131835938,249.60441586914064L240.6204513183594,249.99311586914064C239.94405131835939,247.42861586914063,239.61083131835937,244.79087586914062,239.62902131835938,242.14440586914063C239.62902131835938,241.80927586914063,239.67062131835937,241.47415586914062,239.71915131835937,241.13902586914062C239.75829131835937,240.80335586914063,239.81614131835937,240.46997586914063,239.89245131835938,240.1403358691406C240.03375131835938,239.4467458691406,240.30385131835936,238.78365586914063,240.68975131835938,238.18318586914063C241.07805131835937,237.55675586914063,241.61215131835937,237.02658986914062,242.24965131835938,236.63489286914063C242.95635131835937,236.21303756914062,243.82135131835938,236.11957186914063,244.60685131835936,236.38019486914064C245.33265131835938,236.67808486914063,245.93685131835937,237.19861886914063,246.32625131835937,237.86146586914063L246.61045131835937,238.32394586914063C246.68675131835937,238.47809586914062,246.74915131835937,238.63896586914063,246.82535131835937,238.79982586914062C246.97975131835938,239.12256586914063,247.10055131835938,239.45935586914064,247.18595131835937,239.80520586914062C247.45675131835938,241.16274586914062,247.35645131835938,242.56513586914062,246.89475131835937,243.8736758691406C246.68025131835938,244.53320586914063,246.39925131835938,245.1707758691406,246.05585131835937,245.77720586914063C245.70935131835938,246.3622158691406,245.32975131835937,246.92831586914062,244.91885131835937,247.47291586914062C244.10235131835938,248.54501586914063,243.20805131835937,249.55971586914063,242.24275131835938,250.50921586914063L242.45765131835938,249.90601586914062C242.65875131835938,250.69691586914064,242.86665131835937,251.48111586914064,243.05385131835936,252.29211586914062L243.62235131835936,254.71171586914062C244.01755131835938,256.32031586914064,244.27405131835937,257.9289158691406,244.5999513183594,259.5376158691406L243.69175131835937,258.8673158691406C245.25045131835938,258.72021586914065,246.82065131835938,258.9964158691406,248.2258513183594,259.6649158691406L248.2258513183594,259.6984158691406Z" fill="url(#master_svg4_7_9465)" fill-opacity="1"/><path d="M248.65195131835938,259.23581586914065Q250.05565131835937,259.9542158691406,251.21765131835937,261.00621586914065Q252.44115131835937,262.1540158691406,253.26365131835936,263.58641586914064Q254.09535131835938,265.03631586914065,254.42065131835938,266.6646158691406Q254.7805513183594,268.2874158691406,254.57335131835939,269.94781586914064Q254.39695131835938,271.61061586914064,253.67425131835938,273.14071586914065Q252.99445131835938,274.62621586914065,251.92475131835937,275.88751586914066Q250.21535131835938,277.9348158691406,247.85365131835937,279.1298158691406Q247.98395131835937,282.19691586914064,247.99175131835938,284.75081586914064Q247.99175131835938,287.05041586914064,247.90065131835937,288.2265158691406Q247.83785131835938,289.81061586914063,247.61465131835936,291.3802158691406Q247.87295131835938,292.3770158691406,247.60465131835937,293.40431586914065Q247.28565131835938,294.60041586914065,246.38585131835939,295.4694158691406Q244.83505131835938,296.9187158691406,242.71285131835938,297.20771586914066Q240.7754513183594,297.5190158691406,238.90694131835937,296.93171586914065Q236.83850131835936,296.3202158691406,235.65342131835936,294.55361586914063Q235.64885131835936,294.54681586914063,235.6444513183594,294.5398158691406Q234.99025131835938,293.50491586914063,235.05964131835938,292.29201586914064Q235.14226131835937,291.10181586914064,235.88027131835938,290.1578158691406Q237.17556131835937,288.55111586914063,239.21967131835936,288.11701586914063Q241.0383513183594,287.68991586914063,242.85715131835937,288.11631586914064Q243.55565131835937,288.25781586914064,244.17465131835937,288.53341586914064Q244.26315131835938,286.6549158691406,244.22415131835936,284.7719158691406Q244.2240513183594,282.5208158691406,244.10055131835938,279.5996158691406Q241.95345131835938,280.01211586914064,239.74352131835937,279.66631586914065Q236.72773131835936,279.17331586914065,234.35979131835938,277.3050158691406Q232.0382613183594,275.47311586914066,230.72760031835938,272.86581586914065Q229.46640031835938,270.27231586914064,229.27790231835937,267.41951586914064Q229.0912163183594,264.5355158691406,230.08259131835936,261.81081586914064Q231.03407131835937,259.1805158691406,232.71696131835938,256.91791586914064Q234.38010131835938,254.72231586914063,236.38389131835936,252.81881586914062Q237.25725131835938,251.9744158691406,239.02841131835936,250.35811586914062Q239.53208131835936,249.89851586914062,239.88945131835936,249.57051586914062Q238.99839131835938,245.90955586914063,239.02430131835936,242.14025586914062Q239.02429131835936,241.72045586914064,239.1194713183594,241.06060586914063Q239.18164131835937,240.53142586914063,239.30153131835937,240.01167586914062Q239.53842131835938,238.85622586914062,240.18105131835938,237.85626586914063Q240.84155131835936,236.7902708691406,241.9330513183594,236.11964286914062Q243.29365131835937,235.30735686914062,244.79725131835937,235.80622786914063Q244.81715131835938,235.81281286914063,244.83645131835937,235.82075186914062Q246.14405131835937,236.35743686914063,246.84765131835937,237.55516586914064L247.12565131835936,238.00728586914062Q247.1402513183594,238.03092586914062,247.15255131835937,238.05579586914064Q247.20085131835938,238.15352586914062,247.28235131835936,238.34087586914063Q247.34155131835936,238.47683586914061,247.37185131835938,238.54077586914062Q247.62975131835938,239.08003586914063,247.77305131835936,239.66024586914062Q247.77625131835939,239.67349586914062,247.77895131835936,239.68688586914064Q248.2240513183594,241.91774586914062,247.46745131835937,244.06783586914062Q247.12665131835936,245.11362586914063,246.5820513183594,246.07520586914063Q246.03875131835937,246.99261586914062,245.40165131835937,247.83711586914063Q244.37955131835938,249.17921586914062,243.20705131835936,250.39481586914061Q243.50335131835936,251.55041586914064,243.64315131835937,252.15611586914062L244.21105131835938,254.57341586914063Q244.47705131835937,255.65611586914062,244.88385131835938,257.8173158691406Q244.92485131835937,258.03521586914064,244.96205131835939,258.23111586914064Q246.79165131835938,258.3129158691406,248.48565131835937,259.11881586914063Q248.57875131835937,259.16321586914063,248.65195131835938,259.23581586914065ZM245.19945131835937,259.45841586914065Q246.54935131835938,259.56941586914064,247.81245131835936,260.13981586914065Q247.87785131835938,260.20101586914063,247.95815131835937,260.2407158691406Q249.3037513183594,260.90501586914064,250.40605131835937,261.9028158691406Q251.48205131835937,262.9126158691406,252.2147513183594,264.18871586914065Q252.94795131835937,265.4669158691406,253.23465131835937,266.90161586914064Q253.55445131835938,268.3451158691406,253.37315131835936,269.79811586914064Q253.21585131835937,271.27931586914065,252.58065131835937,272.6241158691406Q251.96405131835937,273.9712158691406,251.0023513183594,275.1053158691406Q249.62545131835938,276.75421586914064,247.78525131835937,277.7944158691406Q247.76135131835937,277.6780158691406,247.69515131835936,277.5792158691406Q247.62895131835938,277.4805158691406,247.53025131835938,277.4142158691406Q247.43045131835936,277.3471158691406,247.31255131835937,277.32331586914063Q247.19465131835938,277.29951586914063,247.07655131835938,277.32261586914063Q246.95855131835938,277.34571586914063,246.85835131835938,277.4123158691406Q246.75815131835938,277.47881586914065,246.69105131835937,277.5786158691406L246.36935131835938,278.0570158691406L246.36935131835938,277.5541158691406Q246.36935131835938,277.46121586914063,246.34155131835936,277.3727158691406Q246.30885131835936,277.26851586914063,246.24175131835938,277.18241586914064Q248.45345131835938,276.2248158691406,250.0571513183594,274.42401586914065Q250.9449513183594,273.4078158691406,251.53455131835938,272.21141586914064Q252.13615131835937,271.0351158691406,252.3311513183594,269.72701586914064Q252.5562513183594,268.4051158691406,252.32995131835938,267.08321586914064Q252.10755131835938,265.7235158691406,251.44835131835939,264.49901586914064Q250.8148513183594,263.3152158691406,249.86265131835938,262.35021586914064Q249.85525131835936,262.34271586914065,249.84765131835937,262.33551586914064Q248.86325131835937,261.4046158691406,247.65595131835937,260.7658158691406Q246.40255131835937,260.1092158691406,245.03455131835938,259.9581158691406Q245.13085131835936,259.85861586914064,245.17415131835938,259.7271158691406Q245.21755131835937,259.5956158691406,245.19945131835937,259.45841586914065ZM243.73585131835938,258.25621586914065Q243.71585131835937,258.1508158691406,243.69525131835937,258.0410158691406Q243.29465131835937,255.91241586914063,243.03365131835938,254.85001586914063L242.4646513183594,252.42811586914064Q242.35385131835938,251.94791586914062,242.14005131835938,251.10521586914064Q242.00295131835938,251.08151586914062,241.88995131835938,251.00041586914062Q242.09815131835938,251.95951586914063,242.19125131835938,252.46971586914063L242.66705131835937,254.87721586914063Q242.82615131835936,255.60331586914063,243.05065131835937,257.0706158691406Q243.07695131835936,257.2427158691406,243.0896513183594,257.3254158691406L243.2651513183594,258.43871586914065Q243.3396513183594,258.36451586914063,243.43495131835937,258.3198158691406Q243.53015131835937,258.2751158691406,243.63485131835938,258.26531586914064Q243.68535131835938,258.26051586914065,243.73585131835938,258.25621586914065ZM243.41945131835936,259.4180158691406L244.09115131835938,259.9137158691406Q243.92365131835936,259.9162158691406,243.75445131835937,259.92581586914065L243.50225131835938,259.94061586914063L243.47075131835936,259.7437158691406L243.41945131835936,259.4180158691406ZM242.56875131835938,249.31151586914064Q243.56115131835938,248.25751586914063,244.43605131835938,247.1087158691406Q244.46315131835937,247.07291586914062,244.48995131835937,247.03701586914062Q244.44355131835937,247.09181586914062,244.39635131835936,247.14611586914063Q243.47265131835937,248.27111586914063,242.43825131835936,249.30161586914062Q242.5040513183594,249.29941586914063,242.56875131835938,249.31151586914064ZM241.75245131835936,248.27641586914064Q242.65325131835937,247.36371586914063,243.46685131835937,246.37211586914063Q243.4724513183594,246.36541586914063,243.47815131835938,246.3588158691406Q244.65955131835938,245.0010058691406,245.27325131835937,243.33004586914063Q245.8671513183594,241.75043586914063,245.57645131835937,240.10027586914063Q245.03825131835939,238.17066586914063,244.05585131835937,237.78072586914064Q243.52575131835937,237.61010586914063,243.05635131835936,237.90457586914061Q242.40855131835937,238.29942586914063,242.02355131835938,238.92801586914064Q242.01845131835938,238.93627586914062,242.01315131835938,238.94437586914063Q241.57045131835937,239.61774586914063,241.40635131835938,240.39870586914063Q241.4047513183594,240.4066258691406,241.40285131835938,240.41449586914064Q241.30215131835936,240.83721586914064,241.24825131835937,241.2678358691406Q241.1950513183594,241.66187586914063,241.16255131835936,242.1479358691406Q241.12685131835937,245.24919586914064,241.75245131835936,248.27641586914064ZM241.43575131835937,289.12511586914064Q240.46305131835936,289.06651586914063,239.4904413183594,289.2958158691406Q239.48359131835937,289.29741586914065,239.47671131835938,289.2989158691406Q237.84909131835937,289.6427158691406,236.83309131835938,290.90271586914065Q236.32316131835938,291.5550158691406,236.26713131835936,292.36111586914063Q236.22013131835936,293.18261586914065,236.66250131835938,293.8868158691406Q237.60397131835938,295.2853158691406,239.26958131835937,295.77791586914066Q240.8687513183594,296.28051586914063,242.52765131835937,296.01251586914066Q242.53535131835937,296.0113158691406,242.54305131835937,296.0102158691406Q244.28815131835938,295.7745158691406,245.54565131835938,294.5994158691406Q246.20365131835936,293.9640158691406,246.43445131835938,293.0987158691406Q246.56545131835938,292.5969158691406,246.51755131835938,292.1051158691406Q246.37995131835936,291.9595158691406,246.35655131835938,291.7604158691406L246.28905131835938,291.1863158691406L246.20885131835936,291.3800158691406Q246.18935131835937,291.4271158691406,246.16225131835938,291.4703158691406Q246.13515131835936,291.51351586914063,246.10115131835937,291.55151586914064Q246.06715131835938,291.58951586914066,246.0272513183594,291.62131586914063Q245.98745131835938,291.65321586914064,245.94275131835937,291.6778158691406Q245.89815131835937,291.7025158691406,245.85005131835936,291.7194158691406Q245.80185131835938,291.7362158691406,245.75155131835936,291.7448158691406Q245.70135131835937,291.7534158691406,245.65035131835938,291.7534158691406Q245.59935131835937,291.7534158691406,245.54905131835937,291.74491586914064L245.17915131835937,291.6821158691406L245.18585131835937,291.70141586914065Q245.4252513183594,292.27751586914064,245.29105131835937,292.8873158691406Q245.15655131835936,293.4986158691406,244.69355131835937,293.92861586914063Q243.7061513183594,294.9171158691406,242.31215131835938,295.17181586914063Q240.88825131835938,295.4783158691406,239.47516131835937,295.1268158691406Q238.03940131835938,294.8007158691406,237.1328113183594,293.6700158691406Q237.12464131835938,293.6599158691406,237.11692131835937,293.64931586914065Q236.68191131835937,293.0561158691406,236.68191131835937,292.3266158691406Q236.68191131835937,291.5971158691406,237.12082131835936,290.99851586914065Q238.03041131835937,289.7858158691406,239.52128131835937,289.39821586914064Q240.46485131835936,289.1142158691406,241.43575131835937,289.12511586914064ZM246.4406513183594,279.7244158691406Q246.53425131835937,282.0541158691406,246.57035131835937,284.39481586914064Q246.57045131835937,288.55721586914063,246.44055131835938,290.6930158691406Q246.46495131835937,290.6662158691406,246.49235131835937,290.64251586914065Q246.64375131835936,289.4096158691406,246.69255131835936,288.1673158691406Q246.69305131835938,288.1556158691406,246.69395131835938,288.1440158691406Q246.78225131835939,287.01461586914064,246.78225131835939,284.7545158691406Q246.77525131835938,282.42511586914065,246.66505131835936,279.66111586914064Q246.63215131835938,279.67401586914065,246.59955131835937,279.6866158691406Q246.52265131835938,279.7163158691406,246.4406513183594,279.7244158691406ZM244.00035131835938,277.4430158691406Q242.08775131835938,277.8843158691406,240.10645131835938,277.59271586914065Q237.61092131835937,277.2205158691406,235.64340131835937,275.7058158691406Q233.67379131835938,274.1476158691406,232.55899131835938,271.94461586914065Q231.45522131835938,269.70711586914064,231.27479131835938,267.2350158691406Q231.09501131835938,264.7706158691406,231.93211131835938,262.44191586914064Q232.80631131835938,260.07941586914063,234.3358013183594,258.0530158691406Q235.90249131835938,255.98641586914061,237.80524131835938,254.19931586914063Q238.67236131835938,253.37911586914063,240.47955131835937,251.74901586914064Q240.62545131835938,251.6173158691406,240.75965131835937,251.49621586914063Q240.92435131835938,252.26441586914063,241.00475131835938,252.70431586914063L241.48565131835937,255.1361158691406Q241.63645131835938,255.82441586914064,241.8550513183594,257.25351586914064Q241.88145131835938,257.42611586914063,241.89495131835938,257.51371586914064L242.27645131835936,259.93471586914063L242.39435131835938,260.6719158691406Q242.40315131835936,260.72701586914064,242.4218513183594,260.7795158691406Q242.44055131835938,260.8320158691406,242.46855131835937,260.8802158691406Q242.49655131835937,260.9284158691406,242.53295131835938,260.97071586914063Q242.56935131835937,261.01301586914065,242.6127513183594,261.04791586914064Q242.65625131835938,261.08281586914063,242.70535131835936,261.1092158691406Q242.75445131835937,261.1356158691406,242.80755131835937,261.1526158691406Q242.86075131835938,261.16951586914064,242.91605131835937,261.17651586914064Q242.97135131835938,261.1834158691406,243.02705131835938,261.1802158691406L243.82315131835938,261.13331586914063Q245.56205131835938,261.03431586914064,247.09025131835938,261.8349158691406Q248.14735131835937,262.39411586914065,249.00905131835938,263.20711586914064Q249.83345131835938,264.04471586914065,250.38335131835936,265.0724158691406Q250.9466513183594,266.1186158691406,251.13785131835937,267.2872158691406Q251.32975131835937,268.40841586914064,251.13785131835937,269.5296158691406Q251.1367513183594,269.5363158691406,251.13575131835938,269.5430158691406Q250.97045131835938,270.65821586914063,250.44965131835937,271.6767158691406Q249.93005131835938,272.7312158691406,249.15395131835936,273.61971586914063Q247.54315131835938,275.4284158691406,245.23225131835937,276.28451586914065L244.37955131835938,276.6062158691406Q244.28985131835938,276.64011586914063,244.21505131835937,276.6999158691406Q244.14035131835936,276.75981586914065,244.08765131835938,276.8399158691406Q244.03505131835936,276.9199158691406,244.00975131835938,277.0123158691406Q243.98445131835936,277.1048158691406,243.98895131835937,277.20051586914065L244.00035131835938,277.4430158691406ZM243.99575131835937,291.08101586914063Q243.31945131835937,290.60381586914065,242.34765131835937,290.4255158691406Q241.07325131835938,290.19171586914064,239.85985131835938,290.5594158691406Q239.84757131835937,290.56311586914063,239.83511131835937,290.5663158691406Q238.74691131835937,290.8462158691406,238.08838131835938,291.7242158691406Q237.65046131835936,292.3215158691406,238.0849113183594,292.92401586914065Q238.72725131835938,293.71821586914064,239.74822131835938,293.94851586914064Q239.75500131835938,293.95001586914066,239.7617513183594,293.9517158691406Q240.90935131835937,294.23851586914066,242.06605131835937,293.98761586914065Q242.07635131835937,293.98541586914064,242.08675131835938,293.9835158691406Q243.11945131835938,293.79701586914064,243.84505131835937,293.0666158691406Q243.8550513183594,293.0566158691406,243.86545131835936,293.04701586914064Q244.28285131835938,292.66451586914064,244.0648513183594,292.15591586914064Q244.0562513183594,292.13571586914065,244.04905131835937,292.1148158691406L243.96585131835937,291.87351586914065Q243.92035131835937,291.74171586914065,243.9372513183594,291.60341586914063L243.97795131835937,291.26891586914064Q243.98705131835936,291.17491586914065,243.99575131835937,291.08101586914063Z" fill-rule="evenodd" fill="url(#master_svg5_7_9465)" fill-opacity="1"/></g><g style="mix-blend-mode:luminosity"><path d="M245.23091943650246,278.48571763305665C243.42721943650247,278.98751763305665,241.52571943650247,279.06571763305664,239.68455943650247,278.71361763305663C238.76882943650247,278.53661763305666,237.87927943650246,278.25061763305666,237.03617943650247,277.8624176330566C236.61431943650246,277.6699176330566,236.20865943650244,277.44581763305666,235.82291943650245,277.1921176330566L235.24054943650245,276.83691763305666L234.69284943650246,276.4281176330566C233.23571943650245,275.33171763305666,232.08471943650247,273.90101763305665,231.34423943650245,272.2657176330566C230.63821343650247,270.64651763305665,230.26837403650245,268.90891763305666,230.25576627250246,267.15171763305665C230.24050793650247,263.65831763305664,231.41479943650245,260.25725763305667,233.59743943650247,257.4731876330566C235.74664943650245,254.70501763305663,238.53368943650247,252.61381763305664,241.00181943650244,250.26791763305664L241.62431943650245,250.47601563305665L241.63961943650247,250.48239863305665C242.01401943650245,251.99047763305663,242.33291943650246,253.53876763305664,242.67261943650246,255.07365763305665C242.85291943650245,255.83775763305664,242.97081943650247,256.6085476330566,243.11631943650247,257.37264763305666L243.54621943650247,259.67832763305665L243.61551943650247,260.07378763305667L243.19951943650244,260.14750763305665C241.91141943650246,260.36871763305663,240.71171943650245,260.9301176330566,239.73308943650247,261.76951763305664C238.75802943650245,262.59661763305667,238.05636943650245,263.68291763305666,237.71559943650246,264.89291763305664C237.41630943650244,266.09151763305664,237.55341943650245,267.3531176330566,238.10384943650246,268.46541763305663C238.65876943650247,269.55001763305665,239.58118943650246,270.4181176330566,240.71751943650247,270.92521763305666L239.68455943650247,271.20671763305666L239.96186943650247,270.65711763305666L240.28081943650247,271.6491176330566C238.96715943650247,271.05011763305663,237.90179943650244,270.03911763305666,237.25802943650245,268.78041763305663C236.60303943650246,267.48231763305665,236.42454943650245,266.00731763305663,236.75191943650245,264.59801763305666C237.12559943650245,263.20331763305666,237.91374943650246,261.94501763305664,239.01898943650247,260.9786176330566C240.13222943650246,260.02585763305666,241.49411943650244,259.38606763305665,242.95691943650246,259.12872763305666L244.21171943650245,258.92094763305664L244.44051943650246,260.1475176330566C244.69701943650244,261.56841763305664,244.93971943650246,263.0028176330566,245.13381943650245,264.43711763305663C245.32791943650247,265.87151763305667,245.51511943650246,267.3126176330566,245.67461943650247,268.7603176330566C245.83401943650244,270.20811763305664,245.95881943650247,271.65581763305664,245.98661943650245,273.11701763305666L246.15991943650246,277.4804176330566L246.15991943650246,278.19081763305667L245.46661943650247,278.3785176330566L245.23091943650246,278.48571763305665ZM244.66931943650246,276.76991763305665L244.96051943650247,276.66261763305664L244.32961943650247,277.56751763305664L243.92751943650245,273.2979176330566C243.81661943650246,271.87701763305665,243.58081943650245,270.46281763305666,243.35901943650245,269.04851763305663C243.13711943650245,267.63431763305664,242.90141943650247,266.2200176330566,242.66571943650246,264.81251763305664L241.97241943650246,260.55631763305666L243.44911943650246,261.57511763305666C242.43061943650247,261.72441763305665,241.47251943650247,262.13661763305663,240.67601943650246,262.7682176330566C239.87685943650246,263.39381763305664,239.27023943650246,264.21901763305664,238.92193943650247,265.1543176330566C238.60729943650244,266.1022176330566,238.63417943650245,267.1253176330566,238.99819943650246,268.0565176330566C239.38890943650244,269.01971763305664,240.10148943650245,269.8289176330566,241.02261943650245,270.35551763305665L241.71591943650245,270.75771763305664L241.34151943650247,271.35421763305663L241.00871943650245,271.87701763305665L240.62051943650246,272.49361763305666L240.04507943650245,272.1652176330566C238.70798943650246,271.42691763305663,237.65829943650246,270.28491763305664,237.05697943650244,268.9145176330566C236.44825943650247,267.57221763305665,236.32135943650246,266.07171763305666,236.69646943650247,264.6516176330566C237.11430943650245,263.2707176330566,237.94093943650245,262.03821763305666,239.07446943650245,261.10601763305664C240.19172943650244,260.18062763305664,241.55241943650245,259.5727676330566,243.00541943650245,259.34990763305666L242.66571943650246,259.81237763305666L242.27751943650244,257.50669763305666C242.13881943650244,256.73589763305665,242.02791943650246,255.95839763305665,241.84761943650247,255.20770763305663C241.51481943650245,253.68622763305663,241.20981943650247,252.17144763305663,240.84231943650246,250.64325863305663L241.48021943650247,250.82422663305664C238.99126943650245,253.16342763305664,236.25275943650246,255.32165763305665,234.22140943650246,257.9825776330566C232.18521943650245,260.63491763305666,231.11058243650245,263.8624176330566,231.16398943650245,267.16511763305664C231.18435043650246,268.78531763305665,231.55511943650245,270.3835176330566,232.25245943650245,271.85691763305664C232.94435943650245,273.3124176330566,234.03229943650246,274.55871763305663,235.40000943650244,275.46291763305663C238.08626943650245,277.31061763305667,241.52761943650245,277.79691763305664,244.64851943650245,276.76991763305665L244.66931943650246,276.76991763305665Z" fill="url(#master_svg6_7_9465)" fill-opacity="1" style="mix-blend-mode:luminosity"/><path d="M245.67221943650244,278.94941763305667L246.31791943650245,278.77451763305663Q246.36571943650245,278.76161763305663,246.41071943650246,278.74111763305666Q246.45571943650245,278.72061763305663,246.49681943650245,278.6930176330566Q246.53791943650245,278.6654176330566,246.57401943650245,278.63151763305666Q246.61011943650246,278.5977176330566,246.64011943650246,278.5583176330566Q246.67021943650246,278.5191176330566,246.69351943650247,278.4754176330566Q246.71681943650245,278.4317176330566,246.73271943650246,278.3848176330566Q246.74851943650245,278.33801763305667,246.75661943650246,278.28911763305666Q246.76461943650247,278.24031763305663,246.76461943650247,278.19081763305667L246.76461943650247,277.4804176330566Q246.76461943650247,277.46831763305664,246.76421943650246,277.4564176330566L246.59121943650246,273.10551763305665Q246.55571943650244,271.2367176330566,246.27571943650247,268.69411763305663Q246.08121943650247,266.92801763305664,245.73311943650245,264.35601763305664Q245.48841943650245,262.54801763305665,245.03501943650247,260.03662763305664L244.80621943650246,258.81005763305666Q244.79541943650247,258.75226763305665,244.77371943650246,258.6976376330566Q244.75201943650245,258.64300763305664,244.72021943650245,258.5935776330566Q244.68841943650244,258.54414763305664,244.64761943650245,258.50177763305663Q244.60691943650247,258.4594076330566,244.55871943650246,258.42567763305664Q244.51061943650245,258.3919376330566,244.45691943650246,258.3681176330566Q244.40311943650246,258.34428763305664,244.34581943650247,258.3312576330566Q244.28851943650247,258.31822763305667,244.22971943650245,258.31647763305665Q244.17101943650246,258.31472763305663,244.11301943650247,258.32433763305664L243.91501943650246,258.35711763305665L243.71041943650246,257.2594576330566Q243.66551943650245,257.02397763305663,243.58051943650247,256.5480076330566Q243.38891943650245,255.47616763305663,243.26311943650245,254.94297763305664Q243.17171943650246,254.53000763305664,242.99181943650245,253.70151763305665Q242.50211943650245,251.44671763305664,242.22651943650246,250.33669883305663Q242.19201943650245,250.19743253305663,242.09851943650244,250.08854563305664Q242.00511943650247,249.97965763305663,241.87271943650245,249.92436563305665L241.85741943650245,249.91798263305665Q241.83701943650246,249.90947663305664,241.81611943650245,249.90247863305663L241.19351943650247,249.69438063305665Q241.11541943650246,249.66827663305665,241.03321943650246,249.66400163305664Q240.95101943650246,249.65972663305664,240.87061943650247,249.67759263305663Q240.79021943650247,249.69545763305663,240.71751943650247,249.73416163305663Q240.64491943650245,249.77286663305665,240.58521943650246,249.82959263305665Q239.84782943650245,250.53044463305665,238.30466943650245,251.89584763305663Q236.49388943650246,253.49801763305663,235.61879943650246,254.34880763305665Q234.14551943650247,255.78117763305664,233.12152943650247,257.1000776330566Q231.42194943650244,259.26797763305666,230.53077343650244,261.84911763305666Q229.63914743650247,264.4315176330566,229.65105043650246,267.15601763305665Q229.67103543650245,269.94141763305663,230.79335543650245,272.51521763305664Q231.98543943650245,275.14771763305663,234.33109943650246,276.9127176330566L234.87879943650245,277.32151763305666Q234.90147943650246,277.3384176330566,234.92562943650245,277.35321763305666L235.49941943650245,277.7032176330566Q236.11381943650247,278.10621763305664,236.78322943650247,278.41171763305664Q238.11913943650245,279.02691763305666,239.57097943650245,279.3076176330566Q242.51181943650246,279.8699176330566,245.39301943650247,279.06831763305667Q245.43841943650244,279.05571763305664,245.48131943650245,279.03621763305665L245.67221943650244,278.94941763305667ZM235.26824943650246,276.1029176330566L235.57960943650247,276.33541763305664L236.13782943650244,276.67591763305666Q236.14656943650246,276.68121763305663,236.15512943650245,276.68681763305665Q236.69580943650246,277.04231763305665,237.28912943650246,277.31311763305666Q238.49225943650245,277.8672176330566,239.79812943650245,278.11971763305667Q241.96951943650245,278.53491763305664,244.10471943650245,278.12881763305666Q244.04051943650245,278.1031176330566,243.98371943650247,278.0635176330566Q243.87961943650245,277.99091763305665,243.81341943650244,277.8826176330566Q243.74731943650247,277.77421763305665,243.73031943650247,277.6484176330566Q241.78721943650245,278.0773176330566,239.77665943650246,277.79321763305666Q237.31151943650246,277.44481763305663,235.26824943650246,276.1029176330566ZM244.79701943650247,276.08041763305664Q244.90091943650245,276.05121763305664,245.00841943650246,276.05981763305664Q245.11601943650246,276.06841763305664,245.21401943650247,276.11361763305666Q245.31351943650245,276.1595176330566,245.39061943650245,276.23751763305665Q245.46761943650245,276.31541763305665,245.51241943650246,276.41551763305665L245.38191943650247,273.1285176330566Q245.34751943650247,271.31451763305665,245.07351943650247,268.82651763305665Q244.88061943650246,267.07531763305667,244.53461943650245,264.5182176330566Q244.31041943650246,262.86181763305666,243.90791943650245,260.6031176330566Q243.82001943650246,260.65171763305665,243.72101943650244,260.66921763305663L243.30721943650246,260.7426176330566L243.79251943650246,261.07741763305665Q243.89151943650245,261.1457176330566,243.95691943650246,261.2467176330566Q244.02221943650247,261.3477176330566,244.04391943650245,261.46601763305665Q244.06561943650246,261.5843176330566,244.04041943650245,261.70191763305667Q244.01521943650246,261.81951763305665,243.94691943650247,261.91851763305664Q243.87541943650245,262.02221763305664,243.76841943650246,262.08871763305666Q243.66141943650246,262.1552176330566,243.53681943650247,262.17351763305663Q243.19491943650246,262.2236176330566,242.87131943650246,262.3133176330566L243.26241943650246,264.71391763305667L243.78741943650246,267.89241763305665L243.95641943650244,268.9548176330566Q243.97841943650246,269.09481763305666,244.02271943650246,269.3753176330566Q244.42861943650246,271.94721763305665,244.52961943650246,273.24121763305664L244.79701943650247,276.08041763305664ZM241.72331943650246,262.78851763305664L242.06911943650246,264.91101763305664L242.59291943650246,268.0825176330566L242.76161943650246,269.14221763305665Q242.78361943650245,269.28241763305664,242.82801943650244,269.56391763305663Q243.22651943650246,272.08881763305664,243.32541943650244,273.35461763305665L243.61541943650246,276.43391763305664Q241.81351943650245,276.85961763305664,239.94589943650246,276.59561763305663Q237.64018943650245,276.2698176330566,235.73348943650245,274.9584176330566Q233.78373943650246,273.6695176330566,232.79906943650246,271.59821763305666Q231.79789943650246,269.48281763305664,231.76863943650247,267.15531763305665Q231.68969943650245,262.27351763305666,234.70208943650246,258.34952763305665Q235.67472943650245,257.0754276330566,237.13290943650244,255.64108763305663Q238.01629943650246,254.77212763305664,239.88916943650247,253.09192763305663Q240.28921943650246,252.73300763305664,240.62861943650245,252.42606763305665Q240.77651943650247,253.09781763305665,240.95551943650247,253.93666763305663Q241.15451943650245,254.86916763305663,241.25961943650245,255.34890763305663Q241.38441943650247,255.86870763305663,241.56881943650245,256.95711763305667Q241.64281943650246,257.39423763305666,241.68111943650246,257.6071076330566L241.87511943650244,258.75931763305664Q240.07065943650247,259.28258763305666,238.62092943650245,260.5234176330566Q237.17275943650245,261.78961763305665,236.48151943650245,263.5012176330566Q236.27071943650245,263.97061763305663,236.11765943650246,264.47651763305663Q236.11453943650247,264.48681763305666,236.11179943650245,264.49721763305666Q235.47792943650245,266.89671763305665,236.50320943650246,269.15741763305664Q237.51239943650245,271.4575176330566,239.74531943650246,272.69041763305665L240.32071943650246,273.01881763305664Q240.37101943650245,273.04751763305666,240.42591943650245,273.0662176330566Q240.48071943650245,273.0848176330566,240.53811943650246,273.0927176330566Q240.59541943650245,273.10061763305663,240.65321943650247,273.09751763305667Q240.71111943650246,273.0943176330566,240.76721943650244,273.08031763305667Q240.82341943650246,273.0662176330566,240.87591943650244,273.04181763305667Q240.92841943650245,273.0173176330566,240.97531943650245,272.98331763305663Q241.02221943650247,272.94941763305667,241.06181943650245,272.90711763305666Q241.10141943650245,272.86481763305665,241.13221943650245,272.81581763305667L241.51891943650244,272.20171763305666L241.85371943650244,271.67571763305665L242.22811943650245,271.0791176330566Q242.23371943650247,271.07021763305664,242.23901943650245,271.06111763305665Q242.29931943650246,270.95701763305664,242.31531943650245,270.83781763305666Q242.33121943650247,270.7186176330566,242.30031943650246,270.60231763305666Q242.26941943650246,270.48611763305666,242.19641943650245,270.3905176330566Q242.12341943650245,270.2949176330566,242.01931943650246,270.23461763305664L241.32271943650247,269.8305176330566Q240.08287943650245,269.1217176330566,239.56142943650246,267.8364176330566Q239.08071943650245,266.60661763305666,239.49248943650247,265.35511763305664Q239.96594943650246,264.0920176330566,241.05171943650245,263.24201763305666Q241.37411943650247,262.98641763305665,241.72331943650246,262.78851763305664ZM241.48541943650247,261.32771763305664L241.51851943650246,261.53141763305666Q240.87531943650245,261.8384176330566,240.30021943650246,262.29431763305666Q238.94722943650245,263.35351763305664,238.35522943650247,264.94331763305667Q238.35142943650246,264.95351763305666,238.34799943650245,264.96381763305664Q238.28215943650247,265.1622176330566,238.23316943650246,265.36011763305663Q238.26134943650246,265.20471763305665,238.30014943650247,265.0481176330566Q238.77363943650246,263.37641763305663,240.12679943650247,262.22851763305664Q240.75931943650247,261.6860176330566,241.48541943650247,261.32771763305664ZM245.53031943650245,276.86531763305663Q245.50301943650246,276.94181763305664,245.45661943650245,277.0085176330566L244.82571943650245,277.9134176330566Q244.80021943650246,277.94991763305666,244.76971943650244,277.9822176330566Q244.89681943650245,277.95041763305665,245.02391943650247,277.91551763305665L245.21621943650246,277.82811763305665Q245.26101943650247,277.80771763305665,245.30861943650245,277.79481763305665L245.55521943650245,277.72801763305665L245.55521943650245,277.49231763305664L245.53031943650245,276.86531763305663Z" fill-rule="evenodd" fill="url(#master_svg7_7_9465)" fill-opacity="1" style="mix-blend-mode:luminosity"/></g><g style="mix-blend-mode:hue"><path d="M239.94107246466064,240.87763285284996C240.12183346466065,240.02862285284996,240.37220946466064,239.19487285284995,240.68983346466064,238.38428285284996C240.86924346466066,237.90533285284997,241.15567346466065,237.47051785284995,241.52871346466065,237.11078985284996C241.75831346466063,236.89568585284997,242.04715346466065,236.74908585284996,242.36066346466063,236.68852705284996C242.64186346466064,236.63158815284996,242.93221346466063,236.63158815284996,243.21341346466065,236.68852705284996C243.68226346466065,236.79912085284997,244.12946346466063,236.98246885284996,244.53760346466063,237.23143585284996C244.94910346466065,237.47636785284996,245.31477346466065,237.78683285284995,245.61914346466065,238.14969285284997C246.18878346466064,238.88494285284997,246.51070346466065,239.77180285284996,246.54122346466065,240.68996285284996C246.55777346466064,242.43908285284996,246.07821346466065,244.15914285284995,245.15463346466063,245.66327285284996C244.71786346466064,246.40056285284996,244.20482346466065,247.08422285284996,243.69872346466065,247.77462285284997L242.22894346466063,249.90602285284996L241.39005346466064,251.09232285284997L240.69676346466065,249.49042285284997C240.42437446466064,248.83412285284996,240.19286446466066,248.16272285284995,240.00347146466063,247.47962285284996C239.79835046466064,246.78282285284996,239.65911846466065,246.06943285284996,239.58749596466063,245.34825285284995C239.51122676466065,244.61281285284997,239.51122676466065,243.87184285284997,239.58749596466063,243.13640285284995C239.64656046466064,242.37597285284997,239.76475446466065,241.62091285284995,239.94107246466064,240.87763285284996ZM241.77830346466064,241.15244285284996C241.74976346466065,241.79943285284995,241.77992346466064,242.44759285284997,241.86842346466065,243.08948285284995L242.14574346466065,245.05334285284997C242.23587346466064,245.72359285284995,242.31906346466064,246.39385285284996,242.36066346466063,247.06412285284995C242.40225346466065,247.73432285284997,242.42999346466064,248.44482285284997,242.45772346466063,249.14192285284997L240.96714346466064,248.72632285284996C241.66100346466064,248.25792285284996,242.30853346466066,247.72842285284997,242.90142346466064,247.14452285284995C243.47165346466065,246.54398285284995,243.98881346466064,245.89827285284997,244.44748346466065,245.21420285284995C244.90408346466063,244.55589285284995,245.25036346466064,243.83205285284996,245.47355346466065,243.06938285284997C245.71490346466064,242.31519285284995,245.81124346466063,241.52464285284995,245.75780346466064,240.73688285284996C245.71809346466065,239.19512285284995,244.55670346466064,237.89548285284997,242.98463346466065,237.63358985284995C242.72989346466065,237.56006685284996,242.45459346466063,237.64523585284996,242.29133346466065,237.84807285284995C242.11513346466063,238.12460285284996,241.99732346466064,238.43213285284995,241.94469346466065,238.75292285284996C241.86149346466064,239.50361285284995,241.84069346466063,240.30791285284997,241.76443346466064,241.15244285284996L241.77830346466064,241.15244285284996Z" fill="url(#master_svg8_7_9465)" fill-opacity="1" style="mix-blend-mode:hue"/><path d="M238.98518446466065,243.08183285284997Q238.86523446466063,244.24622285284997,238.98572446466065,245.40801285284996Q239.09899346466065,246.54853285284997,239.42072746466064,247.64122285284995Q239.71501746466063,248.70262285284997,240.14178046466066,249.73062285284996L240.83507346466064,251.33252285284996Q240.90243346466065,251.48822285284996,241.04091346466063,251.58612285284997Q241.08954346466064,251.62052285284997,241.14395346466065,251.64472285284995Q241.19835346466064,251.66902285284996,241.25644346466063,251.68212285284997Q241.31453346466066,251.69532285284996,241.37407346466065,251.69692285284995Q241.43361346466065,251.69842285284997,241.49231346466064,251.68842285284995Q241.55102346466063,251.67832285284996,241.60663346466063,251.65702285284996Q241.66224346466063,251.63562285284996,241.71262346466065,251.60392285284996Q241.76300346466064,251.57212285284996,241.80621346466066,251.53112285284996Q241.84943346466065,251.49012285284996,241.88381346466065,251.44152285284997L242.72678346466066,250.24932285284996L244.19158346466065,248.12512285284996Q244.23841346466065,248.06122285284997,244.32742346466065,247.94012285284995Q245.26354346466064,246.66592285284997,245.66997346466064,245.97970285284995Q247.17287346466065,243.53208285284995,247.14592346466065,240.68424285284996Q247.14586346466064,240.67705285284995,247.14562346466064,240.66987285284995Q247.09222346466063,239.06365285284997,246.09719346466065,237.77932285284996Q246.09000346466064,237.77004285284997,246.08246346466063,237.76105285284996Q245.55670346466064,237.13427685284995,244.85252346466063,236.71517365284996Q244.15398346466066,236.28906385284995,243.35225346466063,236.09994885284996Q243.34287346466064,236.09773685284995,243.33343346466066,236.09582385284995Q242.78704346466066,235.98518785284995,242.24597346466064,236.09477085284996Q241.59434346466065,236.22063985284996,241.10894346466065,236.67547975284995Q240.44396946466065,237.31671585284997,240.12677946466064,238.16365285284996Q239.63277946466064,239.42438285284996,239.35105646466064,240.74486285284996Q239.07757446466064,241.90006285284997,238.98518446466065,243.08183285284997ZM240.18900146466063,243.19878285284997Q240.18980646466065,243.19101285284995,240.19041146466066,243.18323285284995Q240.27548746466064,242.08790285284996,240.52947546466063,241.01721285284995Q240.53109346466064,241.01041285284995,240.53254346466065,241.00356285284997Q240.79379346466064,239.77653285284995,241.25288346466064,238.60490285284996Q241.34809346466065,238.35082285284997,241.48531346466063,238.12408285284997Q241.39290346466063,238.38094285284996,241.34794346466063,238.65501285284995Q241.34538346466064,238.67060285284995,241.34364346466066,238.68631285284997Q241.29596346466064,239.11654285284996,241.24029346466065,240.00966285284997Q241.19542346466065,240.72963285284996,241.16215346466063,241.09805285284995Q241.15486346466065,241.17874285284995,241.16907346466064,241.25850285284997Q241.13793346466065,242.21882285284997,241.26936346466064,243.17208285284997L241.54695346466065,245.13789285284997Q241.71090346466065,246.35727285284997,241.75709346466064,247.10152285284997Q241.76433346466064,247.21822285284995,241.77203346466064,247.35852285284997Q241.31499346466063,247.74652285284995,240.82126346466063,248.09272285284996Q240.69462346466065,247.70902285284996,240.58621346466063,247.31812285284997Q240.29130946466066,246.31597285284997,240.18926746466065,245.28849285284997Q240.08078046466065,244.24233285284996,240.18900146466063,243.19878285284997ZM241.34193346466066,249.45862285284997L241.51762346466063,249.86462285284995L241.72848346466066,249.56642285284997L241.34193346466066,249.45862285284997ZM242.89841346466065,246.24798285284996Q243.46440346466065,245.59450285284996,243.94520346466064,244.87742285284997Q244.58384346466065,243.95653285284996,244.89316346466063,242.89953285284997Q244.89529346466065,242.89227285284997,244.89759346466064,242.88506285284996Q245.22747346466065,241.85422285284997,245.15446346466064,240.77781285284996Q245.15360346466065,240.76514285284995,245.15327346466066,240.75245285284996Q245.12920346466063,239.81801285284996,244.49493346466065,239.10824285284997Q243.85450346466064,238.39157285284995,242.88525346466065,238.23010285284997Q242.85064346466064,238.22433285284995,242.81693346466065,238.21460285284996Q242.79103346466064,238.20713285284995,242.77417346466063,238.21697285284995Q242.60081346466063,238.50613285284996,242.54393346466065,238.83606285284995Q242.50017346466063,239.23841285284996,242.44741346466066,240.08490285284995Q242.40881346466065,240.70431285284997,242.37807346466064,241.07521285284997Q242.38303346466066,241.11367285284996,242.38303346466066,241.15246285284996Q242.38303346466066,241.16578285284996,242.38244346466064,241.17908285284997Q242.34198346466064,242.09656285284996,242.46749346466063,243.00689285284997L242.74453346466063,244.96878285284996Q242.84086346466066,245.68513285284996,242.89841346466065,246.24798285284996Z" fill-rule="evenodd" fill="url(#master_svg9_7_9465)" fill-opacity="1" style="mix-blend-mode:hue"/></g><g><path d="M252.16376229156495,272.78188705444336C251.48202229156493,273.93338705444336,250.59748229156494,274.96088705444333,249.55004229156495,275.81808705444337C248.52402229156493,276.65458705444337,247.34950229156493,277.30408705444336,246.08357229156493,277.73508705444334L245.43881229156494,277.9964870544434L245.39721229156495,277.3261870544434L245.11296229156494,273.0700870544434C245.05057229156495,271.6490870544434,244.84951229156493,270.24158705444336,244.67619229156494,268.82734705444335C244.28794229156495,265.99215705444334,243.84424129156494,263.17037705444335,243.33813399156494,260.3552970544434L243.26187229156494,259.91963005444336L243.79570929156495,259.79898305444334C245.40416229156494,259.47360605444334,247.07986229156495,259.7111461544434,248.52397229156495,260.46924005444333C250.01500229156494,261.1864170544434,251.27394229156494,262.28529705444333,252.16376229156495,263.64625705444337C253.08019229156494,265.01275705444334,253.56227229156494,266.6089670544434,253.55037229156494,268.23751705444334C253.48877229156494,269.84058705444335,253.01203229156494,271.40308705444335,252.16376229156495,272.78188705444336ZM250.49985229156493,271.96418705444336C250.75317229156494,271.38698705444335,250.93020229156494,270.78118705444336,251.02676229156495,270.16118705444336C251.09929229156495,269.55099705444337,251.09929229156495,268.9348170544434,251.02676229156495,268.3246570544434Q250.89511229156494,267.11831705444337,249.94522229156493,264.87282705444335Q248.48756229156493,262.84986705444334,247.45630229156495,262.12477705444337C246.39767229156493,261.3649570544434,245.14330229156494,260.90121705444335,243.83037629156493,260.78425705444334L244.28795229156495,260.22124305444333Q244.77325229156494,263.04302705444337,245.61907229156495,268.71340705444334Q245.99345229156495,271.56198705444336,246.06278229156493,272.99638705444335L246.34009229156493,277.2926870544434L245.64680229156494,276.87048705444334C247.82160229156494,275.84738705444335,249.54739229156493,274.10758705444334,250.51372229156493,271.96418705444336L250.49985229156493,271.96418705444336Z" fill="url(#master_svga_7_9465)" fill-opacity="1"/><path d="M252.67881229156495,273.09878705444333Q254.05477229156494,270.8623870544434,254.15467229156494,268.26072705444335Q254.15497229156495,268.25133705444335,254.15507229156495,268.2419370544434Q254.17467229156495,265.55902705444333,252.66991229156494,263.31532705444334Q251.22022229156494,261.09806705444333,248.79562229156494,259.92886005444336Q246.37263229156494,258.6607090544434,243.67580529156493,259.20625805444337Q243.66908729156495,259.20761705444335,243.66240229156494,259.20912805444334L243.12856529156494,259.32977505444336Q243.07229129156494,259.34249205444337,243.01943829156494,259.36562105444335Q242.96658529156494,259.38875005444334,242.91905829156494,259.42145505444336Q242.87153129156493,259.4541600544434,242.83104629156495,259.49526105444335Q242.79056029156493,259.53636305444337,242.75857729156493,259.58437795444337Q242.72659329156494,259.6323931544434,242.70426529156495,259.68558975444336Q242.68193729156494,259.73878635444333,242.67007129156494,259.79524505444334Q242.65820429156494,259.85170405444336,242.65722729156494,259.90938805444335Q242.65625029156493,259.96707205444335,242.66619829156494,260.02390005444335L242.74294529156495,260.46230205444334Q243.48723129156494,264.60218705444333,244.07595229156493,268.90091705444337Q244.10539829156494,269.14117705444335,244.16574629156494,269.62023705444335Q244.45805229156494,271.94068705444334,244.50881229156494,273.0965870544434Q244.50912229156495,273.10348705444335,244.50958229156495,273.1103870544434L244.79364229156494,277.36368705444335L244.83524229156495,278.03388705444337Q244.84135229156493,278.13228705444334,244.87839229156495,278.22368705444336Q244.90076229156494,278.2788870544434,244.93348229156493,278.3286870544434Q244.96620229156494,278.37838705444335,245.00800229156494,278.42088705444337Q245.04979229156496,278.46328705444336,245.09907229156494,278.4966870544434Q245.14834229156494,278.53018705444333,245.20319229156493,278.55338705444336Q245.25805229156495,278.57658705444334,245.31637229156493,278.58868705444337Q245.37470229156494,278.60068705444337,245.43426229156495,278.60118705444336Q245.49382229156495,278.60158705444337,245.55232229156493,278.5904870544434Q245.61082229156494,278.57928705444334,245.66602229156493,278.55688705444334L246.29498229156493,278.30188705444334Q248.30275229156493,277.61518705444337,249.93305229156493,276.2860870544434Q251.59912229156495,274.92258705444334,252.67881229156495,273.09878705444333ZM247.79291229156493,276.29998705444336Q248.51416229156493,275.88238705444337,249.16704229156494,275.3501870544434Q250.66745229156493,274.1221870544434,251.64870229156494,272.4649870544434Q252.85585229156493,270.50298705444334,252.94569229156494,268.2237270544434Q252.95987229156495,265.91907705444333,251.65761229156493,263.97718705444333Q250.38947229156494,262.03758705444335,248.26184229156493,261.0142070544434Q248.25228229156494,261.00960705444334,248.24289229156494,261.00467705444333Q246.64697229156494,260.1668960544434,244.90866229156495,260.26298405444334Q244.91522229156493,260.30141405444334,244.92183229156495,260.34018805444333Q246.48388229156495,260.6824770544434,247.80412229156494,261.6300870544434Q248.91867229156495,262.41373705444335,250.43585229156494,264.51930705444335Q250.47565229156493,264.57453705444334,250.50217229156493,264.6372270544434Q251.48664229156495,266.96446705444333,251.62726229156493,268.25327705444334Q251.74490229156493,269.2429070544434,251.62726229156493,270.23258705444334Q251.62597229156495,270.24338705444336,251.62429229156493,270.2541870544434Q251.47703229156494,271.19978705444333,251.10647229156496,272.0838870544434Q251.09299229156494,272.1506870544434,251.06502229156493,272.21268705444334Q249.93251229156493,274.72478705444337,247.79291229156493,276.29998705444336ZM246.83028229156494,275.4991870544434L246.66680229156495,272.96718705444334Q246.59627229156493,271.50788705444336,246.21718229156494,268.6241870544434Q245.57426229156493,264.3140070544434,245.13906229156495,261.6458470544434Q246.19091229156493,261.96091705444337,247.10848229156494,262.61946705444336Q248.04291229156493,263.2764770544434,249.41475229156495,265.1711970544434Q250.30536229156493,267.28851705444333,250.42626229156494,268.39603705444335Q250.52627229156494,269.2374770544434,250.42754229156495,270.0788870544434Q250.29372229156493,270.92908705444336,249.94610229156496,271.7210870544434Q249.92312229156494,271.77348705444336,249.91036229156495,271.82928705444334Q248.84977229156493,274.1069870544434,246.83028229156494,275.4991870544434Z" fill-rule="evenodd" fill="url(#master_svgb_7_9465)" fill-opacity="1"/></g></g></g></svg>