<svg xmlns="http://www.w3.org/2000/svg" xmlns:xlink="http://www.w3.org/1999/xlink" fill="none" version="1.1" width="512" height="512" viewBox="0 0 512 512"><defs><clipPath id="master_svg0_12_002"><rect x="0" y="512" width="512" height="512" rx="0"/></clipPath><radialGradient cx="0" cy="0" r="1" gradientUnits="userSpaceOnUse" id="master_svg1_7_04645" gradientTransform="translate(757.5833740234375 767.5995483398438) rotate(90) scale(250.5 251)"><stop offset="0%" stop-color="#824E1C" stop-opacity="1"/><stop offset="100%" stop-color="#000000" stop-opacity="1"/></radialGradient><filter id="master_svg2_12_006" filterUnits="objectBoundingBox" color-interpolation-filters="sRGB" x="-24.189258575439453" y="-24.189258575439453" width="370.3785171508789" height="377.3785171508789"><feFlood flood-opacity="0" result="BackgroundImageFix"/><feColorMatrix in="SourceAlpha" type="matrix" values="0 0 0 0 0 0 0 0 0 0 0 0 0 0 0 0 0 0 127 0"/><feOffset dy="0" dx="0"/><feGaussianBlur stdDeviation="6.047314643859863"/><feColorMatrix type="matrix" values="0 0 0 0 0.9940476417541504 0 0 0 0 0.7512537240982056 0 0 0 0 0.184734508395195 0 0 0 1 0"/><feBlend mode="normal" in2="BackgroundImageFix" result="effect1_dropShadow"/><feBlend mode="normal" in="SourceGraphic" in2="effect1_dropShadow" result="shape"/><feColorMatrix in="SourceAlpha" type="matrix" result="hardAlpha" values="0 0 0 0 0 0 0 0 0 0 0 0 0 0 0 0 0 0 127 0"/><feOffset dy="0" dx="0"/><feGaussianBlur stdDeviation="19.956138610839844"/><feComposite in2="hardAlpha" operator="arithmetic" k2="-1" k3="1"/><feColorMatrix type="matrix" values="0 0 0 0 0.9921568632125854 0 0 0 0 0.7529411911964417 0 0 0 0 0.18431372940540314 0 0 0 1 0"/><feBlend mode="normal" in2="shape" result="effect2_innerShadow"/></filter><radialGradient cx="0" cy="0" r="1" gradientUnits="userSpaceOnUse" id="master_svg3_7_2327" gradientTransform="translate(245 1096.5) rotate(90) scale(260.4177277088165 254.87692499160767)"><stop offset="0%" stop-color="#F5B24D" stop-opacity="1"/><stop offset="69.9999988079071%" stop-color="#FF5100" stop-opacity="0"/></radialGradient><linearGradient x1="0.5" y1="0" x2="0.5" y2="1" id="master_svg4_7_9465"><stop offset="0%" stop-color="#FDB744" stop-opacity="1"/><stop offset="100%" stop-color="#F6D271" stop-opacity="1"/></linearGradient><linearGradient x1="0.5" y1="0" x2="0.5" y2="1" id="master_svg5_7_9465"><stop offset="0%" stop-color="#FDB744" stop-opacity="1"/><stop offset="100%" stop-color="#F6D271" stop-opacity="1"/></linearGradient><linearGradient x1="0.5" y1="0" x2="0.5" y2="1" id="master_svg6_7_9465"><stop offset="0%" stop-color="#FDB744" stop-opacity="1"/><stop offset="100%" stop-color="#F6D271" stop-opacity="1"/></linearGradient><linearGradient x1="0.5" y1="0" x2="0.5" y2="1" id="master_svg7_7_9465"><stop offset="0%" stop-color="#FDB744" stop-opacity="1"/><stop offset="100%" stop-color="#F6D271" stop-opacity="1"/></linearGradient><linearGradient x1="0.5" y1="0" x2="0.5" y2="1" id="master_svg8_7_9465"><stop offset="0%" stop-color="#FDB744" stop-opacity="1"/><stop offset="100%" stop-color="#F6D271" stop-opacity="1"/></linearGradient><linearGradient x1="0.5" y1="0" x2="0.5" y2="1" id="master_svg9_7_9465"><stop offset="0%" stop-color="#FDB744" stop-opacity="1"/><stop offset="100%" stop-color="#F6D271" stop-opacity="1"/></linearGradient><linearGradient x1="0.5" y1="0" x2="0.5" y2="1" id="master_svga_7_9465"><stop offset="0%" stop-color="#FDB744" stop-opacity="1"/><stop offset="100%" stop-color="#F6D271" stop-opacity="1"/></linearGradient><linearGradient x1="0.5" y1="0" x2="0.5" y2="1" id="master_svgb_7_9465"><stop offset="0%" stop-color="#FDB744" stop-opacity="1"/><stop offset="100%" stop-color="#F6D271" stop-opacity="1"/></linearGradient></defs><g transform="matrix(1,0,0,-1,0,1024)" clip-path="url(#master_svg0_12_002)"><g transform="matrix(-1,0,0,1,1013.166748046875,0)"><ellipse cx="757.5833740234375" cy="767.5995483398438" rx="251" ry="250.5" fill="url(#master_svg1_7_04645)" fill-opacity="1"/></g><g transform="matrix(1,0,0,-1,0,1864)" filter="url(#master_svg2_12_006)"><path d="M109.1235,1129.749C108.34530000000001,1131.857,108.7261,1134.324,110.1036,1136.099C111.8129,1138.302,119.1234,1138.705,133.3062,1139.443L205.65800000000002,1143.209C211.204,1143.497,214.064,1143.662,215.643,1144.941C216.972,1146.017,217.831,1147.6,218.008,1149.301C218.219,1151.3220000000001,216.797,1153.809,214.013,1158.614L189.451,1201.028C179.7917,1217.7069999999999,174.8529,1226.278,175.92149999999998,1228.997C176.7755,1231.17,178.8305,1232.805,181.1399,1233.149C184.03,1233.579,191.272,1226.841,205.353,1213.681L246.185,1175.522C249.381,1172.535,251.031,1171.009,252.759,1170.65C254.232,1170.344,255.778,1170.567,257.106,1171.275C258.663,1172.106,259.81600000000003,1174.035,262.04200000000003,1177.801L289.877,1224.907C296.128,1235.484,299.376,1240.935,302.028,1241.48C304.177,1241.921,306.493,1241.221,308.038,1239.664C309.945,1237.742,309.631,1231.404,308.978,1219.135L305.60699999999997,1155.7640000000001C305.392,1151.729,305.291,1149.66,306.043,1148.164C306.687,1146.884,307.747,1145.848,309.04200000000003,1145.2350000000001C310.555,1144.518,312.621,1144.667,316.65,1144.976L364.246,1148.628C376.484,1149.567,382.806,1150.029,384.773,1148.1680000000001C386.365,1146.661,387.12,1144.362,386.73,1142.204C386.249,1139.54,380.882,1136.166,370.468,1129.671L328.75,1103.651C324.498,1100.999,322.315,1099.622,321.53499999999997,1097.869C320.874,1096.386,320.798,1094.689,321.322,1093.152C321.942,1091.336,323.991,1089.768,327.98699999999997,1086.744L361.05,1061.724C373.8,1052.076,380.349,1047.092,380.482,1044.25C380.589,1041.968,379.439,1039.69,377.539,1038.421C375.173,1036.841,367.275,1039.151,351.941,1043.682L306.35,1057.153C302.329,1058.341,300.26300000000003,1058.941,298.597,1058.526C297.175,1058.17,295.90700000000004,1057.333,295.02099999999996,1056.164C293.98400000000004,1054.797,293.724,1052.661,293.23699999999997,1048.496L283.842,968.1947C282.58000000000004,957.4045,281.904,951.8283,279.8,950.2505C278.08799999999997,948.9665,275.77,948.5966,273.743,949.2837C271.252,950.1281,268.874,955.2169,264.31600000000003,965.078L233.106,1032.589C231.488,1036.088,230.652,1037.876,229.348,1038.838C228.229,1039.663,226.865,1040.105,225.475,1040.094C223.854,1040.0819999999999,222.128,1039.124,218.764,1037.241L157.3674,1002.8632C146.8616,996.9808,141.4237,993.9623,138.86509999999998,994.8114C136.7914,995.4997,135.1388,997.2521,134.57330000000002,999.3626C133.8756,1001.9666,137.2077,1007.2182,143.6959,1017.3611L186.99599999999998,1085.051C189.339,1088.713,190.53300000000002,1090.6,190.575,1092.357C190.612,1093.856,190.12,1095.331,189.192,1096.508C188.103,1097.8890000000001,186.01600000000002,1098.682,181.94459999999998,1100.206L130.2383,1119.565C116.938,1124.545,110.0892,1127.134,109.1235,1129.749Z" fill="url(#master_svg3_7_2327)" fill-opacity="1"/></g><g transform="matrix(0.8996340036392212,0.4366447627544403,0.4366447627544403,-0.8996340036392212,-332.14251800141756,1444.9943687749037)"><g><path d="M239.108499609375,867.7412110351562C236.390899609375,866.3176110351562,233.315899609375,865.6564110351562,230.230399609375,865.8320110351563L228.255499609375,865.9482110351562L227.963599609375,864.1221110351562L227.019099609375,858.1288110351562C226.709999609375,856.1200110351563,226.418099609375,854.1112110351562,225.988799609375,852.1522110351563L224.803899609375,846.1589110351563C224.443299609375,844.1833110351563,223.979599609375,842.1911110351563,223.550299609375,840.1989110351562L223.36139960937498,839.3024110351563L224.013999609375,838.7048110351562C226.366599609375,836.5208110351563,228.563899609375,834.1857110351563,230.590999609375,831.7154110351562C232.64569960937501,829.3538110351562,234.245199609375,826.6547110351562,235.31339960937498,823.7466110351562C236.377699609375,820.9159110351562,236.655899609375,817.8649110351563,236.120499609375,814.8978510351562C235.36489960937502,812.1585610351563,233.85369960937498,809.0208210351562,231.398099609375,808.0745310351563C230.13449960937498,807.6543110351563,228.741199609375,807.8196310351562,227.620199609375,808.5227710351562C226.373499609375,809.2826110351563,225.331599609375,810.3183010351562,224.580699609375,811.5442910351562C223.752699609375,812.8036510351562,223.170599609375,814.1991510351562,222.863399609375,815.6615110351562C222.684699609375,816.4121110351563,222.547099609375,817.1713110351562,222.45129960937498,817.9360110351563C222.348299609375,818.6996110351563,222.279599609375,819.4633110351563,222.228099609375,820.2436110351563C222.151199609375,826.6087110351563,222.912899609375,832.9574110351563,224.494799609375,839.1364110351562L224.632199609375,839.7175110351562L224.202899609375,840.0993110351562C220.905799609375,843.1042110351563,217.557199609375,846.0594110351562,214.38029960937502,849.0643110351563C211.185199609375,852.0651110351563,208.255599609375,855.3194110351562,205.622389609375,858.7929110351563C203.020509609375,862.2401110351562,200.944339609375,866.0308110351563,199.457499609375,870.0489110351563C198.015419609375,874.0605110351562,197.431209609375,878.3135110351562,197.740269609375,882.5500110351562C198.049619609375,886.7887110351562,199.179689609375,890.9335110351562,201.071699609375,894.7689110351563C202.993639609375,898.5670110351563,205.740799609375,901.9194110351563,209.125499609375,904.5972110351563C212.531199609375,907.2193110351562,216.585899609375,908.9363110351562,220.888599609375,909.5773110351563C225.190299609375,910.2113110351563,229.586799609375,909.8233110351563,233.699199609375,908.4483110351563L235.124499609375,908.0003110351563L235.124499609375,909.4453110351562Q235.502299609375,917.1813110351562,235.62249960937498,924.9673110351563C235.62249960937498,930.1473110351562,235.62249960937498,935.3273110351563,235.296199609375,940.5733110351563L234.84079960937498,941.6733110351563L232.857699609375,941.3373110351563C229.783899609375,938.2493110351562,224.391699609375,937.4683110351563,220.06429960937498,938.7803110351563C217.991299609375,939.3133110351563,216.171799609375,940.5213110351563,214.912599609375,942.2003110351562C213.862499609375,943.6323110351562,213.862499609375,945.5493110351563,214.912599609375,946.9813110351563C216.156699609375,948.5333110351562,217.915099609375,949.6233110351562,219.892599609375,950.0693110351563C221.983699609375,950.5923110351563,224.173299609375,950.6263110351563,226.280699609375,950.1693110351563C228.246099609375,949.8143110351563,230.047499609375,948.8733110351562,231.432399609375,947.4793110351562C232.526799609375,946.4763110351562,232.86829960937501,944.9253110351563,232.290999609375,943.5783110351563L232.084999609375,942.9803110351563L232.187999609375,942.1333110351562C232.71249960937502,936.7203110351562,232.918899609375,931.2833110351562,232.806199609375,925.8473110351563C232.806199609375,920.3023110351562,232.600099609375,914.7413110351563,232.32539960937498,909.2453110351562L232.222299609375,907.0543110351563L234.334499609375,906.2573110351562C238.315799609375,904.7824110351562,241.856099609375,902.3751110351562,244.63789960937498,899.2514110351563C246.00609960937498,897.6852110351563,247.160399609375,895.9555110351563,248.072399609375,894.1049110351562C248.994499609375,892.3017110351562,249.614699609375,890.3684110351562,249.909899609375,888.3772110351563C250.253199609375,886.3710110351562,250.253199609375,884.3239110351562,249.909899609375,882.3176110351562C249.570499609375,880.2437110351563,248.886199609375,878.2366110351562,247.883499609375,876.3742110351562C246.909399609375,874.5537110351563,245.671999609375,872.8767110351563,244.208599609375,871.3937110351562C242.689099609375,869.9567110351562,240.973099609375,868.7278110351563,239.108499609375,867.7412110351562ZM241.220599609375,863.7734110351563C243.55579960937501,864.9263110351562,245.711999609375,866.3905110351562,247.62589960937498,868.1231110351563C249.514199609375,869.8948110351563,251.122699609375,871.9253110351563,252.399799609375,874.1495110351563C253.683799609375,876.3879110351562,254.593699609375,878.8084110351563,255.095899609375,881.3215110351563C255.653199609375,883.8358110351562,255.77499960937502,886.4221110351563,255.456499609375,888.9749110351563C255.182899609375,891.5534110351563,254.475199609375,894.0713110351562,253.36149960937502,896.4291110351562C252.295999609375,898.7571110351563,250.909699609375,900.9351110351563,249.240099609375,902.9038110351562C245.910399609375,906.8913110351563,241.575799609375,909.9843110351562,236.652799609375,911.8853110351563L238.66199960937502,908.8973110351562C238.936699609375,914.5253110351563,239.125599609375,920.1533110351562,239.142799609375,925.8303110351562C239.142799609375,928.6533110351562,239.142799609375,931.4923110351563,238.91959960937498,934.3473110351563C238.805599609375,937.2493110351562,238.524599609375,940.1423110351562,238.078099609375,943.0133110351562L237.906399609375,941.5523110351562C238.580099609375,943.2543110351562,238.693999609375,945.1153110351563,238.232699609375,946.8823110351562C237.78699960937502,948.5533110351562,236.885599609375,950.0783110351563,235.62249960937498,951.2983110351563C233.359899609375,953.4123110351562,230.461899609375,954.7783110351563,227.345399609375,955.1993110351563C224.416099609375,955.6723110351562,221.41189960937498,955.4563110351562,218.58749960937502,954.5683110351563C215.597199609375,953.6843110351563,213.025099609375,951.8093110351563,211.323599609375,949.2723110351562C210.435499609375,947.8673110351563,210.010299609375,946.2343110351562,210.104399609375,944.5913110351562C210.216399609375,942.9773110351563,210.813199609375,941.4313110351562,211.821599609375,940.1413110351563C213.673199609375,937.8453110351562,216.297699609375,936.2473110351563,219.240099609375,935.6263110351563C221.987499609375,934.9783110351563,224.855599609375,934.9783110351563,227.602999609375,935.6263110351563C230.435499609375,936.1953110351562,233.005099609375,937.6263110351563,234.935599609375,939.7103110351562L232.479899609375,940.4733110351563C232.99509960937502,935.4933110351562,233.132499609375,930.2633110351562,233.149699609375,925.1333110351562C233.166799609375,920.0033110351562,233.029499609375,914.8403110351562,232.823399609375,909.6773110351562L234.317399609375,910.6733110351563C229.849999609375,912.1093110351562,225.089599609375,912.4793110351562,220.442099609375,911.7523110351563C215.803399609375,910.9943110351562,211.448099609375,909.0833110351563,207.803299609375,906.2073110351563C204.187259609375,903.3542110351563,201.257319609375,899.7738110351563,199.217109609375,895.7152110351562C197.243499609375,891.6565110351562,196.078361609375,887.2748110351563,195.782633009375,882.7991110351562C195.490957609375,878.2932110351562,196.139179609375,873.7766110351563,197.688769609375,869.5177110351563C199.202689609375,865.3327110351563,201.330919609375,861.3798110351563,204.008179609375,857.7802110351563C206.695599609375,854.2324110351562,209.676199609375,850.9011110351562,212.920599609375,847.8191110351562C216.148999609375,844.6980110351562,219.446099609375,841.7761110351562,222.691699609375,838.7712110351563L222.382599609375,839.7341110351563C220.707199609375,833.3821110351563,219.881899609375,826.8485110351562,219.926899609375,820.2934110351563C219.926899609375,819.4633110351563,220.029999609375,818.6332110351563,220.150199609375,817.8031110351562C220.247099609375,816.9717110351562,220.390399609375,816.1460110351562,220.579499609375,815.3294910351563C220.929499609375,813.6115310351563,221.598499609375,811.9690910351562,222.554299609375,810.4817810351562C223.515999609375,808.9301510351562,224.838999609375,807.6169810351563,226.418099609375,806.6467750351562C228.168399609375,805.6018723351563,230.31099960937502,805.3703650351563,232.256699609375,806.0159080351563C234.054399609375,806.7537610351562,235.550999609375,808.0430810351562,236.515399609375,809.6849010351563L237.219499609375,810.8304210351563C237.408399609375,811.2122610351563,237.562899609375,811.6107010351562,237.75179960937498,812.0091410351563C238.134199609375,812.8085510351563,238.433299609375,813.6427510351563,238.644799609375,814.4994110351563C239.315699609375,817.8619110351563,239.067099609375,821.3355110351563,237.923599609375,824.5767110351562C237.39229960937502,826.2103110351562,236.696399609375,827.7895110351562,235.845699609375,829.2916110351563C234.987399609375,830.7405110351563,234.047199609375,832.1427110351563,233.029399609375,833.4918110351563C231.006999609375,836.1473110351562,228.791899609375,838.6605110351562,226.400899609375,841.0124110351562L226.933299609375,839.5182110351562C227.431299609375,841.4773110351563,227.946399609375,843.4197110351563,228.410099609375,845.4285110351562L229.818199609375,851.4217110351562C230.796999609375,855.4061110351563,231.432399609375,859.3905110351562,232.239499609375,863.3750110351563L229.98989960937502,861.7148110351562C233.850699609375,861.3503110351562,237.740099609375,862.0345110351562,241.220599609375,863.6904110351562L241.220599609375,863.7734110351563Z" fill="url(#master_svg4_7_9465)" fill-opacity="1"/><path d="M241.717299609375,863.3455110351563Q245.17829960937502,865.0916110351562,248.031799609375,867.6748110351563Q250.953199609375,870.4158110351563,252.924299609375,873.8484110351562Q254.911499609375,877.3129110351563,255.688899609375,881.2030110351562Q256.550599609375,885.0902110351562,256.056599609375,889.0498110351563Q255.633899609375,893.0343110351563,253.908299609375,896.6874110351563Q252.271099609375,900.2647110351562,249.70129960937498,903.2949110351562Q245.398099609375,908.4483110351563,239.381499609375,911.3603110351562Q239.727699609375,919.2793110351563,239.74749960937498,925.8293110351563Q239.74759960937502,931.5043110351562,239.523399609375,934.3833110351562Q239.366499609375,938.3613110351563,238.796399609375,942.3023110351562Q239.445299609375,944.6323110351562,238.81779960937502,947.0343110351562Q238.092899609375,949.7533110351562,236.042599609375,951.7333110351562Q232.415599609375,955.1223110351563,227.433699609375,955.7973110351562Q222.837799609375,956.5383110351563,218.406199609375,955.1453110351563Q216.073099609375,954.4553110351562,214.115999609375,953.0283110351563Q212.157099609375,951.6003110351562,210.821399609375,949.6093110351562Q210.816799609375,949.6023110351563,210.812399609375,949.5953110351562Q209.345099609375,947.2743110351562,209.500599609375,944.5563110351562Q209.685599609375,941.8913110351563,211.345199609375,939.7693110351563Q214.348899609375,936.0433110351562,219.108099609375,935.0353110351563Q223.420099609375,934.0213110351563,227.73219960937502,935.0353110351563Q230.058599609375,935.5043110351562,232.006799609375,936.6103110351562Q232.313199609375,931.2423110351563,232.201599609375,925.8603110351562Q232.201499609375,919.8783110351562,231.849299609375,911.9773110351563Q226.190299609375,913.2643110351562,220.34859960937501,912.3503110351562Q213.112699609375,911.1673110351562,207.428699609375,906.6823110351562Q201.834139609375,902.2676110351563,198.676799609375,895.9868110351563Q195.634580609375,889.7306110351562,195.179217609375,882.8389110351562Q194.728990609375,875.8837110351562,197.120479609375,869.3109110351562Q199.433059609375,862.9181110351562,203.522939609375,857.4193110351563Q207.593699609375,852.0453110351563,212.504099609375,847.3807110351563Q214.663999609375,845.2925110351563,219.041299609375,841.2980110351563Q220.578599609375,839.8951110351562,221.565999609375,838.9869110351563Q219.256999609375,829.7783110351562,219.322199609375,820.2893110351563Q219.322199609375,819.3037110351562,219.550499609375,817.7248110351562Q219.699399609375,816.4514110351563,219.988499609375,815.2008810351563Q220.540999609375,812.4961110351562,222.045599609375,810.1548610351563Q223.578099609375,807.6819110351563,226.101499609375,806.1315260351563Q227.534399609375,805.2760720351563,229.199099609375,805.0961930351563Q230.863099609375,804.9164010351562,232.44709960937502,805.4419410351562Q232.466999609375,805.4485260351563,232.486299609375,805.4564660351563Q235.446599609375,806.6714810351563,237.036799609375,809.3785910351562L237.734699609375,810.5137610351562Q237.749199609375,810.5374010351562,237.761499609375,810.5622710351563Q237.871499609375,810.7846010351562,238.064699609375,811.2286610351563Q238.216999609375,811.5786210351563,238.298299609375,811.7500910351563Q238.89899960937498,813.0061110351562,239.231899609375,814.3544510351562Q239.235199609375,814.3677010351563,239.237799609375,814.3810810351563Q240.293399609375,819.6715110351563,238.496299609375,824.7708110351563Q237.679199609375,827.2812110351563,236.371899609375,829.5896110351563Q235.060399609375,831.8039110351563,233.512199609375,833.8560110351563Q230.863799609375,837.3334110351562,227.799799609375,840.4660110351563Q227.835499609375,840.6052110351562,227.87679960937498,840.7659110351563Q228.644499609375,843.7553110351563,228.999299609375,845.2925110351563L230.406899609375,851.2834110351563Q231.061999609375,853.9497110351563,232.064999609375,859.2791110351562Q232.243999609375,860.2304110351563,232.393399609375,861.0112110351563Q237.125799609375,861.0726110351562,241.480399609375,863.1443110351563Q241.625599609375,863.2134110351562,241.717299609375,863.3455110351563ZM232.627999609375,862.2257110351562Q236.839199609375,862.3316110351562,240.731499609375,864.1290110351563Q240.819199609375,864.2496110351562,240.952899609375,864.3157110351563Q244.397499609375,866.0163110351563,247.22009960937498,868.5714110351563Q249.99419960937502,871.1744110351563,251.875399609375,874.4506110351563Q253.764199609375,877.7434110351562,254.502899609375,881.4400110351562Q255.324599609375,885.1479110351563,254.856399609375,888.9000110351562Q254.452699609375,892.7029110351563,252.814699609375,896.1708110351562Q251.24079960937502,899.6097110351562,248.778899609375,902.5127110351563Q244.807399609375,907.2693110351563,239.321899609375,910.0403110351563Q239.294799609375,909.4573110351563,239.265999609375,908.8673110351563Q239.258999609375,908.7243110351562,239.188599609375,908.5993110351562Q239.11819960937498,908.4753110351562,238.999399609375,908.3953110351563Q238.949999609375,908.3623110351563,238.894999609375,908.3393110351562Q238.840099609375,908.3163110351562,238.781699609375,908.3043110351563Q238.723299609375,908.2923110351562,238.663699609375,908.2923110351562Q238.604199609375,908.2923110351562,238.545699609375,908.3033110351563Q238.487299609375,908.3153110351562,238.432199609375,908.3373110351563Q238.377099609375,908.3603110351562,238.327499609375,908.3933110351562Q238.277799609375,908.4263110351562,238.23559960937502,908.4683110351563Q238.193399609375,908.5103110351563,238.160099609375,908.5593110351563L236.150999609375,911.5483110351563Q236.110299609375,911.6083110351562,236.085099609375,911.6773110351562Q236.05999960937498,911.7453110351562,236.051799609375,911.8183110351563Q236.04369960937498,911.8903110351563,236.053099609375,911.9623110351563Q236.062399609375,912.0353110351563,236.088699609375,912.1033110351563Q236.110099609375,912.1583110351562,236.141999609375,912.2093110351562Q236.17389960937498,912.2593110351562,236.214999609375,912.3023110351562Q236.25609960937498,912.3453110351562,236.304799609375,912.3803110351563Q236.353499609375,912.4143110351563,236.407899609375,912.4383110351563Q236.46239960937498,912.4623110351563,236.520499609375,912.4753110351562Q236.578599609375,912.4883110351562,236.638199609375,912.4903110351563Q236.697699609375,912.4913110351563,236.756399609375,912.4813110351563Q236.815099609375,912.4713110351563,236.870599609375,912.4493110351563Q237.541999609375,912.1903110351562,238.194399609375,911.9063110351562Q238.518899609375,919.5113110351563,238.538099609375,925.8323110351563Q238.538099609375,931.4683110351563,238.316699609375,934.3003110351563Q238.315799609375,934.3123110351562,238.31529960937502,934.3233110351563Q238.184299609375,937.6583110351562,237.758299609375,940.9663110351562Q237.705399609375,940.9793110351562,237.655699609375,941.0023110351563Q237.605999609375,941.0253110351563,237.561199609375,941.0563110351562Q237.51639960937501,941.0873110351563,237.47789960937502,941.1263110351563Q237.43939960937502,941.1643110351563,237.408399609375,941.2093110351562Q237.377399609375,941.2543110351562,237.354999609375,941.3043110351563Q237.332599609375,941.3543110351562,237.319499609375,941.4073110351562Q237.306299609375,941.4603110351562,237.302899609375,941.5143110351562Q237.299399609375,941.5693110351563,237.30579960937501,941.6233110351562L237.477499609375,943.0843110351562Q237.486699609375,943.1623110351562,237.515499609375,943.2353110351562Q237.544299609375,943.3083110351563,237.59079960937498,943.3713110351563Q237.637299609375,943.4353110351562,237.698399609375,943.4843110351562Q237.75949960937498,943.5333110351562,237.831199609375,943.5653110351562Q238.065499609375,945.1283110351562,237.647599609375,946.7293110351562Q237.010899609375,949.1163110351563,235.202399609375,950.8633110351562Q231.868899609375,953.9783110351563,227.264399609375,954.6003110351562Q227.256699609375,954.6013110351562,227.248999609375,954.6023110351563Q222.931299609375,955.2993110351563,218.768799609375,953.9913110351563Q214.342799609375,952.6823110351563,211.830499609375,948.9423110351563Q210.574999609375,946.9523110351563,210.708099609375,944.6253110351563Q210.866499609375,942.3453110351562,212.297999609375,940.5143110351562Q215.022399609375,937.1353110351563,219.365099609375,936.2173110351563Q219.371899609375,936.2163110351562,219.378799609375,936.2143110351562Q223.421499609375,935.2613110351563,227.464299609375,936.2143110351562Q227.473999609375,936.2163110351562,227.483799609375,936.2183110351563Q229.932499609375,936.7113110351563,231.922299609375,937.9713110351563Q231.865199609375,938.8243110351563,231.797499609375,939.6773110351562Q229.798699609375,938.3203110351562,227.040199609375,937.8143110351563Q223.388599609375,937.1433110351562,219.900899609375,938.1983110351563Q216.499199609375,939.0773110351563,214.428799609375,941.8373110351563Q213.520299609375,943.0763110351562,213.520299609375,944.5903110351562Q213.520299609375,946.1053110351563,214.424899609375,947.3393110351562Q214.432699609375,947.3493110351562,214.440799609375,947.3593110351562Q216.49409960937498,949.9203110351563,219.752199609375,950.6573110351562Q223.062399609375,951.4833110351562,226.398399609375,950.7623110351562Q229.594299609375,950.1823110351563,231.851699609375,947.9153110351563Q232.804199609375,947.0373110351562,233.079199609375,945.7873110351562Q233.353899609375,944.5393110351563,232.855799609375,943.3613110351563L232.702099609375,942.9153110351563L232.788299609375,942.2073110351562Q232.789199609375,942.1993110351563,232.789899609375,942.1923110351563Q232.801999609375,942.0673110351563,232.813799609375,941.9423110351563L234.739699609375,942.2693110351563Q234.789999609375,942.2783110351563,234.840999609375,942.2783110351563Q234.891999609375,942.2783110351563,234.942199609375,942.2693110351563Q234.992499609375,942.2603110351563,235.040699609375,942.2443110351562Q235.088799609375,942.2273110351563,235.133399609375,942.2023110351563Q235.178099609375,942.1773110351562,235.217899609375,942.1463110351563Q235.257799609375,942.1143110351562,235.291799609375,942.0763110351562Q235.325799609375,942.0383110351563,235.35289960937502,941.9943110351562Q235.379999609375,941.9513110351562,235.399499609375,941.9043110351563L235.854899609375,940.8043110351563Q235.893499609375,940.7113110351563,235.899799609375,940.6103110351562Q236.227199609375,935.3453110351562,236.227099609375,924.9583110351563Q236.106899609375,917.1693110351563,235.729199609375,909.4303110351563L235.729199609375,908.0003110351563Q235.729199609375,907.9073110351562,235.70129960937498,907.8193110351563Q235.66529960937498,907.7043110351563,235.587999609375,907.6123110351563Q235.510799609375,907.5203110351563,235.404099609375,907.4643110351562Q235.297399609375,907.4083110351562,235.177599609375,907.3983110351562Q235.057799609375,907.3873110351562,234.943099609375,907.4233110351563L233.507399609375,907.8753110351563Q233.192099609375,907.9803110351562,232.87589960937498,908.0783110351563L232.846999609375,907.4653110351562L234.54799960937498,906.8233110351563Q240.751399609375,904.5250110351562,245.089599609375,899.6536110351562Q247.206199609375,897.2307110351562,248.61489960937502,894.3722110351563Q250.046399609375,891.5729110351563,250.506999609375,888.4726110351562Q251.041399609375,885.3441110351563,250.505899609375,882.2156110351563Q249.977999609375,878.9888110351562,248.415999609375,876.0875110351562Q246.906799609375,873.2671110351563,244.639099609375,870.9689110351562Q244.631699609375,870.9615110351563,244.624099609375,870.9543110351563Q242.274199609375,868.7320110351562,239.39129960937498,867.2067110351562Q235.083399609375,864.9501110351563,230.195999609375,865.2283110351563L228.76629960937498,865.3124110351563L228.560699609375,864.0266110351563L227.616499609375,858.0347110351563Q227.584399609375,857.8260110351563,227.519099609375,857.3996110351562Q226.967499609375,853.7933110351562,226.579499609375,852.0227110351562L225.397099609375,846.0417110351563Q225.128899609375,844.5715110351563,224.476299609375,841.6043110351562Q224.380399609375,841.1681110351562,224.305099609375,840.8239110351562Q224.465099609375,840.6785110351562,224.604799609375,840.5512110351563L225.034099609375,840.1693110351563Q225.09519960937502,840.1150110351563,225.139699609375,840.0463110351562Q225.184199609375,839.9776110351562,225.208799609375,839.8996110351562Q225.233499609375,839.8215110351563,225.236499609375,839.7398110351562Q225.239499609375,839.6580110351563,225.220699609375,839.5783110351563L225.08059960937499,838.9864110351563Q225.033799609375,838.8033110351563,224.987899609375,838.6201110351562Q228.229999609375,835.5451110351562,231.053099609375,832.1056110351562Q234.228999609375,828.4529110351563,235.880999609375,823.9551110351563Q237.562399609375,819.4830110351562,236.715599609375,814.7904510351563Q236.710699609375,814.7634710351563,236.703399609375,814.7370510351562Q236.024099609375,812.2742410351563,234.909399609375,810.4930110351562Q233.496399609375,808.2350410351562,231.615499609375,807.5102410351562Q231.602299609375,807.5051610351562,231.588899609375,807.5006910351563Q230.513199609375,807.1429410351562,229.384399609375,807.2768710351562Q228.254699609375,807.4109110351562,227.298799609375,808.0104810351562Q225.287999609375,809.2359610351563,224.070099609375,811.2201510351563Q222.761099609375,813.2141710351563,222.273299609375,815.5292710351563Q221.998699609375,816.6842110351563,221.851299609375,817.8608110351563Q221.710399609375,818.9044110351563,221.624599609375,820.2038110351563Q221.623599609375,820.2200110351563,221.62339960937499,820.2363110351563Q221.513199609375,829.3551110351563,223.644899609375,838.2223110351563Q223.624999609375,838.2408110351563,223.605499609375,838.2588110351562L223.262899609375,838.5726110351562Q223.221399609375,838.4531110351562,223.13539960937499,838.3603110351562Q223.053699609375,838.2721110351563,222.944399609375,838.2218110351563Q222.835199609375,838.1715110351563,222.714999609375,838.1669110351562Q222.662499609375,838.1649110351563,222.610499609375,838.1719110351562Q220.469299609375,829.3647110351562,220.531699609375,820.2976110351563Q220.531699609375,819.3883110351562,220.748699609375,817.8898110351563Q220.749899609375,817.8815110351562,220.750799609375,817.8732110351563Q220.892499609375,816.6586110351562,221.168599609375,815.4659110351563Q221.170399609375,815.4580810351563,221.171999609375,815.4502110351563Q221.678699609375,812.9628610351563,223.062999609375,810.8087110351562Q224.455299609375,808.5624810351562,226.734699609375,807.1620210351563Q227.927199609375,806.4501250351562,229.329099609375,806.2986560351562Q230.721299609375,806.1482220351562,232.046499609375,806.5833540351563Q234.615399609375,807.6444610351563,235.993999609375,809.9912010351562L236.68929960937498,811.1226410351562Q236.785099609375,811.3191610351563,236.95569960937502,811.7111810351563Q237.11569960937499,812.0790910351562,237.205399609375,812.2682010351563Q237.751499609375,813.4100910351563,238.054399609375,814.6312310351562Q239.040799609375,819.5926110351562,237.353299609375,824.3755110351563Q237.350799609375,824.3825110351562,237.34849960937498,824.3896110351562Q236.568499609375,826.7881110351562,235.319499609375,828.9936110351563Q234.054199609375,831.1294110351563,232.546699609375,833.1276110351563Q230.149499609375,836.2751110351562,227.402999609375,839.1374110351562Q227.296099609375,839.0056110351562,227.136199609375,838.9486110351562Q227.080099609375,838.9286110351562,227.021199609375,838.9199110351562Q226.962299609375,838.9113110351562,226.902799609375,838.9143110351563Q226.843299609375,838.9173110351562,226.785499609375,838.9318110351562Q226.727799609375,838.9464110351563,226.673999609375,838.9719110351563Q226.620199609375,838.9975110351562,226.572399609375,839.0330110351563Q226.524599609375,839.0686110351562,226.484599609375,839.1127110351563Q226.444699609375,839.1569110351562,226.414099609375,839.2081110351562Q226.383599609375,839.2592110351562,226.363599609375,839.3153110351562L225.831299609375,840.8095110351562Q225.802699609375,840.8897110351562,225.797399609375,840.9747110351562Q225.792099609375,841.0597110351563,225.810399609375,841.1429110351562Q225.828799609375,841.2260110351563,225.869399609375,841.3009110351562Q225.910099609375,841.3758110351563,225.969799609375,841.4365110351563Q226.054199609375,841.5222110351563,226.164899609375,841.5692110351563Q226.275599609375,841.6161110351562,226.395899609375,841.6171110351562Q226.50959960937502,841.6181110351563,226.615899609375,841.5776110351562Q226.722099609375,841.5372110351562,226.806399609375,841.4610110351563Q227.492899609375,844.1438110351562,227.820799609375,845.5645110351562L229.229499609375,851.5600110351562Q229.879499609375,854.2059110351563,230.876399609375,859.5028110351562Q231.032099609375,860.3304110351562,231.16539960937502,861.0289110351563Q230.55239960937502,861.0543110351563,229.933099609375,861.1128110351563Q229.804599609375,861.1249110351563,229.692299609375,861.1884110351563Q229.579999609375,861.2519110351562,229.503399609375,861.3557110351562Q229.467999609375,861.4036110351562,229.442599609375,861.4575110351562Q229.417299609375,861.5114110351562,229.402999609375,861.5692110351563Q229.388599609375,861.6271110351563,229.385899609375,861.6866110351563Q229.383099609375,861.7461110351562,229.391999609375,861.8049110351562Q229.40079960937499,861.8638110351562,229.420999609375,861.9199110351562Q229.441199609375,861.9759110351563,229.471999609375,862.0269110351562Q229.502699609375,862.0779110351563,229.542799609375,862.1220110351562Q229.582899609375,862.1660110351562,229.630799609375,862.2014110351563L231.880399609375,863.8615110351562Q231.983599609375,863.9377110351562,232.108699609375,863.9654110351562Q232.233899609375,863.9931110351563,232.359599609375,863.9677110351563Q232.417899609375,863.9558110351562,232.472899609375,863.9329110351563Q232.527799609375,863.9099110351563,232.577199609375,863.8766110351562Q232.626599609375,863.8433110351563,232.668599609375,863.8011110351563Q232.710599609375,863.7588110351562,232.743499609375,863.7092110351563Q232.776399609375,863.6595110351562,232.79899960937502,863.6044110351562Q232.821599609375,863.5493110351563,232.832999609375,863.4909110351563Q232.844399609375,863.4324110351563,232.844199609375,863.3728110351562Q232.843999609375,863.3133110351563,232.832199609375,863.2549110351563Q232.742999609375,862.8143110351563,232.627999609375,862.2257110351562ZM222.016499609375,840.2154110351562Q221.122099609375,841.0365110351563,219.856599609375,842.1913110351562Q215.492199609375,846.1742110351563,213.337099609375,848.2576110351563Q208.498199609375,852.8542110351563,204.493409609375,858.1411110351562Q200.509819609375,863.4970110351562,198.257049609375,869.7244110351562Q195.952319609375,876.0588110351563,196.386048609375,882.7592110351562Q196.825809609375,889.4147110351562,199.757409609375,895.4436110351562Q202.794139609375,901.4845110351563,208.177899609375,905.7323110351563Q213.616399609375,910.0233110351562,220.535599609375,911.1553110351563Q226.255699609375,912.0503110351563,231.792899609375,910.7483110351562Q231.76729960937502,910.2043110351563,231.739999609375,909.6513110351563Q226.372099609375,910.9963110351563,220.799399609375,910.1753110351563Q214.078199609375,909.1733110351563,208.750299609375,905.0714110351562Q203.509069609375,900.9250110351562,200.529369609375,895.0364110351562Q197.613889609375,889.1263110351563,197.137139609375,882.5940110351562Q196.659379609375,876.0452110351563,198.890349609375,869.8390110351562Q201.163029609375,863.6973110351562,205.140479609375,858.4276110351562Q209.128099609375,853.1675110351563,213.964699609375,848.6249110351563Q216.130099609375,846.5768110351562,220.625299609375,842.5219110351562Q222.034799609375,841.2504110351563,222.974699609375,840.3983110351562Q222.966499609375,840.3604110351563,222.959199609375,840.3263110351562L222.900199609375,840.0467110351562Q222.811599609375,840.1935110351562,222.658999609375,840.2719110351562Q222.551999609375,840.3269110351563,222.432199609375,840.3368110351563Q222.312299609375,840.3466110351562,222.197799609375,840.3099110351562Q222.098999609375,840.2782110351562,222.016499609375,840.2154110351562ZM223.272299609375,841.7606110351562Q222.485499609375,842.4727110351563,221.435399609375,843.4200110351562Q216.950899609375,847.4652110351562,214.795799609375,849.5036110351563Q210.030399609375,853.9793110351562,206.104299609375,859.1582110351562Q202.235589609375,864.2839110351563,200.024649609375,870.2588110351562Q197.884299609375,876.2129110351563,198.343399609375,882.5060110351562Q198.802969609375,888.8029110351563,201.614039609375,894.5014110351563Q204.468119609375,900.1415110351562,209.500699609375,904.1229110351562Q214.567199609375,908.0233110351562,220.977799609375,908.9793110351562Q226.431399609375,909.7823110351562,231.680999609375,908.4173110351562L231.61829960937501,907.0823110351563Q231.613799609375,906.9873110351563,231.639099609375,906.8943110351563Q231.664399609375,906.8023110351562,231.716999609375,906.7223110351563Q231.769599609375,906.6423110351562,231.844399609375,906.5823110351563Q231.919199609375,906.5223110351562,232.008899609375,906.4883110351562L234.121099609375,905.6913110351562Q240.048599609375,903.4956110351562,244.186299609375,898.8492110351563Q246.191199609375,896.5542110351563,247.529999609375,893.8375110351562Q248.880599609375,891.1960110351563,249.311699609375,888.2886110351562Q249.312599609375,888.2819110351562,249.313799609375,888.2752110351562Q249.814899609375,885.3474110351563,249.313799609375,882.4196110351562Q248.817099609375,879.3839110351562,247.350999609375,876.6608110351563Q245.925399609375,873.9966110351562,243.785499609375,871.8258110351562Q241.558199609375,869.7215110351563,238.825599609375,868.2758110351563Q234.818399609375,866.1766110351563,230.264699609375,866.4358110351562L228.291099609375,866.5519110351563Q228.235399609375,866.5552110351563,228.180099609375,866.5482110351562Q228.124699609375,866.5413110351562,228.071599609375,866.5243110351563Q228.018499609375,866.5074110351562,227.969399609375,866.4810110351563Q227.920299609375,866.4546110351563,227.87679960937498,866.4197110351563Q227.833299609375,866.3848110351562,227.796999609375,866.3425110351562Q227.760599609375,866.3002110351563,227.732599609375,866.2520110351562Q227.704599609375,866.2038110351563,227.68589960937499,866.1513110351563Q227.667199609375,866.0988110351562,227.658399609375,866.0437110351562L227.366399609375,864.2175110351562L226.421699609375,858.2230110351562Q226.388699609375,858.0079110351562,226.323599609375,857.5825110351562Q225.777799609375,854.0144110351563,225.398099609375,852.2816110351563L224.210599609375,846.2762110351563Q223.942999609375,844.8101110351563,223.295099609375,841.8640110351563Q223.281999609375,841.8044110351562,223.272299609375,841.7606110351562ZM233.41099960937498,940.8173110351563L234.466499609375,940.9963110351563L234.698799609375,940.4353110351562Q234.699399609375,940.4263110351562,234.699999609375,940.4163110351562L233.41099960937498,940.8173110351563ZM234.789899609375,938.6973110351562Q234.101499609375,938.0333110351562,233.347599609375,937.4793110351562Q233.730799609375,932.1853110351562,233.754399609375,925.1353110351563Q233.774499609375,919.1453110351563,233.499999609375,911.5533110351563Q234.00189960937502,911.4103110351563,234.502499609375,911.2493110351562Q234.553999609375,911.2323110351563,234.601799609375,911.2073110351563Q234.911199609375,918.0723110351562,235.017799609375,924.9773110351563Q235.017699609375,933.6253110351563,234.789899609375,938.6973110351562ZM234.550699609375,910.1023110351563Q234.535799609375,909.7873110351562,234.520499609375,909.4743110351562Q234.519699609375,909.4593110351562,234.519699609375,909.4453110351562L234.519699609375,908.8243110351563L233.890899609375,909.0223110351562Q233.567399609375,909.1303110351563,233.243399609375,909.2303110351562L234.550699609375,910.1023110351563ZM233.170899609375,939.6253110351563L233.80329960937502,939.4283110351562Q233.524299609375,939.1673110351562,233.233399609375,938.9263110351562Q233.202999609375,939.2803110351563,233.170899609375,939.6253110351563ZM224.660599609375,837.2590110351563Q227.565099609375,834.4496110351563,230.12349960937502,831.3318110351563Q230.128999609375,831.3251110351563,230.134799609375,831.3185110351562Q233.168899609375,827.8312110351562,234.745699609375,823.5381110351562Q236.308199609375,819.3824110351562,235.53019960937502,815.0321910351563Q234.899299609375,812.7566710351563,233.884199609375,811.1346110351562Q232.690399609375,809.2269310351562,231.193799609375,808.6438910351562Q229.469899609375,808.0763610351562,227.941499609375,809.0350710351563Q226.162599609375,810.1192910351563,225.096399609375,811.8601510351563Q225.091299609375,811.8684210351563,225.085999609375,811.8765210351562Q223.896399609375,813.6858510351562,223.455299609375,815.7858110351563Q223.453599609375,815.7938110351563,223.451699609375,815.8016110351563Q223.190999609375,816.8962110351563,223.051299609375,818.0112110351563Q222.91539960937502,819.0187110351562,222.832499609375,820.2672110351563Q222.730499609375,828.8770110351562,224.660599609375,837.2590110351563ZM231.677999609375,941.0903110351562Q229.730399609375,939.5373110351562,226.82199960937498,939.0033110351562Q223.452499609375,938.3853110351563,220.239699609375,939.3593110351562Q220.227399609375,939.3623110351563,220.214899609375,939.3663110351563Q217.215799609375,940.1373110351562,215.396399609375,942.5633110351563Q214.729799609375,943.4723110351563,214.729799609375,944.5903110351562Q214.729799609375,945.7033110351563,215.392699609375,946.6133110351562Q217.181899609375,948.8383110351563,220.025699609375,949.4793110351562Q220.032399609375,949.4813110351563,220.039199609375,949.4823110351563Q223.08399960937498,950.2433110351562,226.152499609375,949.5783110351563Q226.162899609375,949.5753110351562,226.173199609375,949.5743110351563Q229.007999609375,949.0623110351562,231.003399609375,947.0533110351562Q231.013399609375,947.0433110351562,231.023799609375,947.0333110351562Q231.703699609375,946.4103110351563,231.897999609375,945.5273110351562Q232.091599609375,944.6483110351562,231.735199609375,943.8163110351562Q231.726499609375,943.7963110351562,231.719299609375,943.7753110351563L231.513199609375,943.1773110351562Q231.467799609375,943.0453110351563,231.484699609375,942.9073110351562L231.585899609375,942.0753110351562L231.587699609375,942.0603110351562Q231.634399609375,941.5763110351562,231.677999609375,941.0903110351562Z" fill-rule="evenodd" fill="url(#master_svg5_7_9465)" fill-opacity="1"/></g><g style="mix-blend-mode:luminosity"><path d="M233.80234826812745,910.3081262573243C229.33484826812744,911.5511262573242,224.62494826812744,911.7446262573242,220.06454826812745,910.8726262573242C217.79634826812745,910.4340262573243,215.59294826812743,909.7258262573242,213.50464826812743,908.7641262573243C212.45974826812744,908.2872262573242,211.45494826812745,907.7322262573242,210.49954826812746,907.1040262573242L209.05704826812743,906.2241262573242L207.70044826812745,905.2114262573242C204.09121826812745,902.4957262573242,201.24028826812744,898.9520262573242,199.40616826812743,894.9017262573242C197.65740326812744,890.8910262573243,196.74134056812744,886.5869262573242,196.71011196812745,882.2345262573242C196.67231836812743,873.5818262573242,199.58095826812743,865.1575262573242,204.98718826812745,858.2616262573242C210.31064826812744,851.4051262573242,217.21384826812744,846.2253462573242,223.32724826812745,840.4147262573242L224.86924826812745,840.9301682573242L224.90714826812743,840.9459792573242C225.83444826812743,844.6813762573242,226.62434826812745,848.5163762573242,227.46574826812744,852.3182262573242C227.91224826812743,854.2108262573242,228.20414826812743,856.1200262573242,228.56484826812743,858.0126262573242L229.62944826812745,863.7236262573242L229.80124826812744,864.7031262573242L228.77084826812745,864.8857262573242C225.58034826812744,865.4337262573242,222.60864826812744,866.8241262573242,220.18474826812744,868.9033262573242C217.76954826812744,870.9520262573242,216.03164826812744,873.6426262573242,215.18754826812744,876.6397262573242C214.44624826812745,879.6085262573242,214.78584826812744,882.7335262573242,216.14924826812745,885.4885262573242C217.52374826812743,888.1749262573242,219.80844826812745,890.3252262573242,222.62314826812744,891.5813262573242L220.06444826812745,892.2786262573243L220.75134826812743,890.9173262573242L221.54134826812745,893.3743262573242C218.28754826812744,891.8907262573242,215.64874826812743,889.3864262573243,214.05414826812745,886.2688262573242C212.43184826812745,883.0534262573242,211.98974826812744,879.3999262573242,212.80054826812744,875.9093262573242C213.72614826812745,872.4547262573242,215.67834826812745,869.3380262573243,218.41594826812744,866.9443262573242C221.17334826812743,864.5844262573243,224.54664826812746,862.9997262573243,228.16984826812745,862.3622262573242L231.27804826812743,861.8476262573242L231.84474826812743,864.8857262573242C232.48004826812743,868.4053262573242,233.08114826812744,871.9580262573243,233.56194826812745,875.5108262573242C234.04274826812744,879.0636262573242,234.50644826812743,882.6330262573242,234.90134826812744,886.2190262573242C235.29634826812745,889.8050262573242,235.60544826812745,893.3909262573242,235.67414826812745,897.0101262573243L236.10344826812744,907.8179262573242L236.10344826812744,909.5776262573243L234.38624826812745,910.0425262573242L233.80234826812745,910.3081262573243ZM232.41144826812746,906.0581262573243L233.13264826812744,905.7924262573242L231.56994826812743,908.0337262573242L230.57394826812742,897.4583262573242C230.29924826812743,893.9388262573242,229.71534826812746,890.4358262573243,229.16584826812743,886.9328262573242C228.61634826812744,883.4299262573243,228.03244826812744,879.9269262573242,227.44864826812744,876.4405262573242L225.73134826812745,865.8984262573242L229.38914826812743,868.4219262573242C226.86614826812743,868.7916262573242,224.49314826812744,869.8125262573242,222.52014826812746,871.3770262573242C220.54084826812743,872.9265262573242,219.03824826812743,874.9705262573242,218.17554826812744,877.2872262573242C217.39624826812744,879.6351262573243,217.46274826812743,882.1691262573243,218.36444826812743,884.4758262573242C219.33224826812744,886.8614262573242,221.09724826812743,888.8658262573242,223.37874826812745,890.1702262573242L225.09604826812745,891.1663262573243L224.16874826812744,892.6438262573242L223.34444826812745,893.9388262573242L222.38274826812744,895.4661262573243L220.95744826812745,894.6526262573242C217.64564826812745,892.8238262573242,215.04564826812745,889.9953262573242,213.55624826812743,886.6008262573242C212.04844826812743,883.2761262573242,211.73414826812746,879.5594262573243,212.66324826812743,876.0421262573242C213.69824826812743,872.6217262573242,215.74564826812744,869.5689262573242,218.55334826812745,867.2597262573242C221.32074826812743,864.9677262573242,224.69104826812745,863.4621262573243,228.29004826812744,862.9101262573242L227.44864826812744,864.0556262573242L226.48694826812743,858.3446262573242C226.14354826812743,856.4354262573243,225.86874826812743,854.5096262573243,225.42224826812745,852.6502262573242C224.59804826812746,848.8816162573243,223.84244826812744,845.1296162573242,222.93234826812744,841.3444162573243L224.51214826812745,841.7926562573242C218.34724826812743,847.5866762573243,211.56424826812744,852.9324262573242,206.53271826812744,859.5233262573242C201.48920826812744,866.0930262573243,198.82742826812745,874.0873262573242,198.95970826812743,882.2677262573242C199.01014826812744,886.2809262573243,199.92849826812744,890.2394262573242,201.65576826812745,893.8890262573242C203.36955826812743,897.4940262573242,206.06428826812743,900.5813262573242,209.45204826812744,902.8207262573242C216.10564826812745,907.3974262573242,224.62964826812743,908.6020262573243,232.35994826812743,906.0580262573242L232.41144826812746,906.0581262573243Z" fill="url(#master_svg6_7_9465)" fill-opacity="1" style="mix-blend-mode:luminosity"/><path d="M234.59174826812745,910.6134262573242L236.26144826812742,910.1614262573243Q236.30924826812745,910.1484262573242,236.35424826812744,910.1279262573242Q236.39934826812743,910.1074262573243,236.44044826812745,910.0798262573242Q236.48154826812743,910.0522262573243,236.51754826812743,910.0183262573242Q236.55364826812743,909.9845262573242,236.58374826812744,909.9452262573242Q236.61374826812744,909.9059262573243,236.63704826812744,909.8622262573242Q236.66034826812745,909.8185262573243,236.67624826812744,909.7717262573242Q236.69214826812743,909.7248262573243,236.70014826812744,909.6760262573242Q236.70814826812745,909.6271262573242,236.70814826812745,909.5776262573243L236.70814826812745,907.8179262573242Q236.70814826812745,907.8058262573243,236.70774826812743,907.7939262573242L236.27874826812746,896.9986262573242Q236.19164826812744,892.4101262573242,235.50244826812744,886.1528262573243Q235.02184826812743,881.7889262573242,234.16124826812745,875.4297262573242Q233.55784826812743,870.9711262573243,232.43914826812744,864.7748262573242L231.87254826812745,861.7367262573242Q231.86174826812743,861.6789262573242,231.84004826812745,861.6243262573242Q231.81834826812744,861.5696262573242,231.78644826812746,861.5202262573242Q231.75464826812743,861.4708262573242,231.71394826812744,861.4284262573242Q231.67314826812745,861.3860262573243,231.62504826812744,861.3523262573242Q231.57684826812743,861.3186262573242,231.52314826812744,861.2948262573242Q231.46944826812745,861.2709262573242,231.41204826812745,861.2579262573242Q231.35474826812745,861.2449262573242,231.29604826812744,861.2431262573242Q231.23724826812744,861.2414262573242,231.17924826812742,861.2510262573243L229.82544826812745,861.4751262573242L229.15884826812743,857.8994262573242Q229.04674826812743,857.3110262573242,228.83514826812745,856.1271262573242Q228.36504826812745,853.4964262573242,228.05624826812743,852.1875262573242Q227.82974826812745,851.1641262573243,227.38344826812744,849.1090562573243Q226.17334826812743,843.5366662573242,225.49404826812744,840.8002792573242Q225.45944826812743,840.6610142573243,225.36604826812743,840.5521272573242Q225.27254826812745,840.4432404573242,225.14014826812743,840.3879476573243L225.10224826812743,840.3721368573242Q225.08194826812743,840.3636302573242,225.06094826812745,840.3566316573242L223.51894826812745,839.8411892573242Q223.44084826812744,839.8150852573242,223.35864826812744,839.8108102573242Q223.27644826812744,839.8065362573242,223.19604826812744,839.8244012573242Q223.11564826812744,839.8422662573242,223.04294826812745,839.8809712573242Q222.97034826812745,839.9196762573242,222.91064826812743,839.9764032573243Q221.07254826812743,841.7234262573243,217.23844826812746,845.1158762573242Q212.76904826812745,849.0704162573243,210.61654826812745,851.1631262573242Q207.01194826812744,854.6676262573242,204.51127826812746,857.8885262573242Q200.39399826812743,863.1403262573242,198.23551826812744,869.3919262573243Q196.07659226812743,875.6448262573242,196.10539626812744,882.2389262573242Q196.15358426812745,888.9550262573242,198.85528826812745,895.1511262573242Q201.71379826812745,901.4638262573242,207.33864826812743,905.6960262573242L208.69524826812744,906.7087262573242Q208.71794826812743,906.7256262573242,208.74214826812744,906.7403262573242L210.17604826812743,907.6150262573242Q211.64634826812744,908.5807262573242,213.25174826812744,909.3134262573242Q216.46264826812745,910.7920262573242,219.95094826812743,911.4665262573242Q227.02984826812744,912.8200262573242,233.96444826812746,910.8907262573242Q234.00984826812743,910.8781262573242,234.05274826812746,910.8586262573242L234.59174826812745,910.6134262573242ZM228.63204826812745,861.6728262573242L227.97074826812744,858.1258262573242Q227.85734826812745,857.5304262573242,227.64454826812744,856.3399262573242Q227.18034826812743,853.7418262573242,226.87534826812745,852.4488262573242Q226.64834826812745,851.4230262573242,226.20154826812745,849.3657162573243Q225.27134826812744,845.0826062573242,224.65714826812743,842.4854062573243Q224.34034826812746,842.7810962573242,223.96814826812744,843.1242662573242Q224.50564826812743,845.4864362573243,225.26894826812745,849.0630762573243Q225.76074826812743,851.3673262573242,226.01034826812744,852.5090262573242Q226.33614826812743,853.8659262573242,226.80464826812744,856.6322262573242Q226.98624826812744,857.7044262573243,227.08334826812745,858.2442262573243L227.68814826812743,861.8362262573243Q227.87584826812744,861.7999262573243,228.06504826812744,861.7666262573242L228.63204826812745,861.6728262573242ZM226.50574826812743,862.0981262573242L225.89064826812745,858.4450262573242Q225.79474826812745,857.9124262573242,225.61214826812744,856.8342262573242Q225.15044826812743,854.1083262573242,224.83424826812745,852.7914262573242Q224.57854826812743,851.6226262573242,224.08614826812743,849.3155262573242Q223.42944826812743,846.2384362573242,222.94094826812744,844.0655062573243Q221.68224826812744,845.2130562573242,219.97484826812743,846.7447462573242Q215.32064826812746,850.9202262573242,213.11794826812744,853.0869262573242Q209.46104826812746,856.6841262573242,207.01334826812743,859.8903262573242Q203.29170826812745,864.7381262573242,201.37905826812744,870.4825262573243Q199.46680826812744,876.2257262573243,199.56435826812745,882.2579262573242Q199.63922826812745,888.2146262573242,202.20237826812743,893.6303262573242Q204.74870826812744,898.9867262573242,209.78544826812745,902.3162262573242Q214.66784826812744,905.6743262573242,220.58684826812743,906.5108262573242Q225.77294826812744,907.2437262573242,230.76204826812744,905.9044262573242L229.97194826812745,897.5150262573242Q229.72544826812745,894.3591262573242,228.73284826812744,888.0702262573242Q228.62254826812745,887.3717262573242,228.56844826812744,887.0265262573242L228.15004826812745,884.3976262573242L226.85194826812744,876.5391262573243L225.79974826812744,870.0797262573242Q224.25804826812745,870.7707262573242,222.89584826812745,871.8508262573242Q220.00594826812744,874.1132262573242,218.74604826812745,877.4880262573242Q217.61664826812745,880.9017262573242,218.92764826812743,884.2556262573243Q220.33964826812743,887.7361262573243,223.67894826812744,889.6452262573242L225.39944826812743,890.6432262573242Q225.45094826812743,890.6731262573243,225.49564826812744,890.7124262573242Q225.54034826812745,890.7518262573242,225.57654826812745,890.7991262573242Q225.61264826812743,890.8464262573242,225.63894826812745,890.8999262573242Q225.66514826812744,890.9534262573242,225.68044826812744,891.0109262573242Q225.69574826812743,891.0685262573243,225.69954826812744,891.1279262573242Q225.70334826812746,891.1874262573242,225.69544826812745,891.2464262573242Q225.68754826812744,891.3055262573242,225.66824826812746,891.3618262573242Q225.64894826812744,891.4182262573242,225.61914826812745,891.4697262573242Q225.61384826812744,891.4788262573243,225.60824826812745,891.4877262573242L224.68094826812745,892.9653262573243L223.85454826812744,894.2635262573242L222.89454826812744,895.7883262573242Q222.86364826812743,895.8373262573242,222.82404826812746,895.8796262573242Q222.78444826812745,895.9219262573242,222.73764826812743,895.9558262573242Q222.69074826812744,895.9898262573242,222.63824826812743,896.0143262573242Q222.58574826812745,896.0387262573242,222.52954826812743,896.0528262573242Q222.47334826812744,896.0668262573242,222.41554826812745,896.0700262573242Q222.35774826812744,896.0731262573242,222.30034826812744,896.0652262573242Q222.24294826812744,896.0573262573242,222.18814826812743,896.0387262573242Q222.13334826812743,896.0200262573242,222.08304826812744,895.9913262573242L220.65774826812745,895.1778262573242Q218.09504826812744,893.7628262573243,216.12824826812744,891.6231262573242Q214.15994826812744,889.4818262573242,213.00244826812744,886.8438262573242Q211.83154826812745,884.2621262573242,211.59334826812744,881.4446262573242Q211.35494826812743,878.6268262573242,212.07854826812743,875.8876262573242Q212.08134826812744,875.8772262573242,212.08444826812743,875.8669262573242Q212.44914826812743,874.6617262573242,212.95264826812743,873.5437262573242Q214.58664826812745,869.4892262573242,218.01784826812744,866.4891262573242Q221.75934826812744,863.2869262573242,226.50574826812743,862.0981262573242ZM219.05424826812745,892.6926262573243Q220.07804826812745,893.4763262573242,221.25724826812746,894.1274262573243L222.17964826812744,894.6539262573242L222.83424826812745,893.6140262573242L223.65654826812744,892.3224262573242L224.25094826812744,891.3752262573242L223.07864826812744,890.6952262573242Q219.37614826812745,888.5785262573243,217.80124826812744,884.6959262573242Q216.32914826812743,880.9301262573242,217.60164826812743,877.0967262573242Q217.60504826812743,877.0864262573242,217.60884826812745,877.0762262573243Q218.98724826812744,873.3747262573243,222.14444826812743,870.9031262573242Q223.75674826812744,869.6247262573243,225.59904826812743,868.8474262573242L225.21944826812745,866.5172262573242Q222.69934826812744,867.5431262573243,220.57844826812743,869.3623262573242Q217.01724826812745,872.3831262573242,215.77204826812743,876.7949262573243Q214.68404826812744,881.1643262573242,216.69124826812745,885.2203262573242Q218.71454826812743,889.1747262573242,222.86964826812743,891.0291262573243Q222.92404826812745,891.0534262573242,222.97264826812744,891.0878262573242Q223.02124826812744,891.1222262573242,223.06214826812743,891.1654262573243Q223.10314826812743,891.2087262573242,223.13484826812743,891.2591262573242Q223.16664826812743,891.3095262573243,223.18794826812746,891.3651262573242Q223.20924826812745,891.4207262573242,223.21924826812744,891.4794262573242Q223.22924826812744,891.5381262573242,223.22764826812744,891.5977262573242Q223.22604826812744,891.6572262573242,223.21284826812743,891.7153262573243Q223.19964826812745,891.7734262573242,223.17544826812744,891.8278262573242Q223.11994826812744,891.9520262573242,223.01664826812743,892.0405262573242Q222.91344826812744,892.1290262573242,222.78214826812743,892.1648262573242L221.86774826812746,892.4140262573242L222.11704826812743,893.1892262573242Q222.15384826812743,893.3037262573242,222.14404826812745,893.4236262573243Q222.13424826812744,893.5435262573242,222.07924826812743,893.6505262573243Q222.02434826812743,893.7575262573242,221.93264826812745,893.8354262573242Q221.84094826812745,893.9132262573243,221.72644826812746,893.9500262573242Q221.61884826812744,893.9846262573242,221.50604826812744,893.9780262573242Q221.39324826812745,893.9714262573242,221.29044826812745,893.9246262573242Q220.11484826812745,893.3885262573242,219.05424826812745,892.6926262573243ZM220.09664826812744,890.8725262573242Q217.23284826812744,888.9340262573243,215.60724826812745,885.7567262573242Q214.53704826812745,883.5943262573243,214.27794826812743,881.2096262573242Q214.01874826812744,878.8244262573243,214.60084826812744,876.4932262573242Q214.60304826812745,876.4845262573242,214.60544826812745,876.4758262573242Q215.94964826812745,871.7027262573242,219.79094826812744,868.4443262573242Q223.05334826812745,865.6460262573243,227.18964826812743,864.6021262573242Q227.13734826812745,864.5773262573242,227.09064826812744,864.5430262573242Q226.99554826812744,864.4732262573242,226.93374826812743,864.3727262573242Q226.87184826812745,864.2723262573243,226.85224826812743,864.1560262573242L226.79484826812745,863.8146262573242Q222.42174826812743,864.8410262573242,218.93744826812744,867.7268262573242Q215.71204826812743,870.3795262573242,214.06534826812745,874.0197262573242Q213.66964826812745,875.0048262573242,213.38734826812745,876.0561262573242Q212.80614826812743,878.5654262573242,213.11524826812743,881.1196262573242Q213.42504826812745,883.6794262573242,214.59254826812744,885.9934262573242Q216.41244826812743,889.5515262573242,219.69084826812744,891.6766262573242L220.09664826812744,890.8725262573242ZM228.88394826812743,863.0241262573243Q228.85824826812745,863.1581262573242,228.77744826812744,863.2681262573242L227.93594826812745,864.4136262573243Q227.92894826812744,864.4232262573242,227.92144826812745,864.4326262573243Q228.29004826812744,864.3547262573243,228.66534826812745,864.2902262573242L229.10134826812742,864.2130262573243L229.03504826812744,863.8344262573243L228.88394826812743,863.0241262573243ZM226.86354826812743,865.9448262573242Q227.84264826812745,865.6587262573242,228.87644826812743,865.4811262573243L229.90674826812744,865.2985262573242Q229.96534826812746,865.2881262573242,230.02074826812745,865.2665262573242Q230.07614826812744,865.2450262573242,230.12634826812746,865.2130262573243Q230.17654826812745,865.1810262573242,230.21944826812745,865.1398262573242Q230.26244826812746,865.0987262573242,230.29654826812742,865.0500262573242Q230.33064826812745,865.0012262573242,230.35464826812745,864.9468262573242Q230.37864826812745,864.8923262573243,230.39154826812745,864.8343262573242Q230.40444826812745,864.7762262573242,230.40574826812744,864.7167262573242Q230.40714826812746,864.6572262573242,230.39684826812743,864.5986262573242L230.22394826812746,863.6127262573242L230.04714826812744,862.6643262573242L230.79224826812745,862.5410262573242L231.25024826812745,864.9966262573242Q232.36284826812744,871.1597262573242,232.96264826812745,875.5919262573242Q233.82134826812745,881.9363262573243,234.30024826812743,886.2852262573242Q234.98344826812743,892.4879262573243,235.06954826812745,897.0216262573242L235.49874826812743,907.8298262573242L235.49874826812743,909.1148262573242L234.22824826812746,909.4588262573242Q234.18064826812744,909.4717262573242,234.13584826812743,909.4921262573242L233.59514826812745,909.7380262573242Q226.95564826812745,911.5745262573242,220.17804826812744,910.2786262573243Q216.83574826812745,909.6324262573243,213.75764826812744,908.2148262573243Q212.22834826812743,907.5169262573243,210.83174826812746,906.5987262573242Q210.82314826812745,906.5930262573243,210.81444826812745,906.5877262573242L209.39604826812743,905.7225262573243L208.06214826812743,904.7268262573242Q202.68802826812745,900.6832262573242,199.95704826812744,894.6522262573242Q197.36123726812744,888.6987262573242,197.31482726812743,882.2302262573243Q197.28694226812743,875.8452262573243,199.37875826812746,869.7866262573242Q201.47101826812744,863.7268262573242,205.46309826812745,858.6347262573242Q207.91554826812745,855.4759262573242,211.45964826812744,852.0303262573242Q213.59184826812745,849.9573662573242,218.03994826812743,846.0216762573242Q220.75354826812745,843.6206362573242,222.47534826812745,842.0366862573242Q222.55074826812745,842.3567062573242,222.63224826812746,842.7093062573242Q221.22864826812744,843.9950862573243,219.16724826812745,845.8444762573242Q214.49224826812744,850.0385162573242,212.26984826812745,852.2247262573242Q208.55164826812745,855.8820262573242,206.05203826812743,859.1564262573243Q202.20845826812743,864.1630262573242,200.23152826812745,870.1005262573242Q198.25417826812745,876.0392262573242,198.35505826812744,882.2775262573242Q198.43316826812745,888.4935262573242,201.10916826812743,894.1477262573242Q203.80092826812745,899.8100262573242,209.11854826812743,903.3252262573242Q214.21684826812745,906.8321262573243,220.41764826812744,907.7084262573242Q225.74634826812743,908.4614262573242,230.87704826812745,907.1251262573243L230.96794826812743,908.0904262573242Q230.98044826812745,908.2231262573242,231.04754826812746,908.3383262573242Q231.11474826812744,908.4535262573243,231.22414826812744,908.5297262573242Q231.27294826812744,908.5638262573242,231.32754826812743,908.5877262573242Q231.38204826812745,908.6115262573242,231.44024826812745,908.6243262573242Q231.49844826812745,908.6371262573242,231.55794826812743,908.6383262573243Q231.61754826812745,908.6394262573242,231.67614826812743,908.6290262573242Q231.73484826812745,908.6185262573242,231.79024826812744,908.5968262573242Q231.84574826812744,908.5751262573242,231.89594826812743,908.5430262573242Q231.94604826812744,908.5109262573242,231.98904826812745,908.4696262573242Q232.03194826812745,908.4284262573242,232.06604826812745,908.3795262573242L233.62874826812742,906.1383262573243Q233.67044826812744,906.0784262573243,233.69684826812744,906.0102262573242Q233.72314826812743,905.9421262573242,233.73244826812743,905.8696262573242Q233.74174826812742,905.7971262573242,233.73354826812744,905.7246262573242Q233.72534826812745,905.6520262573242,233.70014826812744,905.5834262573242Q233.65854826812745,905.4705262573242,233.57694826812744,905.3822262573242Q233.49534826812743,905.2938262573242,233.38614826812744,905.2434262573242Q233.27694826812746,905.1930262573242,233.15674826812744,905.1882262573242Q233.03654826812743,905.1834262573242,232.92364826812744,905.2250262573242L232.29384826812745,905.4569262573242Q232.23094826812743,905.4638262573242,232.17094826812743,905.4836262573242Q232.05734826812744,905.5210262573243,231.94414826812744,905.5571262573242L231.17604826812743,897.4016262573242Q230.92754826812745,894.2175262573243,229.92744826812745,887.8816262573242Q229.81694826812745,887.1810262573242,229.76324826812743,886.8391262573242L229.34454826812743,884.2076262573243L228.04524826812744,876.3420262573243L226.95134826812745,869.6264262573242Q228.16304826812745,869.2128262573242,229.47684826812744,869.0202262573242Q229.60144826812746,869.0019262573243,229.70834826812745,868.9354262573243Q229.81534826812745,868.8689262573242,229.88684826812744,868.7653262573242Q229.95514826812743,868.6663262573243,229.98034826812744,868.5486262573243Q230.00564826812746,868.4310262573242,229.98394826812745,868.3127262573242Q229.96214826812744,868.1944262573243,229.89684826812743,868.0934262573243Q229.83154826812745,867.9924262573243,229.73254826812743,867.9241262573242L226.86354826812743,865.9448262573242ZM226.55644826812744,867.2023262573242L226.75424826812744,868.4166262573242Q227.29854826812743,868.2393262573243,227.86134826812744,868.1026262573242L226.55644826812744,867.2023262573242Z" fill-rule="evenodd" fill="url(#master_svg7_7_9465)" fill-opacity="1" style="mix-blend-mode:luminosity"/></g><g style="mix-blend-mode:hue"><path d="M220.6998716571045,817.1557482713699C221.1476016571045,815.05278827137,221.7677616571045,812.98764827137,222.5544816571045,810.9798682713699C222.9988716571045,809.79355827137,223.70833165710448,808.71655827137,224.6323416571045,807.82553827137C225.2010416571045,807.2927382713699,225.9164616571045,806.9296222713699,226.69302165710448,806.7796232713699C227.3895316571045,806.63858987137,228.1087016571045,806.63858987137,228.80521165710448,806.7796232713699C229.9665016571045,807.05355627137,231.07420165710448,807.5076932713699,232.0851016571045,808.1243682713699C233.1044016571045,808.7310482713699,234.01010165710449,809.5000382713699,234.7640016571045,810.39880827137C236.1750016571045,812.21998827137,236.97230165710448,814.41666827137,237.0479016571045,816.69084827137C237.0889016571045,821.02334827137,235.9011016571045,825.28374827137,233.6135016571045,829.00934827137C232.5316016571045,830.8355482713699,231.26090165710448,832.5289482713699,230.0073016571045,834.23894827137L226.36674165710448,839.5182482713699L224.2888916571045,842.45684827137L222.5716616571045,838.48894827137C221.8969716571045,836.86344827137,221.3235416571045,835.2002482713699,220.8544316571045,833.50844827137C220.3463576571045,831.78244827137,220.00149165710448,830.0154482713699,219.82408765710449,828.2291482713699C219.63517495710448,826.40744827137,219.63517495710448,824.5721482713699,219.82408765710449,822.7505482713699C219.9703856571045,820.8669482713699,220.26314265710448,818.9967482713699,220.6998716571045,817.1557482713699ZM225.2505416571045,817.8364482713699C225.17986165710448,819.4389482713699,225.2545716571045,821.0443482713699,225.4737716571045,822.63434827137L226.1606716571045,827.4986482713699C226.3839016571045,829.15874827137,226.5899816571045,830.8189482713699,226.69301165710448,832.4791482713699C226.7960316571045,834.13934827137,226.8647316571045,835.8991482713699,226.9334216571045,837.62574827137L223.2413616571045,836.59634827137C224.9600216571045,835.4361482713699,226.5638816571045,834.1245482713699,228.0324416571045,832.6783482713699C229.4448416571045,831.19084827137,230.72580165710448,829.5914482713699,231.86190165710448,827.89704827137C232.99290165710448,826.2664482713699,233.8506016571045,824.47354827137,234.4034016571045,822.58454827137C235.0012016571045,820.7164482713699,235.2398016571045,818.75834827137,235.10750165710448,816.8070482713699C235.00910165710448,812.98826827137,232.13240165710448,809.76916827137,228.2385316571045,809.12046827137C227.6075716571045,808.9383582713699,226.9256816571045,809.1493182713699,226.5213016571045,809.65172827137C226.08486165710448,810.3366782713699,225.79304165710448,811.09840827137,225.66268165710449,811.8929682713699C225.4566116571045,813.75235827137,225.4050916571045,815.74457827137,225.2161916571045,817.83634827137L225.2505416571045,817.8364482713699Z" fill="url(#master_svg8_7_9465)" fill-opacity="1" style="mix-blend-mode:hue"/><path d="M219.2217766571045,822.69594827137Q218.9324366571045,825.4936482713699,219.2223166571045,828.28884827137Q219.4945846571045,831.0303482713699,220.2716836571045,833.67004827137Q220.98592165710448,836.2459482713699,222.0166716571045,838.7291482713699L223.7339116571045,842.6970482713699Q223.80127165710448,842.85264827137,223.9397516571045,842.9505482713699Q224.0379716571045,843.0200482713699,224.1552816571045,843.0465482713699Q224.2726016571045,843.07314827137,224.3911516571045,843.05284827137Q224.5097116571045,843.03244827137,224.61146165710448,842.9683482713699Q224.7132016571045,842.9041482713699,224.78265165710448,842.80594827137L226.86458165710448,839.8615482713699L230.5002016571045,834.58944827137Q230.61620165710448,834.4311482713699,230.84480165710448,834.1200482713699Q233.1373016571045,830.9996482713699,234.1288016571045,829.32584827137Q237.7170016571045,823.48214827137,237.6526016571045,816.6851482713699Q237.6526016571045,816.6779482713699,237.6523016571045,816.6707882713699Q237.52970165710448,812.9811682713699,235.24210165710448,810.02843827137Q235.2349016571045,810.01916827137,235.2273016571045,810.0101682713699Q234.0224016571045,808.57372827137,232.4000016571045,807.6081042713699Q230.7913016571045,806.6267897713699,228.9440516571045,806.19104527137Q228.9346716571045,806.18883227137,228.9252316571045,806.1869202713699Q227.7491216571045,805.94877527137,226.57833165710448,806.18586727137Q225.2174016571045,806.44874327137,224.2125716571045,807.3902252713699Q222.7109816571045,808.83819827137,221.9914316571045,810.75924827137Q220.7926616571045,813.8186182713699,220.1098456571045,817.02294827137Q219.44520465710448,819.8271482713699,219.2217766571045,822.69594827137ZM220.42559365710449,822.81284827137Q220.4263986571045,822.80514827137,220.42700365710448,822.79734827137Q220.6431146571045,820.0149482713699,221.2882716571045,817.2953482713699Q221.2898916571045,817.2885482713699,221.29134165710448,817.2816482713699Q221.95368165710448,814.1707482713699,223.11753165710448,811.20048827137Q223.74756165710448,809.51880827137,225.0521116571045,808.2608482713699Q225.78954165710448,807.57004727137,226.8077116571045,807.3733792713699Q227.7444416571045,807.1837292713699,228.6759116571045,807.3704542713699Q230.33020165710448,807.76221827137,231.77020165710448,808.6406282713699Q233.2225016571045,809.5050782713699,234.2932016571045,810.7784582713699Q236.33190165710448,813.4154482713699,236.44330165710448,816.7038482713699Q236.50230165710448,823.14884827137,233.09810165710448,828.6929482713699Q232.12720165710448,830.33174827137,229.8701016571045,833.4039482713699Q229.6372916571045,833.72084827137,229.5195616571045,833.8813482713699Q229.5144016571045,833.88844827137,229.5094316571045,833.89564827137L227.50553165710448,836.8016482713699Q227.4423816571045,835.25474827137,227.3871816571045,834.1181482713699Q227.93236165710448,833.62564827137,228.4567516571045,833.1092482713699Q228.4639916571045,833.10214827137,228.4709816571045,833.0947482713699Q230.6286016571045,830.8224482713699,232.3642016571045,828.2338482713699Q234.11970165710449,825.7030482713699,234.98170165710448,822.76154827137Q235.91670165710448,819.8352482713699,235.7117016571045,816.7786482713699Q235.62820165710448,813.7006582713699,233.5472016571045,811.3720282713699Q231.4790016571045,809.05757827137,228.3705616571045,808.5294582713699Q227.7415716571045,808.35822827137,227.1162216571045,808.5516882713699Q226.46934165710448,808.7518082713699,226.05020165710448,809.2725482713699Q226.02925165710448,809.2985882713699,226.0113016571045,809.3267682713699Q225.2834816571045,810.46900827137,225.0659316571045,811.79505827137Q225.06337165710448,811.8106482713699,225.0616316571045,811.8263582713699Q224.94589165710448,812.87065827137,224.8093516571045,815.0613782713699Q224.6974316571045,816.85714827137,224.6139116571045,817.78204827137Q224.60322165710448,817.9004482713699,224.6381516571045,818.0140482713699Q224.5517416571045,820.37434827137,224.87471165710448,822.7169482713699L225.5618816571045,827.58314827137Q225.9730516571045,830.64104827137,226.0894416571045,832.51664827137Q226.1183716571045,832.9828482713699,226.15023165710448,833.59904827137Q224.6102316571045,834.94264827137,222.90299165710448,836.0951482713699Q222.8137116571045,836.1554482713699,222.7507416571045,836.2428482713699Q222.6877716571045,836.3302482713699,222.6588416571045,836.4339482713699Q222.6428516571045,836.4913482713699,222.6383516571045,836.5507482713699Q222.6338616571045,836.6101482713699,222.6410316571045,836.66924827137Q222.6482116571045,836.7283482713699,222.66679165710448,836.7849482713699Q222.6853616571045,836.8415482713699,222.7146216571045,836.89344827137Q222.74388165710448,836.9453482713699,222.7827016571045,836.9905482713699Q222.82151165710448,837.03564827137,222.8684016571045,837.0724482713699Q222.9152816571045,837.1091482713699,222.9684316571045,837.13604827137Q223.0215816571045,837.1629482713699,223.0789616571045,837.1789482713699L226.5735316571045,838.1531482713699L225.8689016571045,839.1749482713699L224.4164516571045,841.22904827137L223.1266416571045,838.2487482713699Q222.1315316571045,835.8510482713699,221.4371716571045,833.3468482713699Q220.6869016571045,830.79784827137,220.4258586571045,828.1693482713699Q220.14798265710448,825.48984827137,220.42559365710449,822.81284827137ZM227.3028716571045,832.54424827137Q227.4527316571045,832.4004482713699,227.60089165710448,832.2546482713699Q229.68380165710448,830.05964827137,231.3596016571045,827.5602482713699Q233.0162016571045,825.17184827137,233.8230016571045,822.41464827137Q233.82510165710448,822.40734827137,233.8274016571045,822.40014827137Q234.69650165710448,819.6844482713699,234.50410165710448,816.84804827137Q234.5033016571045,816.83534827137,234.5029016571045,816.82264827137Q234.4349016571045,814.18041827137,232.6454016571045,812.17793827137Q230.84980165710448,810.1685482713699,228.1391516571045,809.71697827137Q228.1045416571045,809.71121827137,228.0708316571045,809.70148827137Q227.4264116571045,809.5154882713699,227.0122616571045,810.00677827137Q226.4381216571045,810.92045827137,226.26197165710448,811.97556827137Q226.1501516571045,812.9918982713699,226.0164816571045,815.1366182713699Q225.9152116571045,816.7614482713699,225.83638165710448,817.68644827137Q225.85527165710448,817.76024827137,225.85527165710448,817.8364482713699Q225.85527165710448,817.8497482713699,225.8546816571045,817.86304827137Q225.7508916571045,820.2165482713699,226.0728416571045,822.5517482713699L226.75946165710448,827.4140482713699Q227.1775016571045,830.52284827137,227.2965816571045,832.4416482713699Q227.2997116571045,832.49214827137,227.3028716571045,832.54424827137ZM226.22328165710448,835.12294827137Q225.4481816571045,835.7622482713699,224.63419165710448,836.3569482713699L226.29582165710448,836.8201482713699Q226.25811165710448,835.8976482713699,226.22328165710448,835.12294827137Z" fill-rule="evenodd" fill="url(#master_svg9_7_9465)" fill-opacity="1" style="mix-blend-mode:hue"/></g><g><path d="M250.974535748291,896.180082635498C249.28593574829102,899.0321826354981,247.09503574829102,901.577282635498,244.50053574829101,903.7006826354981C241.959135748291,905.772482635498,239.049935748291,907.381282635498,235.914375748291,908.448782635498L234.31735574829102,909.096182635498L234.21431574829103,907.436082635498L233.510255748291,896.893882635498C233.35569574829103,893.374382635498,232.857705748291,889.887982635498,232.42839574829102,886.3849826354981C231.466745748291,879.362482635498,230.367715748291,872.373132635498,229.11412974829102,865.4003926354981L228.92523574829102,864.3212766354981L230.24750574829102,864.022442635498C234.231515748291,863.216508635498,238.38209574829102,863.8048786354981,241.959035748291,865.682612635498C245.65223574829102,867.4590226354981,248.77053574829102,870.1808626354981,250.974535748291,873.551842635498C253.244435748291,876.9365826354981,254.43843574829103,880.890282635498,254.40903574829102,884.924082635498C254.25653574829101,888.894782635498,253.075635748291,892.7649826354981,250.974535748291,896.180082635498ZM246.853135748291,894.1545826354981C247.480635748291,892.724982635498,247.919135748291,891.224482635498,248.15823574829102,889.688782635498C248.33793574829102,888.177482635498,248.33793574829102,886.651182635498,248.15823574829102,885.139882635498Q247.83213574829102,882.151882635498,245.47933574829102,876.589982635498Q241.86883574829102,871.5792426354981,239.314535748291,869.783252635498C236.69235574829102,867.9012426354981,233.585385748291,866.752582635498,230.33337574829102,866.4628926354981L231.466755748291,865.0683526354981Q232.66881574829102,872.057692635498,234.763835748291,886.1027826354981Q235.691145748291,893.1585826354981,235.86286574829103,896.711282635498L236.549755748291,907.353082635498L234.832525748291,906.3071826354981C240.21933574829103,903.7730826354981,244.49393574829102,899.4638826354981,246.88753574829101,894.154682635498L246.853135748291,894.1545826354981Z" fill="url(#master_svga_7_9465)" fill-opacity="1"/><path d="M251.48953574829102,896.4968826354981Q254.77483574829103,891.1571826354981,255.013235748291,884.947282635498Q255.01363574829102,884.937882635498,255.01373574829103,884.9284826354981Q255.060235748291,878.558382635498,251.480635748291,873.220912635498Q248.021835748291,867.930752635498,242.230735748291,865.1422326354981Q239.459435748291,863.689497235498,236.34079574829101,863.247406635498Q233.217475748291,862.8046596354981,230.12760574829102,863.429717635498Q230.12088574829102,863.431076635498,230.11420574829103,863.4325876354981L228.791928748291,863.7314214354981Q228.735655748291,863.744139135498,228.682801748291,863.7672677354981Q228.629948748291,863.790396635498,228.582421748291,863.823101635498Q228.534894748291,863.8558066354981,228.49440974829102,863.896907635498Q228.453923748291,863.938009635498,228.421940748291,863.9860246354981Q228.389956748291,864.0340396354981,228.36762874829103,864.087236635498Q228.345300748291,864.1404326354981,228.333434748291,864.196891635498Q228.32156774829102,864.253350635498,228.320590748291,864.311034635498Q228.319613748291,864.368718635498,228.329561748291,864.425546635498L228.518941748291,865.507402635498Q230.36577574829101,875.7798826354981,231.828155748291,886.458582635498Q231.90091574829103,887.052282635498,232.050195748291,888.2372826354981Q232.77877574829103,894.0208826354981,232.90610574829103,896.920482635498Q232.906405748291,896.927382635498,232.906865748291,896.934182635498L233.610745748291,907.473482635498L233.713785748291,909.1336826354981Q233.719895748291,909.232082635498,233.75692574829102,909.3233826354981Q233.77930574829102,909.3785826354981,233.812025748291,909.428382635498Q233.84473574829101,909.478182635498,233.886535748291,909.520582635498Q233.928335748291,909.5629826354981,233.977605748291,909.5964826354981Q234.02687574829102,909.6299826354981,234.081735748291,909.6531826354981Q234.13658574829103,909.676382635498,234.194915748291,909.6883826354981Q234.25324574829102,909.700482635498,234.31279574829102,909.700882635498Q234.37235574829103,909.701382635498,234.430865748291,909.6901826354981Q234.48936574829102,909.6789826354981,234.544565748291,909.6566826354981L236.12563574829102,909.015682635498Q240.96133574829102,907.366182635498,244.88353574829102,904.1685826354981Q248.88793574829103,900.8912826354981,251.48953574829102,896.4968826354981ZM253.804335748291,884.910282635498Q253.57593574829102,890.797782635498,250.459435748291,895.8631826354981Q247.95633574829102,900.090982635498,244.117535748291,903.232682635498Q240.949035748291,905.8157826354981,237.154415748291,907.3437826354981Q237.15419574829102,907.3288826354981,237.15323574829102,907.314082635498L237.057195748291,905.826382635498Q240.00603574829103,904.1227826354981,242.41183574829103,901.6974826354981Q245.598735748291,898.484782635498,247.438835748291,894.4031826354981Q247.481435748291,894.308582635498,247.490135748291,894.2051826354981Q248.39953574829102,892.069182635498,248.75583574829102,889.7817826354981Q248.75743574829102,889.7709826354981,248.75873574829103,889.760182635498Q249.03763574829102,887.414282635498,248.75873574829103,885.0684826354981Q248.42373574829102,881.997982635498,246.036335748291,876.354382635498Q246.009835748291,876.2916826354981,245.97003574829102,876.2364826354981Q242.300035748291,871.143112635498,239.662335748291,869.288562635498Q236.29156574829102,866.8692226354981,232.25868574829101,866.1168326354981Q232.157915748291,865.519242635498,232.062735748291,864.9658526354981Q232.044135748291,864.8577026354981,231.98872574829102,864.762982635498Q231.93331574829102,864.6682686354981,231.84815574829102,864.5990596354981Q231.754805748291,864.523194635498,231.63953574829102,864.4888256354981Q231.52426574829101,864.4544576354981,231.404605748291,864.466819635498Q231.28495574829103,864.4791816354981,231.179145748291,864.536390635498Q231.07333574829102,864.5935996354981,230.997465748291,864.6869426354981L229.86408674829102,866.0814926354981Q229.858372748291,866.0885226354981,229.85287074829102,866.0957226354981Q229.781382748291,865.694222635498,229.70931874829103,865.293382635498L229.620191748291,864.784202635498L230.374075748291,864.6138226354981Q233.25690574829102,864.031802635498,236.17104574829102,864.444898635498Q239.087835748291,864.8583726354981,241.67793574829102,866.218052635498Q241.68733574829102,866.222982635498,241.69693574829103,866.227582635498Q247.191135748291,868.870292635498,250.46833574829103,873.8827826354981Q253.845435748291,878.9184826354981,253.804335748291,884.910282635498ZM230.00819574829103,866.972762635498Q231.680145748291,876.463582635498,233.028635748291,886.311482635498Q233.101165748291,886.903282635498,233.250175748291,888.0861826354981Q233.984045748291,893.9117826354981,234.11409574829102,896.8604826354981L234.70435574829102,905.698682635498Q235.26192574829102,905.4325826354981,235.80108574829103,905.1422826354981L235.258835748291,896.7404826354981Q235.08831574829102,893.212582635498,234.165725748291,886.191982635498Q232.352595748291,874.0366826354981,231.209045748291,867.171252635498Q230.748805748291,867.1070326354981,230.279715748291,867.0652426354981Q230.132665748291,867.0521426354981,230.00819574829103,866.972762635498ZM232.471945748291,867.3932226354981Q233.602325748291,874.2169826354981,235.36195574829102,886.0135826354981Q236.29396574829101,893.104482635498,236.46688574829102,896.6820826354981L236.96973574829101,904.4714826354981Q239.474635748291,902.9410826354981,241.55313574829103,900.8456826354981Q244.51353574829102,897.8613826354981,246.25173574829103,894.091382635498Q246.261635748291,893.9977826354981,246.29943574829102,893.911582635498Q247.21043574829102,891.8356826354981,247.55903574829102,889.6064826354981Q247.81903574829101,887.408882635498,247.557735748291,885.211282635498Q247.24243574829103,882.322382635498,244.948935748291,876.8882826354981Q241.423935748291,872.005632635498,238.966735748291,870.277942635498Q235.99205574829102,868.142972635498,232.471945748291,867.3932226354981ZM234.79057574829102,906.9896826354981L234.81788574829102,907.3985826354981L234.868875748291,908.2200826354981L235.68717574829103,907.8882826354981Q235.703155748291,907.8818826354981,235.71948574829102,907.876282635498Q235.88790574829102,907.8189826354981,236.05493574829103,907.759682635498L234.79057574829102,906.9896826354981Z" fill-rule="evenodd" fill="url(#master_svgb_7_9465)" fill-opacity="1"/></g></g></g></svg>