<svg xmlns="http://www.w3.org/2000/svg" xmlns:xlink="http://www.w3.org/1999/xlink" fill="none" version="1.1" width="512" height="512" viewBox="0 0 512 512"><defs><clipPath id="master_svg0_7_04658"><rect x="0" y="0" width="512" height="512" rx="0"/></clipPath><filter id="master_svg1_7_04662" filterUnits="objectBoundingBox" color-interpolation-filters="sRGB" x="-88.6415786743164" y="-88.6415786743164" width="650.2831573486328" height="664.2831573486328"><feFlood flood-opacity="0" result="BackgroundImageFix"/><feColorMatrix in="SourceAlpha" type="matrix" values="0 0 0 0 0 0 0 0 0 0 0 0 0 0 0 0 0 0 127 0"/><feOffset dy="0" dx="0"/><feGaussianBlur stdDeviation="22.1603946685791"/><feColorMatrix type="matrix" values="0 0 0 0 0.9940476417541504 0 0 0 0 0.7512537240982056 0 0 0 0 0.184734508395195 0 0 0 1 0"/><feBlend mode="normal" in2="BackgroundImageFix" result="effect1_dropShadow"/><feBlend mode="normal" in="SourceGraphic" in2="effect1_dropShadow" result="shape"/><feColorMatrix in="SourceAlpha" type="matrix" result="hardAlpha" values="0 0 0 0 0 0 0 0 0 0 0 0 0 0 0 0 0 0 127 0"/><feOffset dy="0" dx="0"/><feGaussianBlur stdDeviation="73.12930297851562"/><feComposite in2="hardAlpha" operator="arithmetic" k2="-1" k3="1"/><feColorMatrix type="matrix" values="0 0 0 0 0.9921568632125854 0 0 0 0 0.7529411911964417 0 0 0 0 0.18431372940540314 0 0 0 1 0"/><feBlend mode="normal" in2="shape" result="effect2_innerShadow"/></filter><radialGradient cx="0" cy="0" r="1" gradientUnits="userSpaceOnUse" id="master_svg2_7_2327" gradientTransform="translate(246.5 256.5) rotate(90) scale(385.4815604686737 374.399955034256)"><stop offset="0%" stop-color="#F5B24D" stop-opacity="1"/><stop offset="69.9999988079071%" stop-color="#FF5100" stop-opacity="0"/></radialGradient><linearGradient x1="0.5" y1="0" x2="0.5" y2="1" id="master_svg3_7_9465"><stop offset="0%" stop-color="#FDB744" stop-opacity="1"/><stop offset="100%" stop-color="#F6D271" stop-opacity="1"/></linearGradient><linearGradient x1="0.5" y1="0" x2="0.5" y2="1" id="master_svg4_7_9465"><stop offset="0%" stop-color="#FDB744" stop-opacity="1"/><stop offset="100%" stop-color="#F6D271" stop-opacity="1"/></linearGradient><linearGradient x1="0.5" y1="0" x2="0.5" y2="1" id="master_svg5_7_9465"><stop offset="0%" stop-color="#FDB744" stop-opacity="1"/><stop offset="100%" stop-color="#F6D271" stop-opacity="1"/></linearGradient><linearGradient x1="0.5" y1="0" x2="0.5" y2="1" id="master_svg6_7_9465"><stop offset="0%" stop-color="#FDB744" stop-opacity="1"/><stop offset="100%" stop-color="#F6D271" stop-opacity="1"/></linearGradient><linearGradient x1="0.5" y1="0" x2="0.5" y2="1" id="master_svg7_7_9465"><stop offset="0%" stop-color="#FDB744" stop-opacity="1"/><stop offset="100%" stop-color="#F6D271" stop-opacity="1"/></linearGradient><linearGradient x1="0.5" y1="0" x2="0.5" y2="1" id="master_svg8_7_9465"><stop offset="0%" stop-color="#FDB744" stop-opacity="1"/><stop offset="100%" stop-color="#F6D271" stop-opacity="1"/></linearGradient><linearGradient x1="0.5" y1="0" x2="0.5" y2="1" id="master_svg9_7_9465"><stop offset="0%" stop-color="#FDB744" stop-opacity="1"/><stop offset="100%" stop-color="#F6D271" stop-opacity="1"/></linearGradient><linearGradient x1="0.5" y1="0" x2="0.5" y2="1" id="master_svga_7_9465"><stop offset="0%" stop-color="#FDB744" stop-opacity="1"/><stop offset="100%" stop-color="#F6D271" stop-opacity="1"/></linearGradient></defs><g clip-path="url(#master_svg0_7_04658)"><g filter="url(#master_svg1_7_04662)"><path d="M44.3765,306.44C43.3075,309.349,43.8362,312.751,45.7378,315.198C48.0969,318.235,58.1258,318.792,77.5807,319.812L190.286,325.723C197.915,326.123,201.85,326.351,204.027,328.112C205.86,329.594,207.046,331.773,207.295,334.117C207.592,336.901,205.647,340.329,201.84,346.953L161.645,416.893C148.364,440.002,141.574,451.877,143.063,455.627C144.252,458.624,147.099,460.872,150.289,461.335C154.283,461.914,164.261,452.558,183.665,434.285L249.017,372.741C253.443,368.573,255.727,366.443,258.123,365.942C260.164,365.515,262.308,365.823,264.147,366.806C266.305,367.96,267.898,370.647,270.974,375.892L314.284,449.748C322.913,464.463,327.397,472.047,331.062,472.808C334.03,473.425,337.235,472.463,339.373,470.314C342.013,467.66,341.58,458.861,340.681,441.825L335.467,343.066C335.173,337.493,335.035,334.636,336.074,332.571C336.964,330.803,338.428,329.375,340.217,328.528C342.306,327.54,345.159,327.747,350.723,328.177L425.707,333.975C442.512,335.274,451.193,335.913,453.909,333.352C456.109,331.276,457.156,328.108,456.626,325.13C455.971,321.455,448.617,316.795,434.347,307.826L368.236,266.276C362.417,262.619,359.43,260.72,358.36,258.308C357.453,256.26599999999996,357.347,253.932,358.066,251.817C358.915,249.318,361.718,247.158,367.183,242.99L421.391,201.653C438.875,188.321,447.855,181.434,448.026,177.512C448.164,174.362,446.568,171.224,443.942,169.48C440.672,167.308,429.816,170.508,408.744,176.782L335.627,198.553C330.063,200.21,327.204,201.046,324.9,200.474C322.932,199.984,321.178,198.828,319.952,197.211C318.518,195.319,318.161,192.362,317.491,186.596L303.182,63.3449C301.441,48.35,300.509,40.6012,297.598,38.4204C295.23,36.646100000000004,292.024,36.1378,289.223,37.0923C285.78,38.2656,282.497,45.346,276.203,59.0667L228.617,162.793C226.385,167.658,225.231,170.145,223.425,171.479C221.875,172.624,219.984,173.237,218.058,173.219C215.812,173.198,213.418,171.861,208.757,169.231L114.507,116.052C100.0333,107.8856,92.5415,103.695,89.0052,104.8555C86.139,105.7961,83.8494,108.2078,83.0587,111.119C82.0833,114.711,86.657,121.975,95.5633,136.005L162.008,240.675C165.208,245.716,166.838,248.312,166.893,250.73C166.94,252.792,166.262,254.822,164.986,256.443C163.49,258.34299999999996,160.627,259.438,155.041,261.546L73.31700000000001,292.379C55.0895,299.256,45.7028,302.831,44.3765,306.44Z" fill="url(#master_svg2_7_2327)" fill-opacity="1"/></g><g transform="matrix(0.8995996117591858,-0.43671557307243347,0.43671557307243347,0.8995996117591858,-71.12664176041108,96.83223662738055)"><g><path d="M239.23354072265624,294.9593608398437C235.21304072265625,292.85326083984376,230.66374072265626,291.87496083984377,226.09884072265623,292.13476083984375L223.17714072265625,292.3067608398437L222.74524072265626,289.6049608398438L221.34794072265623,280.7381608398438C220.89064072265626,277.76626083984377,220.45874072265624,274.79436083984376,219.82354072265625,271.89606083984376L218.07064072265626,263.02926083984374C217.53704072265626,260.10646083984375,216.85114072265625,257.15906083984373,216.21604072265626,254.21166083984374L215.93654072265625,252.88536083984374L216.90194072265626,252.00116083984375C220.38254072265624,248.77006083984375,223.63334072265624,245.31536083984375,226.63234072265624,241.66076083984376C229.67234072265626,238.16676083984373,232.03864072265625,234.17356083984376,233.61894072265625,229.87116083984375C235.19354072265625,225.68326083984374,235.60524072265625,221.16946083984374,234.81304072265624,216.77986083984376C233.69514072265625,212.72716083984375,231.45944072265624,208.08501083984376,227.82644072265626,206.68501083984376C225.95704072265625,206.06332083984375,223.89564072265625,206.30790083984374,222.23714072265625,207.34817083984376C220.39274072265624,208.47231083984374,218.85134072265626,210.00457083984375,217.74034072265624,211.81838083984374C216.51534072265625,213.68156083984374,215.65424072265625,215.74616083984375,215.19974072265626,217.90966083984375C214.93534072265624,219.02016083984375,214.73184072265624,220.14336083984375,214.59004072265625,221.27456083984376C214.43764072265625,222.40446083984375,214.33594072265623,223.53426083984374,214.25974072265626,224.68866083984375C214.14594072265623,234.10556083984375,215.27294072265624,243.49816083984376,217.61334072265623,252.63976083984375L217.81654072265624,253.49946083984375L217.18144072265625,254.06436083984374C212.30354072265624,258.50996083984376,207.34934072265625,262.88196083984377,202.64934072265626,267.3275608398437C197.92234072265626,271.76716083984377,193.58814072265625,276.58176083984375,189.69234072265624,281.72066083984373C185.84304072265624,286.82076083984373,182.77141072265624,292.42896083984374,180.57170072265626,298.37346083984374C178.43821072265624,304.3083608398438,177.57389072265624,310.60036083984374,178.03113072265626,316.8683608398437C178.48881072265624,323.13936083984373,180.16070072265626,329.27136083984374,182.95984072265625,334.9453608398437C185.80324072265626,340.56436083984374,189.86754072265626,345.5243608398438,194.87514072265625,349.48636083984377C199.91364072265625,353.3653608398438,205.91244072265624,355.90536083984375,212.27804072265624,356.85436083984376C218.64224072265625,357.7913608398437,225.14664072265626,357.21836083984374,231.23074072265626,355.18436083984375L233.33944072265626,354.52136083984374L233.33944072265626,356.65836083984374Q233.89834072265626,368.10336083984373,234.07624072265625,379.6233608398437C234.07624072265625,387.2863608398437,234.07624072265625,394.94936083984373,233.59354072265626,402.7113608398438L232.91974072265626,404.33836083984374L229.98594072265627,403.8413608398438C225.43824072265625,399.2723608398437,217.46084072265626,398.1183608398437,211.05864072265626,400.0583608398438C207.99164072265626,400.84736083984376,205.29984072265626,402.63436083984374,203.43684072265626,405.1183608398437C201.88334072265624,407.23736083984375,201.88334072265624,410.07336083984376,203.43684072265626,412.1923608398438C205.27744072265625,414.48736083984375,207.87894072265624,416.10036083984374,210.80454072265624,416.76036083984377C213.89824072265625,417.53336083984374,217.13764072265624,417.58336083984375,220.25554072265624,416.90736083984376C223.16324072265624,416.3823608398437,225.82824072265623,414.99136083984376,227.87724072265627,412.9283608398438C229.49634072265624,411.44436083984374,230.00144072265624,409.1493608398438,229.14754072265626,407.1563608398437L228.84264072265626,406.2723608398437L228.99504072265626,405.02036083984376C229.77104072265627,397.01136083984375,230.07634072265625,388.96736083984376,229.90964072265626,380.92536083984373C229.90964072265626,372.7213608398438,229.60484072265626,364.4933608398437,229.19834072265624,356.3633608398437L229.04584072265624,353.12136083984376L232.17074072265626,351.9423608398438C238.06094072265626,349.76036083984377,243.29874072265625,346.19836083984376,247.41424072265625,341.5773608398438C249.43844072265625,339.26036083984377,251.14614072265624,336.70136083984374,252.49534072265624,333.96336083984374C253.85954072265625,331.29536083984374,254.77714072265627,328.4353608398437,255.21384072265624,325.48936083984376C255.72174072265625,322.52136083984374,255.72174072265625,319.49236083984374,255.21384072265624,316.5243608398438C254.71174072265626,313.45636083984374,253.69944072265625,310.48736083984375,252.21594072265626,307.7313608398438C250.77474072265625,305.03836083984373,248.94404072265627,302.55706083984376,246.77904072265625,300.36296083984377C244.53094072265625,298.23706083984376,241.99224072265625,296.41896083984375,239.23354072265624,294.9593608398437ZM242.35844072265627,289.08916083984377C245.81324072265625,290.7947608398438,249.00324072265624,292.9609608398438,251.83484072265625,295.52426083984375C254.62844072265625,298.14546083984374,257.00814072265626,301.14956083984373,258.89764072265626,304.4403608398437C260.7972407226563,307.75136083984376,262.14334072265626,311.3323608398438,262.88634072265626,315.05036083984373C263.71084072265626,318.77036083984376,263.89104072265627,322.5963608398438,263.41984072265626,326.37336083984377C263.01504072265624,330.18836083984377,261.96804072265627,333.9133608398438,260.3203407226563,337.40136083984373C258.7440407226562,340.8463608398438,256.69304072265624,344.06836083984376,254.22294072265623,346.9813608398438C249.29684072265627,352.8803608398438,242.88394072265623,357.45636083984374,235.60054072265626,360.26836083984375L238.57304072265626,355.84736083984376C238.97954072265625,364.17436083984376,239.25904072265627,372.5003608398438,239.28444072265626,380.90036083984376C239.28444072265626,385.07636083984374,239.28444072265626,389.27636083984373,238.95414072265623,393.5003608398438C238.78544072265623,397.7933608398438,238.36984072265625,402.07336083984376,237.70924072265626,406.32136083984375L237.45524072265624,404.16036083984375C238.45184072265624,406.67736083984374,238.62044072265624,409.43136083984376,237.93794072265626,412.04436083984376C237.27854072265626,414.5173608398437,235.94494072265624,416.77336083984375,234.07624072265625,418.57836083984375C230.72884072265626,421.70636083984374,226.44144072265624,423.72736083984375,221.83064072265626,424.35036083984374C217.49684072265626,425.05036083984373,213.05234072265625,424.73036083984374,208.87374072265624,423.4163608398437C204.44974072265626,422.1083608398437,200.64444072265624,419.3343608398437,198.12714072265624,415.58136083984374C196.81324072265625,413.50236083984373,196.18414072265625,411.08736083984377,196.32334072265624,408.65536083984375C196.48904072265626,406.26836083984375,197.37204072265627,403.98036083984374,198.86384072265625,402.0723608398438C201.60314072265624,398.67536083984373,205.48604072265624,396.31136083984376,209.83914072265625,395.39136083984374C213.90384072265624,394.4333608398438,218.14704072265624,394.4333608398438,222.21174072265626,395.39136083984374C226.40234072265625,396.23436083984376,230.20394072265626,398.3513608398438,233.06004072265625,401.43436083984375L229.42694072265624,402.56336083984377C230.18914072265625,395.1953608398437,230.39244072265626,387.45836083984375,230.41784072265625,379.8683608398437C230.44324072265624,372.2793608398438,230.23994072265626,364.64036083984377,229.93514072265626,357.00236083984373L232.14544072265625,358.47536083984374C225.53604072265625,360.60036083984374,218.49324072265625,361.14836083984375,211.61754072265626,360.0723608398438C204.75474072265627,358.9503608398437,198.31134072265624,356.1233608398437,192.91894072265626,351.8683608398437C187.56914072265624,347.6473608398437,183.23446072265625,342.35036083984374,180.21605072265626,336.34536083984375C177.29619072265626,330.34136083984373,175.57241072265626,323.8583608398437,175.13489372265624,317.23636083984377C174.70337172265624,310.5703608398437,175.66238772265626,303.88836083984376,177.95494072265626,297.58746083984374C180.19472072265626,291.3959608398437,183.34335072265625,285.54786083984374,187.30424072265626,280.22246083984373C191.28014072265626,274.9736608398438,195.68984072265624,270.04516083984373,200.48984072265625,265.48546083984377C205.26614072265625,260.86786083984373,210.14404072265626,256.54506083984376,214.94564072265626,252.09936083984374L214.48834072265623,253.52396083984377C212.00964072265626,244.12646083984376,210.78874072265626,234.46036083984376,210.85534072265625,224.76236083984375C210.85534072265625,223.53426083984374,211.00784072265625,222.30616083984376,211.18564072265625,221.07806083984374C211.32904072265626,219.84806083984375,211.54104072265625,218.62636083984376,211.82074072265624,217.41846083984376C212.33854072265626,214.87676083984374,213.32844072265624,212.44685083984376,214.74244072265626,210.24644083984376C216.16514072265625,207.95087083984376,218.12254072265625,206.00808083984376,220.45874072265624,204.57271083984375C223.04824072265626,203.02682113984375,226.21804072265624,202.68431683984375,229.09664072265625,203.63936983984374C231.75634072265626,204.73099083984374,233.97044072265624,206.63848083984374,235.39734072265625,209.06748083984374L236.43894072265624,210.76223083984374C236.71844072265625,211.32715083984374,236.94704072265625,211.91663083984375,237.22654072265624,212.50611083984376C237.79214072265626,213.68876083984375,238.23464072265625,214.92296083984374,238.54764072265624,216.19036083984375C239.54024072265625,221.16506083984376,239.17244072265623,226.30406083984374,237.48064072265623,231.09926083984374C236.69464072265626,233.51606083984376,235.66504072265624,235.85246083984376,234.40654072265625,238.07476083984375C233.13664072265624,240.21846083984374,231.74564072265625,242.29296083984374,230.23994072265626,244.28876083984375C227.24784072265624,248.21746083984374,223.97074072265625,251.93566083984376,220.43334072265625,255.41516083984374L221.22094072265625,253.20466083984374C221.95764072265627,256.1029608398438,222.71984072265624,258.97666083984376,223.40584072265625,261.94856083984376L225.48904072265626,270.8153608398437C226.93724072265624,276.71016083984375,227.87724072265627,282.60486083984375,229.07124072265626,288.4996608398437L225.74314072265625,286.04356083984374C231.45504072265624,285.50426083984377,237.20914072265626,286.51656083984375,242.35844072265627,288.96636083984373L242.35844072265627,289.08916083984377Z" fill="url(#master_svg3_7_9465)" fill-opacity="1"/><path d="M243.91994072265624,287.39396083984377Q249.06364072265626,290.02656083984374,253.32204072265625,293.88136083984375Q257.80534072265624,298.08746083984374,260.8194407226563,303.33636083984373Q263.86714072265625,308.6493608398438,265.05944072265623,314.61636083984376Q266.37804072265624,320.56336083984377,265.6188407226563,326.64836083984375Q264.9725407226563,332.74136083984376,262.32414072265624,338.34836083984374Q259.8328407226562,343.79236083984375,255.91304072265626,348.41436083984377Q252.04704072265625,353.04436083984376,247.08284072265624,356.5863608398438Q244.17014072265624,358.66536083984374,240.99424072265623,360.28436083984377Q241.47214072265626,371.5293608398438,241.50044072265626,380.89336083984375Q241.50044072265626,389.3203608398437,241.16674072265624,393.6303608398438Q240.93654072265625,399.4353608398437,240.11854072265623,405.1873608398438Q241.06514072265625,408.84036083984375,240.08204072265625,412.60436083984376Q238.91314072265624,416.98736083984375,235.61564072265625,420.17236083984375Q232.82484072265623,422.78036083984375,229.37204072265627,424.40736083984376Q225.93724072265624,426.02636083984373,222.15574072265625,426.54236083984375Q215.05604072265623,427.68236083984374,208.20924072265626,425.53036083984375Q204.55984072265625,424.45136083984374,201.47984072265626,422.20636083984374Q198.39304072265625,419.95536083984376,196.28684072265625,416.81636083984375Q196.27004072265626,416.7913608398437,196.25394072265624,416.76536083984377Q193.85654072265623,412.97336083984374,194.11084072265623,408.52836083984374Q194.41364072265625,404.1663608398437,197.11804072265625,400.7073608398438Q199.43584072265625,397.8323608398438,202.59404072265625,395.91036083984375Q205.73454072265625,393.9983608398437,209.35544072265625,393.22936083984376Q216.02004072265623,391.66436083984377,222.68464072265624,393.2263608398438Q225.20234072265626,393.73636083984377,227.51164072265624,394.7793608398438Q227.83734072265625,387.88336083984376,227.69414072265624,380.9713608398438Q227.69374072265626,372.7213608398438,227.24134072265625,362.0173608398437Q219.37344072265626,363.52836083984374,211.27494072265625,362.26136083984375Q200.22364072265626,360.45436083984373,191.54624072265625,353.6083608398437Q183.03899072265625,346.89536083984376,178.23609072265626,337.3413608398438Q173.61443072265624,327.83736083984377,172.92367072265625,317.38336083984376Q172.23956072265625,306.81436083984374,175.87245772265624,296.82976083984374Q179.35916072265624,287.19136083984375,185.52614072265624,278.89986083984377Q191.62074072265625,270.8540608398438,198.96354072265626,263.8787608398437Q202.16404072265624,260.7845608398437,208.65434072265626,254.86166083984375Q210.50074072265625,253.17686083984376,211.80964072265624,251.97536083984374Q208.54444072265625,238.55976083984376,208.63934072265624,224.74706083984375Q208.63934072265624,223.20876083984376,208.98814072265625,220.79076083984376Q209.21594072265626,218.85146083984375,209.65534072265626,216.94686083984374Q210.52334072265626,212.71278083984376,212.87814072265624,209.04841083984374Q215.29884072265625,205.14209083984375,219.29864072265624,202.68457783984374Q221.68104072265623,201.26213083984376,224.43124072265624,200.96497083984374Q227.17844072265626,200.66813083984374,229.79454072265625,201.53607083984375Q229.86724072265625,201.56020083984376,229.93814072265624,201.58929083984376Q234.72974072265626,203.55597083984375,237.30804072265624,207.94504083984376L238.32694072265625,209.60185083984376Q238.38014072265625,209.68848083984375,238.42524072265624,209.77962083984374Q238.60234072265627,210.13763083984375,238.90104072265626,210.82418083984376Q239.11784072265624,211.32240083984374,239.22894072265626,211.55679083984376Q240.17404072265623,213.53306083984376,240.69904072265626,215.65916083984376Q240.71104072265626,215.70766083984375,240.72084072265625,215.75676083984376Q242.35194072265625,223.93166083984374,239.57954072265625,231.81056083984376Q238.33034072265625,235.64296083984374,236.33484072265625,239.16676083984373Q234.34394072265624,242.52846083984375,232.00904072265627,245.62346083984374Q228.26354072265624,250.54126083984374,223.96704072265624,254.99586083984374Q225.05284072265624,259.23076083984375,225.56504072265625,261.45016083984376L227.64634072265625,270.30846083984375Q228.62104072265623,274.27566083984374,230.11154072265626,282.1953608398437Q230.26174072265624,282.99316083984377,230.39814072265625,283.71206083984373Q237.10294072265626,284.01196083984377,243.31054072265624,286.9652608398437Q243.65184072265623,287.12756083984374,243.91994072265624,287.39396083984377ZM231.26824072265626,288.20956083984373Q236.21494072265625,288.61626083984373,240.84344072265625,290.70646083984377Q241.08304072265625,290.9308608398437,241.37744072265625,291.07626083984377Q246.30824072265625,293.5105608398437,250.34764072265625,297.16716083984375Q254.29084072265624,300.8674608398437,256.97584072265624,305.5433608398438Q259.6627407226563,310.22736083984375,260.7132407226562,315.48536083984374Q261.8851407226563,320.7743608398438,261.22084072265625,326.09936083984377Q260.64444072265627,331.5273608398437,258.31664072265625,336.45536083984376Q256.0572407226563,341.39136083984374,252.53284072265626,345.54736083984375Q247.48744072265623,351.59036083984375,240.74384072265624,355.40136083984373Q240.70044072265625,355.1903608398437,240.61704072265627,354.99136083984376Q240.53374072265626,354.79236083984375,240.41354072265625,354.6133608398437Q240.29344072265627,354.43436083984375,240.14104072265627,354.2813608398437Q239.98854072265624,354.12936083984374,239.80954072265627,354.00836083984376Q239.71914072265625,353.9473608398438,239.62334072265625,353.89636083984374Q239.52744072265625,353.8443608398437,239.42694072265624,353.80236083984374Q239.32654072265626,353.76036083984377,239.22244072265624,353.72836083984373Q239.11834072265626,353.6973608398438,239.01164072265624,353.67536083984373Q238.90494072265625,353.65336083984374,238.79654072265626,353.6423608398437Q238.68824072265625,353.63136083984375,238.57944072265624,353.63136083984375Q238.47054072265627,353.63136083984375,238.36214072265625,353.64136083984374Q238.25384072265626,353.6523608398437,238.14694072265624,353.6733608398438Q238.04014072265625,353.69336083984376,237.93584072265625,353.72536083984374Q237.83154072265626,353.75636083984375,237.73084072265624,353.79736083984375Q237.63014072265625,353.8393608398437,237.53404072265624,353.89036083984377Q237.43784072265623,353.94136083984375,237.34714072265626,354.00136083984376Q237.25644072265624,354.06136083984376,237.17214072265625,354.1303608398438Q237.08774072265624,354.19936083984373,237.01054072265626,354.27636083984373Q236.93334072265625,354.35336083984373,236.86404072265626,354.43636083984376Q236.79474072265626,354.52036083984376,236.73404072265626,354.61136083984377L235.55554072265625,356.36436083984376L235.55554072265625,354.52136083984374Q235.55554072265625,354.18136083984376,235.45344072265624,353.8563608398438Q235.33344072265623,353.47536083984374,235.08764072265626,353.15936083984377Q243.19234072265624,349.65036083984376,249.06914072265624,343.0513608398437Q252.32274072265625,339.3273608398438,254.48314072265623,334.9423608398438Q256.68774072265626,330.6323608398437,257.40224072265624,325.83836083984374Q258.22714072265626,320.99436083984375,257.3980407226562,316.15036083984376Q256.5828407226562,311.1683608398438,254.16714072265626,306.68136083984376Q251.84574072265625,302.34266083984375,248.35654072265623,298.80646083984374Q248.32954072265625,298.77916083984377,248.30174072265623,298.7528608398437Q244.69424072265625,295.34146083984376,240.26994072265626,293.00056083984373Q235.67684072265627,290.59446083984375,230.66394072265626,290.04056083984375Q230.83804072265625,289.8606608398437,230.96764072265626,289.64636083984374Q231.09714072265626,289.43206083984376,231.17564072265625,289.19426083984376Q231.25414072265625,288.95646083984377,231.27764072265626,288.70716083984377Q231.30104072265624,288.45776083984373,231.26824072265626,288.20956083984373ZM225.90474072265624,283.8042608398438Q225.83214072265625,283.4197608398438,225.75594072265625,283.0150608398437Q224.28794072265626,275.21496083984374,223.33174072265626,271.3221608398437L221.24654072265625,262.44696083984377Q220.84034072265626,260.6871608398437,220.05704072265624,257.59906083984373Q219.55454072265624,257.51246083984375,219.14044072265625,257.2150608398438Q219.90344072265626,260.72966083984375,220.24454072265624,262.59946083984374L221.98824072265626,271.42166083984375Q222.57134072265626,274.08246083984375,223.39384072265625,279.45956083984373Q223.49024072265627,280.0895608398438,223.53694072265625,280.3932608398437L224.17984072265625,284.47286083984375Q224.31544072265626,284.33786083984376,224.47214072265626,284.2281608398438Q224.62884072265626,284.11846083984375,224.80204072265624,284.0372608398437Q224.97524072265625,283.9559608398438,225.15984072265624,283.90566083984373Q225.34444072265626,283.85526083984377,225.53484072265624,283.83726083984374Q225.72014072265625,283.81976083984375,225.90474072265624,283.8042608398438ZM224.74534072265624,288.06136083984376L227.20704072265625,289.8780608398438Q226.59294072265624,289.88706083984374,225.97284072265626,289.92236083984375L225.04884072265625,289.97676083984373L224.93354072265623,289.25516083984377L224.74534072265624,288.06136083984376ZM221.62794072265626,251.02636083984373Q225.26474072265626,247.16386083984375,228.47084072265625,242.95416083984375Q228.56984072265624,242.82296083984374,228.66834072265624,242.69116083984375Q228.49814072265625,242.89206083984374,228.32524072265625,243.09106083984375Q224.94024072265626,247.21366083984375,221.14984072265625,250.98976083984374Q221.39084072265626,250.98206083984374,221.62794072265626,251.02636083984373ZM218.63674072265624,247.23296083984374Q221.93754072265625,243.88866083984374,224.91924072265624,240.25496083984376Q224.93954072265626,240.23026083984377,224.96054072265625,240.20616083984373Q229.28974072265623,235.23036083984374,231.53874072265626,229.10716083984374Q233.71504072265625,223.31876083984375,232.64974072265625,217.27186083984375Q231.77114072265624,214.12926083984374,230.38444072265625,211.91324083984375Q228.86434072265627,209.48429083984374,227.07704072265625,208.77142083984376Q225.13474072265626,208.14654083984374,223.41474072265623,209.22547083984375Q221.04094072265625,210.67240083984376,219.63004072265625,212.97585083984376Q219.61154072265626,213.00614083984374,219.59204072265624,213.03581083984375Q217.96964072265627,215.50346083984374,217.36854072265623,218.36526083984376Q217.36244072265626,218.39426083984375,217.35554072265626,218.42306083984374Q216.98664072265626,219.97216083984375,216.78894072265626,221.55016083984376Q216.59414072265625,222.99416083984374,216.47494072265624,224.77526083984375Q216.34404072265625,236.13986083984375,218.63674072265624,247.23296083984374ZM217.47694072265625,396.9233608398438Q213.91224072265624,396.70836083984375,210.34754072265625,397.5483608398438Q210.32244072265627,397.55436083984375,210.29724072265626,397.5603608398437Q207.40304072265624,398.1713608398437,204.89854072265626,399.6953608398437Q202.40084072265626,401.2163608398438,200.60964072265625,403.4373608398438Q198.74104072265624,405.8273608398438,198.53574072265624,408.7813608398437Q198.36344072265626,411.7913608398437,199.98434072265624,414.37236083984374Q201.64964072265624,416.84536083984375,204.09094072265626,418.6253608398438Q206.55154072265626,420.41936083984376,209.53824072265624,421.30236083984374Q215.39814072265625,423.1443608398438,221.47724072265623,422.16236083984376Q221.50554072265624,422.15736083984376,221.53394072265624,422.15336083984374Q227.92864072265624,421.28936083984377,232.53684072265625,416.9833608398437Q234.94824072265624,414.65536083984375,235.79384072265626,411.48436083984376Q236.27404072265625,409.64536083984376,236.09854072265625,407.84336083984374Q235.85294072265626,407.58336083984375,235.70154072265626,407.25936083984374Q235.55014072265624,406.9353608398437,235.50834072265624,406.58036083984376L235.26104072265625,404.4763608398438L234.96724072265624,405.18636083984376Q234.93154072265625,405.2723608398437,234.88874072265625,405.35536083984374Q234.84594072265625,405.43836083984377,234.79634072265625,405.5173608398437Q234.74674072265626,405.5963608398438,234.69064072265624,405.67036083984374Q234.63454072265625,405.7453608398438,234.57244072265627,405.81436083984374Q234.51024072265625,405.88436083984374,234.44254072265625,405.94836083984376Q234.37474072265624,406.0123608398437,234.30184072265627,406.0703608398437Q234.22894072265626,406.12936083984374,234.15134072265624,406.18036083984373Q234.07384072265626,406.23236083984375,233.99214072265625,406.2773608398437Q233.91054072265626,406.32336083984376,233.82534072265625,406.36136083984377Q233.74024072265627,406.3993608398438,233.65224072265624,406.43036083984373Q233.56414072265625,406.46036083984376,233.47384072265623,406.48436083984376Q233.38354072265625,406.5073608398437,233.29154072265624,406.52336083984375Q233.19964072265626,406.5383608398438,233.10664072265627,406.5463608398437Q233.01364072265625,406.55436083984375,232.92044072265625,406.55436083984375Q232.82714072265625,406.55436083984375,232.73414072265626,406.5463608398437Q232.64124072265625,406.53936083984377,232.54924072265624,406.52336083984375L231.19394072265624,406.2933608398438L231.21834072265625,406.36436083984376Q232.09584072265625,408.47536083984374,231.60404072265624,410.7093608398437Q231.11094072265627,412.9503608398437,229.41424072265625,414.52536083984376Q225.79564072265626,418.14836083984375,220.68734072265624,419.08136083984374Q215.46964072265627,420.20436083984373,210.29204072265625,418.9163608398437Q207.74854072265626,418.33836083984374,205.54604072265624,416.97236083984376Q203.32634072265625,415.5963608398438,201.70804072265625,413.57836083984375Q201.67804072265625,413.5413608398437,201.64974072265625,413.50236083984373Q200.05564072265625,411.32836083984375,200.05564072265625,408.65536083984375Q200.05564072265625,405.9813608398438,201.66404072265624,403.7883608398438Q203.29044072265626,401.6203608398438,205.57064072265626,400.1063608398438Q207.82464072265626,398.61036083984374,210.46054072265625,397.92436083984376Q213.91844072265624,396.88336083984376,217.47694072265625,396.9233608398438ZM235.81654072265624,362.4743608398437Q236.15954072265626,371.01136083984375,236.29194072265625,379.5893608398437Q236.29224072265626,387.30436083984375,236.23164072265627,391.16536083984374Q236.13204072265626,397.5123608398437,235.81634072265626,402.6683608398438Q235.90574072265625,402.5703608398437,236.00614072265626,402.4833608398437Q236.56094072265626,397.96536083984375,236.73984072265625,393.4133608398438Q236.74154072265625,393.3703608398438,236.74484072265625,393.3273608398438Q237.06834072265625,389.18936083984374,237.06844072265625,380.90736083984376Q237.04254072265624,372.37136083984376,236.63904072265626,362.24236083984374Q236.51944072265624,362.28936083984377,236.39874072265624,362.3363608398438Q236.11704072265624,362.44436083984374,235.81654072265624,362.4743608398437ZM226.87404072265625,354.11436083984376Q219.86534072265624,355.7313608398438,212.60504072265624,354.66236083984376Q203.46004072265626,353.2983608398438,196.25004072265625,347.7483608398437Q189.03244072265625,342.0383608398438,184.94723072265626,333.96536083984375Q180.90244072265625,325.76636083984374,180.24130072265626,316.7073608398438Q179.58247072265624,307.67636083984377,182.65002072265625,299.14246083984375Q185.85354072265625,290.48526083984376,191.45834072265626,283.0594608398437Q197.19954072265625,275.48616083984376,204.17214072265625,268.93756083984374Q207.34994072265624,265.9317608398437,213.97214072265626,259.95816083984374Q214.50694072265625,259.47586083984373,214.99844072265626,259.0320608398438Q215.60224072265623,261.84736083984376,215.89664072265626,263.45906083984374L217.65894072265624,272.37046083984376Q218.21164072265626,274.89276083984373,219.01274072265625,280.1296608398437Q219.10934072265624,280.76116083984374,219.15894072265624,281.08316083984374L220.55704072265624,289.95476083984374L220.98894072265625,292.65656083984373Q221.00494072265624,292.7571608398438,221.03024072265626,292.85596083984376Q221.05554072265625,292.95476083984374,221.08974072265624,293.05076083984375Q221.12394072265624,293.14676083984375,221.16684072265625,293.2392608398437Q221.20974072265625,293.33176083984375,221.26094072265624,293.41986083984375Q221.31214072265624,293.5080608398438,221.37124072265624,293.59106083984375Q221.43034072265624,293.67416083984375,221.49684072265626,293.75146083984373Q221.56324072265625,293.82876083984377,221.63654072265626,293.89966083984376Q221.70984072265625,293.97056083984376,221.78934072265625,294.03436083984377Q221.86884072265624,294.09826083984376,221.95384072265625,294.15446083984375Q222.03884072265626,294.2107608398437,222.12864072265626,294.25906083984376Q222.21844072265625,294.30726083984376,222.31224072265624,294.3470608398437Q222.40614072265623,294.38676083984376,222.50324072265624,294.41786083984374Q222.60034072265626,294.44876083984377,222.69994072265627,294.47076083984376Q222.79944072265624,294.49276083984375,222.90064072265625,294.50546083984375Q223.00174072265625,294.51816083984374,223.10364072265625,294.52156083984374Q223.20554072265625,294.52486083984377,223.30734072265625,294.51896083984377L226.22474072265624,294.3472608398438Q232.59704072265626,293.98456083984377,238.19724072265626,296.9181608398437Q242.07054072265623,298.96746083984374,245.22844072265625,301.94656083984376Q248.24944072265623,305.01536083984377,250.26464072265625,308.78236083984376Q252.32874072265625,312.61536083984373,253.02954072265624,316.89836083984375Q253.73264072265624,321.0073608398437,253.02954072265624,325.11536083984373Q253.02534072265627,325.14036083984377,253.02174072265626,325.16436083984377Q252.41584072265624,329.25136083984376,250.50764072265625,332.9833608398437Q248.60344072265625,336.84736083984376,245.75934072265625,340.10336083984373Q239.85664072265627,346.7313608398438,231.38854072265624,349.86936083984375L228.26364072265625,351.0483608398438Q228.10044072265626,351.10936083984376,227.94884072265626,351.19636083984375Q227.79724072265626,351.28236083984376,227.66104072265625,351.39136083984374Q227.52484072265625,351.5003608398438,227.40744072265625,351.62936083984374Q227.28994072265624,351.75836083984376,227.19414072265624,351.9043608398438Q227.09824072265624,352.04936083984376,227.02644072265625,352.20836083984375Q226.95464072265625,352.36736083984374,226.90854072265626,352.5363608398437Q226.86244072265626,352.70436083984373,226.84324072265625,352.87736083984373Q226.82414072265624,353.0513608398437,226.83224072265625,353.22536083984374L226.87404072265625,354.11436083984376ZM226.85744072265624,404.09036083984375Q224.37884072265626,402.34236083984376,220.81774072265625,401.68836083984377Q216.14774072265624,400.83136083984374,211.70134072265625,402.17936083984375Q211.65624072265626,402.19336083984376,211.61054072265625,402.20436083984373Q207.62294072265627,403.23036083984374,205.20964072265625,406.4473608398438Q204.48774072265624,407.43236083984374,204.48774072265624,408.65536083984375Q204.48774072265624,409.85536083984374,205.19764072265625,410.84536083984375Q207.55144072265625,413.75436083984374,211.29214072265626,414.59836083984374Q211.31704072265626,414.60436083984376,211.34174072265625,414.61036083984374Q215.54714072265625,415.6613608398437,219.78584072265625,414.74236083984374Q219.82364072265625,414.7333608398437,219.86164072265626,414.72736083984375Q223.64624072265624,414.0433608398438,226.30504072265626,411.36736083984374Q226.34164072265625,411.33036083984376,226.37994072265624,411.29536083984374Q227.07784072265625,410.65536083984375,227.27554072265625,409.7573608398437Q227.47074072265625,408.8703608398438,227.11064072265626,408.0293608398438Q227.07884072265625,407.95536083984376,227.05244072265626,407.87936083984374L226.74764072265626,406.99436083984375Q226.58114072265624,406.5123608398437,226.64284072265625,406.00436083984374L226.79194072265625,404.7793608398438Q226.82524072265625,404.4353608398437,226.85744072265624,404.09036083984375Z" fill-rule="evenodd" fill="url(#master_svg4_7_9465)" fill-opacity="1"/></g><g style="mix-blend-mode:luminosity"><path d="M231.38352074813844,357.9349600830078C224.7740207481384,359.7739600830078,217.80592074813842,360.0609600830078,211.05892074813843,358.76996008300785C207.70322074813842,358.1219600830078,204.44342074813844,357.0739600830078,201.35392074813842,355.6509600830078C199.80802074813843,354.94596008300783,198.32142074813842,354.1242600830078,196.90792074813842,353.1948600830078L194.77382074813843,351.89316008300784L192.76672074813843,350.3948600830078C187.42712074813844,346.3772600830078,183.20927074813844,341.1344600830078,180.49576074813842,335.1421600830078C177.90853074813842,329.2084600830078,176.55326014813843,322.8408600830078,176.50705882713842,316.4016600830078C176.45114474813843,303.6002600830078,180.75435074813842,291.13686008300783,188.75262074813844,280.9346600830078C196.62842074813844,270.7907600830078,206.84152074813844,263.1275200830078,215.88602074813844,254.5309600830078L218.16732074813842,255.2935350830078L218.22332074813843,255.3169270830078C219.59522074813844,260.8432900830078,220.76392074813842,266.5169600830078,222.00872074813844,272.1416600830078C222.66932074813843,274.94166008300783,223.10122074813842,277.7662600830078,223.63472074813842,280.5662600830078L225.20992074813842,289.01546008300784L225.46392074813843,290.4645600830078L223.93962074813842,290.7347600830078C219.21932074813844,291.5454600830078,214.82292074813842,293.6025600830078,211.23672074813842,296.6786600830078C207.66362074813844,299.70956008300783,205.09242074813844,303.69026008300784,203.84362074813842,308.1243600830078C202.74692074813842,312.5164600830078,203.24932074813842,317.1398600830078,205.2663207481384,321.21566008300783C207.29992074813842,325.1901600830078,210.68012074813842,328.3713600830078,214.84432074813844,330.2297600830078L211.05892074813843,331.26136008300784L212.07512074813843,329.24736008300783L213.24372074813843,332.8824600830078C208.42992074813844,330.68756008300784,204.52592074813842,326.9825600830078,202.16682074813843,322.37006008300784C199.76662074813842,317.6130600830078,199.11262074813843,312.2078600830078,200.31222074813843,307.0436600830078C201.68152074813844,301.9327600830078,204.56972074813842,297.3217600830078,208.61992074813844,293.7803600830078C212.69932074813843,290.2889600830078,217.69012074813844,287.9444600830078,223.05042074813844,287.0013600830078L227.64882074813843,286.2399600830078L228.48722074813844,290.7347600830078C229.42722074813844,295.9418600830078,230.31642074813843,301.19796008300784,231.02782074813842,306.4541600830078C231.73912074813842,311.7103600830078,232.42512074813843,316.9911600830078,233.00942074813844,322.2963600830078C233.59372074813842,327.60176008300783,234.05102074813843,332.9070600830078,234.15272074813842,338.2614600830078L234.78782074813842,354.2510600830078L234.78782074813842,356.8549600830078L232.24732074813843,357.5419600830078L231.38352074813844,357.9349600830078ZM229.32562074813842,351.6474600830078L230.39262074813843,351.2544600830078L228.08072074813842,354.5699600830078L226.60722074813845,338.9245600830078C226.20072074813842,333.7175600830078,225.33692074813843,328.5350600830078,224.52392074813844,323.3525600830078C223.71092074813842,318.1700600830078,222.84712074813842,312.9875600830078,221.98332074813842,307.8296600830078L219.44282074813844,292.2329600830078L224.85422074813843,295.9663600830078C221.12172074813844,296.5134600830078,217.61092074813843,298.02386008300783,214.69192074813844,300.33836008300784C211.76362074813844,302.63076008300783,209.54062074813842,305.65476008300783,208.26422074813843,309.0822600830078C207.11122074813844,312.5559600830078,207.20972074813844,316.30486008300784,208.5437207481384,319.71746008300784C209.97552074813842,323.2469600830078,212.58672074813842,326.2123600830078,215.96222074813844,328.1420600830078L218.50282074813842,329.6157600830078L217.13092074813844,331.8017600830078L215.91142074813843,333.7175600830078L214.48872074813843,335.9771600830078L212.38002074813843,334.7736600830078C207.48022074813844,332.0680600830078,203.6336207481384,327.8833600830078,201.43012074813842,322.8612600830078C199.19942074813844,317.94256008300783,198.73442074813843,312.4438600830078,200.10902074813842,307.2401600830078C201.64022074813843,302.17986008300784,204.66942074813844,297.6632600830078,208.82322074813843,294.2470600830078C212.91742074813843,290.85606008300783,217.90372074813843,288.62866008300784,223.22822074813843,287.8119600830078L221.98342074813843,289.50666008300783L220.56062074813843,281.0574600830078C220.05252074813842,278.23286008300784,219.64602074813843,275.3837600830078,218.9855207481384,272.6328600830078C217.76602074813843,267.05736008300784,216.64822074813844,261.5064400830078,215.30172074813842,255.9064000830078L217.63902074813842,256.5695600830078C208.51832074813842,265.1415600830078,198.48302074813842,273.05036008300783,191.03922074813843,282.8013600830078C183.57753074813843,292.5209600830078,179.63953074813844,304.3481600830078,179.83524074813843,316.4507600830078C179.90986074813844,322.3879600830078,181.26853074813843,328.2444600830078,183.82395074813843,333.6438600830078C186.35943074813844,338.9773600830078,190.34612074813842,343.54486008300785,195.35812074813842,346.8579600830078C205.20192074813843,353.6289600830078,217.81282074813842,355.4109600830078,229.24942074813842,351.6474600830078L229.32562074813842,351.6474600830078Z" fill="url(#master_svg5_7_9465)" fill-opacity="1" style="mix-blend-mode:luminosity"/><path d="M233.00062074813843,359.6339600830078L235.36692074813843,358.9939600830078Q235.54192074813844,358.94596008300783,235.70692074813843,358.87096008300784Q235.87192074813842,358.7959600830078,236.02252074813842,358.6949600830078Q236.17312074813844,358.5939600830078,236.30532074813843,358.4699600830078Q236.43742074813844,358.3449600830078,236.54772074813843,358.2009600830078Q236.65792074813842,358.0569600830078,236.7432207481384,357.8969600830078Q236.82852074813843,357.73696008300783,236.88672074813843,357.5659600830078Q236.94492074813843,357.3939600830078,236.9744207481384,357.2149600830078Q237.00392074813843,357.0359600830078,237.00392074813843,356.8549600830078L237.00392074813843,354.2510600830078Q237.00392074813843,354.20706008300783,237.00212074813842,354.1630600830078L236.36832074813844,338.2193600830078Q236.23832074813842,331.3712600830078,235.21212074813843,322.05376008300783Q234.49932074813842,315.5819600830078,233.22382074813842,306.1569600830078Q232.32702074813844,299.5310600830078,230.66562074813842,290.3284600830078L229.82732074813842,285.8336600830078Q229.80762074813842,285.7280600830078,229.77772074813842,285.6247600830078Q229.74792074813843,285.5215600830078,229.70822074813844,285.4216600830078Q229.66852074813843,285.32186008300783,229.61942074813842,285.2262600830078Q229.5702207481384,285.13076008300783,229.51212074813844,285.04036008300784Q229.45392074813844,284.9500600830078,229.38722074813842,284.8657600830078Q229.32062074813842,284.7814600830078,229.24612074813842,284.7039600830078Q229.17162074813842,284.6264600830078,229.09002074813844,284.55666008300784Q229.00842074813843,284.4867600830078,228.92042074813844,284.4250600830078Q228.83242074813842,284.3634600830078,228.73882074813844,284.31056008300783Q228.64532074813843,284.2576600830078,228.54702074813844,284.2141600830078Q228.44882074813842,284.1705600830078,228.34682074813844,284.1367600830078Q228.24482074813844,284.10286008300784,228.14002074813843,284.0790600830078Q228.03532074813842,284.0552600830078,227.92862074813843,284.0416600830078Q227.82212074813845,284.02816008300783,227.71462074813843,284.02496008300784Q227.60722074813845,284.0217600830078,227.5000207481384,284.0289600830078Q227.39282074813843,284.0361600830078,227.28682074813844,284.05376008300783L226.56152074813843,284.1738600830078L225.81162074813844,280.1514600830078Q225.64722074813844,279.28856008300784,225.33552074813844,277.5442600830078Q224.63352074813844,273.61646008300784,224.17242074813842,271.6627600830078Q223.83782074813843,270.1510600830078,223.17822074813841,267.1135600830078Q221.38382074813842,258.8504200830078,220.37402074813843,254.78300808300781Q220.31162074813844,254.53132842400782,220.1927207481384,254.3008740830078Q220.07382074813842,254.0704190830078,219.90492074813844,253.8736410830078Q219.73602074813843,253.67686208300782,219.52622074813843,253.5243900830078Q219.31652074813843,253.3719300830078,219.07722074813842,253.2720000830078L219.02122074813843,253.2486100830078Q218.94652074813843,253.2174500830078,218.86982074813844,253.19181008300782L216.58852074813842,252.4292300830078Q216.4461207481384,252.38162008300782,216.29852074813843,252.3536700830078Q216.15102074813842,252.3257100830078,216.00102074813844,252.3179100830078Q215.85112074813844,252.3101100830078,215.70142074813842,252.32262008300782Q215.55172074813842,252.3351300830078,215.40522074813842,252.3677100830078Q215.2586207481384,252.4002900830078,215.11772074813842,252.45236008300782Q214.97682074813844,252.5044200830078,214.84432074813844,252.5750100830078Q214.71172074813842,252.64560008300782,214.5899207481384,252.73343008300782Q214.46812074813843,252.8212500830078,214.35932074813843,252.92471008300782Q211.65722074813843,255.4929570830078,206.00232074813843,260.4964900830078Q199.36652074813844,266.3677600830078,196.15992074813843,269.48536008300783Q190.76102074813844,274.7343600830078,187.00862074813844,279.5674600830078Q180.78056074813844,287.5116600830078,177.51482074813842,296.9702600830078Q174.24746074813842,306.4335600830078,174.29107074813842,316.4175600830078Q174.36431074813842,326.6243600830078,178.47705074813842,336.0562600830078Q182.84546074813844,345.7031600830078,191.44112074813842,352.1706600830078L193.44812074813842,353.66896008300785Q193.53122074813842,353.7309600830078,193.61982074813844,353.78496008300783L195.72222074813843,355.06796008300785Q197.97392074813843,356.54396008300785,200.42692074813843,357.6639600830078Q205.32232074813842,359.9179600830078,210.64272074813843,360.9469600830078Q221.41972074813845,363.0079600830078,231.97752074813843,360.0699600830078Q232.14392074813844,360.0239600830078,232.30112074813843,359.9519600830078L233.00062074813843,359.6339600830078ZM194.87522074813842,349.2034600830078L196.0163207481384,350.0552600830078L198.06192074813842,351.30306008300784Q198.09392074813843,351.32256008300783,198.12532074813842,351.34316008300783Q200.10672074813843,352.6459600830078,202.28082074813844,353.63816008300785Q206.68962074813842,355.6679600830078,211.47512074813844,356.5939600830078Q219.43222074813843,358.1149600830078,227.25652074813843,356.6269600830078Q227.02122074813843,356.5329600830078,226.81332074813844,356.3879600830078Q226.62452074813842,356.2569600830078,226.46682074813842,356.0889600830078Q226.30922074813844,355.9209600830078,226.1893207481384,355.72496008300783Q226.06942074813844,355.5289600830078,225.99242074813844,355.3119600830078Q225.91542074813844,355.0949600830078,225.88462074813845,354.8669600830078Q218.76402074813842,356.4389600830078,211.39642074813844,355.3969600830078Q202.36282074813843,354.1208600830078,194.87522074813842,349.2034600830078ZM229.79332074813843,349.1210600830078Q229.98222074813845,349.06796008300785,230.17742074813845,349.04896008300784Q230.37272074813842,349.0298600830078,230.56822074813843,349.0454600830078Q230.76382074813841,349.0609600830078,230.95362074813843,349.1106600830078Q231.14342074813842,349.1602600830078,231.32152074813843,349.2425600830078Q231.50232074813843,349.3260600830078,231.66542074813844,349.4404600830078Q231.82852074813843,349.55486008300784,231.96862074813842,349.6965600830078Q232.10862074813843,349.8381600830078,232.22122074813842,350.0025600830078Q232.33372074813843,350.1669600830078,232.41512074813843,350.34876008300785L231.93702074813842,338.3035600830078Q231.81092074813841,331.6564600830078,230.80672074813842,322.5390600830078Q230.09992074813843,316.1216600830078,228.83172074813842,306.7513600830078Q228.01022074813844,300.6810600830078,226.53532074813842,292.4043600830078Q226.21312074813844,292.5823600830078,225.85072074813843,292.6466600830078L224.33422074813842,292.91536008300784L226.11262074813843,294.14226008300784Q226.20222074813842,294.2041600830078,226.28542074813842,294.2744600830078Q226.36852074813842,294.3447600830078,226.44432074813844,294.42286008300783Q226.52012074813842,294.50096008300784,226.58792074813843,294.5861600830078Q226.65572074813844,294.6713600830078,226.7149207481384,294.76276008300783Q226.7740207481384,294.8541600830078,226.82392074813842,294.9508600830078Q226.87382074813843,295.0476600830078,226.91392074813842,295.14886008300783Q226.95412074813842,295.25006008300784,226.98412074813842,295.35466008300784Q227.01422074813843,295.4593600830078,227.03382074813842,295.5663600830078Q227.05352074813842,295.6734600830078,227.06262074813844,295.7819600830078Q227.07162074813843,295.89046008300784,227.07002074813843,295.9992600830078Q227.06842074813844,296.1081600830078,227.05612074813843,296.2163600830078Q227.04382074813844,296.3245600830078,227.02102074813843,296.4309600830078Q226.99822074813844,296.5373600830078,226.96502074813844,296.6410600830078Q226.93192074813842,296.7447600830078,226.88872074813844,296.8447600830078Q226.84562074813843,296.9446600830078,226.7928207481384,297.0399600830078Q226.74012074813842,297.1351600830078,226.67832074813842,297.2247600830078Q226.54862074813843,297.4127600830078,226.38342074813843,297.57026008300784Q226.21812074813843,297.72786008300784,226.02422074813842,297.84836008300783Q225.83032074813843,297.9689600830078,225.61592074813842,298.0473600830078Q225.40152074813844,298.1258600830078,225.17562074813844,298.1589600830078Q223.92252074813842,298.3426600830078,222.73682074813843,298.6713600830078L224.16982074813842,307.4684600830078L226.09242074813844,319.1082600830078L226.71322074813844,323.0090600830078Q226.79412074813843,323.5251600830078,226.95592074813842,324.5502600830078Q228.44362074813841,333.97496008300783,228.81352074813844,338.7167600830078L229.79332074813843,349.1210600830078ZM218.52992074813844,300.4125600830078L219.79692074813843,308.19076008300783L221.71542074813843,319.8047600830078L222.33472074813844,323.69596008300783Q222.41542074813844,324.2109600830078,222.57812074813842,325.24126008300783Q224.0385207481384,334.4937600830078,224.40092074813842,339.1323600830078L225.46362074813842,350.4161600830078Q218.86042074813844,351.9761600830078,212.01662074813842,351.0089600830078Q203.56732074813843,349.8149600830078,196.58022074813843,345.0093600830078Q189.43532074813842,340.28626008300785,185.82698074813842,332.6958600830078Q182.15819074813842,324.9440600830078,182.05099074813842,316.4148600830078Q181.91032074813842,307.7155600830078,184.66826074813844,299.4324600830078Q187.42772074813843,291.1447600830078,192.80062074813844,284.1460600830078Q196.3648207481384,279.4770600830078,201.70832074813842,274.2209600830078Q204.94562074813842,271.0365600830078,211.80872074813843,264.8795600830078Q213.2749207481384,263.56409008300784,214.51832074813842,262.43950008300783Q215.06022074813842,264.90066008300784,215.71632074813843,267.9747600830078Q216.44582074813843,271.3926600830078,216.83072074813842,273.1502600830078Q217.28812074813843,275.0550600830078,217.96362074813842,279.04356008300783Q218.23472074813844,280.6444600830078,218.37532074813842,281.4254600830078L219.08632074813843,285.6477600830078Q212.47372074813842,287.56526008300784,207.16122074813842,292.11216008300784Q203.87762074813844,294.9832600830078,201.58272074813843,298.6471600830078Q200.25512074813844,300.7666600830078,199.32302074813842,303.0482600830078Q198.54062074813842,304.77206008300783,197.98792074813844,306.59836008300783Q197.97652074813843,306.6360600830078,197.96652074813844,306.6741600830078Q196.83762074813842,310.9476600830078,197.20942074813843,315.3443600830078Q197.58112074813843,319.73966008300783,199.40082074813841,323.7516600830078Q201.20172074813843,327.8559600830078,204.26252074813843,331.1858600830078Q207.31802074813842,334.5099600830078,211.28152074813843,336.6982600830078L213.39022074813843,337.9018600830078Q213.4821207481384,337.9542600830078,213.57872074813844,337.99776008300785Q213.67522074813843,338.04126008300784,213.77542074813843,338.07526008300783Q213.87562074813843,338.1093600830078,213.97872074813841,338.1337600830078Q214.08172074813842,338.15816008300783,214.18662074813844,338.1725600830078Q214.29142074813842,338.1869600830078,214.39722074813844,338.1913600830078Q214.50302074813843,338.1957600830078,214.60872074813844,338.1899600830078Q214.71442074813842,338.1842600830078,214.81912074813843,338.1684600830078Q214.92382074813844,338.15266008300785,215.02652074813844,338.1269600830078Q215.12922074813844,338.1013600830078,215.22892074813842,338.0659600830078Q215.32872074813844,338.0305600830078,215.42472074813844,337.9858600830078Q215.5206207481384,337.94116008300784,215.61192074813843,337.8874600830078Q215.70312074813842,337.83386008300783,215.78892074813842,337.7717600830078Q215.87462074813843,337.70956008300783,215.95402074813842,337.6396600830078Q216.03342074813844,337.5696600830078,216.10582074813843,337.49236008300784Q216.17822074813841,337.4150600830078,216.24292074813843,337.3312600830078Q216.30762074813842,337.2474600830078,216.36402074813844,337.1579600830078L217.7808207481384,334.9074600830078L219.00792074813842,332.9797600830078L220.37982074813843,330.7937600830078Q220.40032074813843,330.7610600830078,220.41972074813845,330.72766008300783Q220.47432074813844,330.63346008300783,220.51942074813843,330.53446008300784Q220.56452074813842,330.4353600830078,220.59972074813842,330.3323600830078Q220.63492074813843,330.2293600830078,220.65992074813843,330.1233600830078Q220.68482074813843,330.0173600830078,220.69932074813843,329.90946008300784Q220.71372074813843,329.8015600830078,220.71752074813844,329.6927600830078Q220.72132074813842,329.5839600830078,220.71442074813842,329.4753600830078Q220.70752074813842,329.3666600830078,220.68992074813843,329.2592600830078Q220.67242074813842,329.15176008300784,220.64452074813843,329.0465600830078Q220.61652074813844,328.9413600830078,220.57842074813843,328.8393600830078Q220.54022074813844,328.73736008300784,220.4923207481384,328.6396600830078Q220.44432074813844,328.5419600830078,220.3870207481384,328.44936008300783Q220.3297207481384,328.3567600830078,220.26362074813844,328.2702600830078Q220.19752074813843,328.1837600830078,220.12332074813844,328.1041600830078Q220.04902074813842,328.0245600830078,219.96732074813843,327.9525600830078Q219.88562074813842,327.8806600830078,219.79722074813844,327.81706008300785Q219.70892074813844,327.7534600830078,219.61472074813844,327.69886008300784L217.06202074813842,326.21816008300783Q212.51852074813843,323.6207600830078,210.60772074813843,318.9106600830078Q208.84612074813842,314.4041600830078,210.35502074813843,309.8180600830078Q212.09002074813844,305.1895600830078,216.06872074813842,302.0747600830078Q217.25032074813842,301.1378600830078,218.52992074813844,300.4125600830078ZM217.65802074813843,295.0596600830078L217.77962074813843,295.8061600830078Q215.42242074813842,296.9309600830078,213.31512074813844,298.6018600830078Q208.35692074813844,302.4832600830078,206.18752074813844,308.3088600830078Q206.17362074813843,308.3462600830078,206.1610207481384,308.3841600830078Q205.91792074813844,309.1166600830078,205.73962074813844,309.8582600830078Q205.84182074813842,309.2742600830078,205.98582074813842,308.6928600830078Q207.72092074813844,302.5668600830078,212.67952074813843,298.3606600830078Q214.99742074813844,296.3725600830078,217.65802074813843,295.0596600830078ZM232.48062074813842,351.9970600830078Q232.38082074813843,352.27766008300785,232.21042074813843,352.5219600830078L229.89852074813842,355.83796008300783Q229.80532074813843,355.97196008300784,229.69342074813844,356.0899600830078Q230.15932074813844,355.9729600830078,230.6250207481384,355.8459600830078L231.32962074813844,355.52496008300784Q231.49402074813844,355.4499600830078,231.66822074813842,355.4029600830078L232.57182074813844,355.1589600830078L232.57182074813844,354.2949600830078L232.48062074813842,351.9970600830078Z" fill-rule="evenodd" fill="url(#master_svg6_7_9465)" fill-opacity="1" style="mix-blend-mode:luminosity"/></g><g style="mix-blend-mode:hue"><path d="M211.99883790283204,220.1202120256424C212.66123790283203,217.0090120256424,213.57873790283202,213.9537120256424,214.74265790283204,210.98328202564238C215.40011790283202,209.2281920256424,216.44972790283202,207.6348120256424,217.81675790283202,206.3165820256424C218.65812790283204,205.5283340256424,219.71656790283203,204.9911180256424,220.86543790283204,204.7692020256424C221.89593790283203,204.5605487256424,222.95993790283202,204.5605487256424,223.99033790283204,204.7692020256424C225.70843790283203,205.17447402564238,227.34723790283203,205.8463520256424,228.84283790283203,206.7586920256424C230.35073790283204,207.6562420256424,231.69073790283204,208.7939420256424,232.80613790283203,210.1236320256424C234.89363790283204,212.8179820256424,236.07323790283203,216.06791202564239,236.18513790283203,219.43251202564238C236.24573790283202,225.8421120256424,234.48843790283203,232.1453120256424,231.10393790283203,237.6572120256424C229.50343790283202,240.3590120256424,227.62333790283202,242.8642120256424,225.76873790283204,245.39411202564239L220.38273790283202,253.20471202564238L217.30864790283204,257.5521120256424L214.76807790283203,251.6818120256424C213.76989790283204,249.2769120256424,212.92152790283203,246.8163120256424,212.22749790283203,244.31341202564238C211.47583190283203,241.7598120256424,210.96561790283204,239.1455120256424,210.70315690283203,236.50281202564238C210.42366810283204,233.8077120256424,210.42366810283204,231.0925120256424,210.70315690283203,228.39741202564238C210.91959890283204,225.6108120256424,211.35271890283204,222.8439120256424,211.99883790283204,220.1202120256424ZM218.73135790283203,221.1272120256424C218.62679790283204,223.4981120256424,218.73731790283202,225.8733120256424,219.06162790283204,228.2255120256424L220.07785790283202,235.4221120256424C220.40812790283204,237.8782120256424,220.71303790283204,240.3344120256424,220.86543790283204,242.79051202564239C221.01783790283204,245.2467120256424,221.11953790283204,247.8502120256424,221.22113790283203,250.4046120256424L215.75886790283204,248.8818120256424C218.30153790283202,247.1652120256424,220.67443790283204,245.2248120256424,222.84703790283203,243.0853120256424C224.93663790283202,240.88451202564238,226.83183790283204,238.5183120256424,228.51253790283204,236.0115120256424C230.18583790283202,233.5992120256424,231.45473790283202,230.9466120256424,232.27263790283203,228.15181202564239C233.15703790283203,225.38811202564239,233.51003790283204,222.4911120256424,233.31423790283202,219.6044120256424C233.16873790283202,213.9546220256424,228.91283790283202,209.19210202564238,223.15193790283203,208.2323820256424C222.21853790283203,207.96296202564238,221.20963790283204,208.2750620256424,220.61143790283202,209.0183620256424C219.96569790283203,210.0317120256424,219.53395790283204,211.1586620256424,219.34110790283202,212.3341720256424C219.03623790283203,215.0851120256424,218.96000790283202,218.0325120256424,218.68054790283202,221.1272120256424L218.73135790283203,221.1272120256424Z" fill="url(#master_svg7_7_9465)" fill-opacity="1" style="mix-blend-mode:hue"/><path d="M208.49598790283204,228.1974120256424Q208.05642790283204,232.4644120256424,208.49796790283204,236.7218120256424Q208.91303790283203,240.9012120256424,210.09203390283204,244.9055120256424Q211.17044990283202,248.7947120256424,212.73432790283204,252.5620120256424L215.27490790283204,258.4322120256424Q215.39599790283202,258.71201202564237,215.58813790283205,258.9487120256424Q215.78028790283204,259.1854120256424,216.02920790283204,259.3614120256424Q216.11809790283203,259.4243120256424,216.21271790283203,259.4781120256424Q216.30734790283202,259.5320120256424,216.40678790283204,259.5763120256424Q216.50622790283202,259.6206120256424,216.60953790283202,259.6549120256424Q216.71284790283204,259.6893120256424,216.81902790283203,259.7133120256424Q216.92519790283202,259.7374120256424,217.03322790283204,259.7509120256424Q217.14124790283202,259.7644120256424,217.25007790283203,259.7673120256424Q217.35890790283204,259.7702120256424,217.46748790283203,259.7624120256424Q217.57607790283203,259.7546120256424,217.68337790283204,259.7362120256424Q217.79067790283204,259.7178120256424,217.89565790283203,259.68891202564237Q218.00063790283204,259.6601120256424,218.10227790283204,259.6211120256424Q218.20392790283202,259.5821120256424,218.30125790283202,259.5334120256424Q218.39859790283202,259.4846120256424,218.49067790283203,259.4265120256424Q218.58276790283202,259.3685120256424,218.66871790283204,259.3016120256424Q218.75467790283204,259.2348120256424,218.83365790283204,259.15991202564237Q218.91264790283202,259.0850120256424,218.98391790283202,259.0027120256424Q219.05517790283204,258.9204120256424,219.11802790283204,258.8315120256424L222.20703790283204,254.4627120256424L227.57493790283203,246.6784120256424Q227.74593790283203,246.4453120256424,228.07273790283205,246.0005120256424Q231.50303790283203,241.3314120256424,232.99243790283202,238.8167120256424Q235.69343790283204,234.4179120256424,237.07103790283202,229.4766120256424Q238.44953790283202,224.5325120256424,238.40103790283203,219.4115120256424Q238.40083790283202,219.3852120256424,238.39993790283202,219.3588120256424Q238.20423790283203,213.4728620256424,234.55793790283204,208.76642202564238Q234.53163790283202,208.7324220256424,234.50393790283204,208.6994620256424Q232.57733790283203,206.4026520256424,229.99683790283203,204.86684902564238Q227.43703790283203,203.30537202564238,224.49913790283202,202.6123520256424Q224.46473790283204,202.60425202564238,224.43013790283203,202.5972420256424Q222.42793790283204,202.1918120256424,220.44516790283203,202.5933820256424Q218.05724790283205,203.0546320256424,216.27851790283202,204.7213890256424Q213.84170790283204,207.0712020256424,212.67935790283204,210.17481202564238Q210.86909690283204,214.7948120256424,209.83671990283204,219.6337120256424Q208.83454790283204,223.8669120256424,208.49598790283204,228.1974120256424ZM212.90737790283202,228.6260120256424Q212.91032790283202,228.5976120256424,212.91253790283204,228.5691120256424Q213.22430790283204,224.5552120256424,214.15503790283202,220.6317120256424Q214.16095790283202,220.6067120256424,214.16629790283204,220.5817120256424Q215.12362790283203,216.0852120256424,216.80595790283203,211.79176202564238Q217.15485790283202,210.8606720256424,217.65772790283202,210.0297820256424Q217.31907790283202,210.9710520256424,217.15429790283204,211.97540202564238Q217.14492790283202,212.03253202564238,217.13854790283204,212.0900820256424Q216.96382790283204,213.6666820256424,216.75983790283203,216.9395120256424Q216.59539790283202,219.5779120256424,216.47348790283203,220.9279120256424Q216.44678790283203,221.2236120256424,216.49885790283204,221.5159120256424Q216.38473790283203,225.0350120256424,216.86634790283202,228.5282120256424L217.88358790283203,235.7319120256424Q218.48438790283203,240.20041202564238,218.65364790283203,242.9278120256424Q218.68017790283204,243.3553120256424,218.70841790283202,243.8694120256424Q217.03356790283203,245.2911120256424,215.22428790283203,246.5598120256424Q214.76023790283205,245.1540120256424,214.36296790283203,243.7212120256424Q213.28228790283202,240.0490120256424,212.90834790283202,236.2838120256424Q212.51079790283202,232.4501120256424,212.90737790283202,228.6260120256424ZM217.13229790283202,251.56531202564238L217.77611790283203,253.0529120256424L218.54881790283204,251.9602120256424L217.13229790283202,251.56531202564238ZM222.83603790283203,239.79981202564238Q224.91013790283202,237.40511202564238,226.67193790283204,234.7774120256424Q229.01233790283203,231.4028120256424,230.14573790283202,227.5294120256424Q230.15353790283203,227.50281202564238,230.16203790283203,227.4764120256424Q231.37083790283202,223.6989120256424,231.10333790283204,219.7544120256424Q231.10013790283205,219.7080120256424,231.09893790283203,219.6615120256424Q231.01073790283203,216.2372120256424,228.68643790283204,213.6362420256424Q226.33963790283204,211.0100020256424,222.78783790283202,210.4183020256424Q222.66093790283202,210.3971720256424,222.53743790283204,210.3615220256424Q222.44253790283204,210.3341220256424,222.38073790283204,210.37019202564238Q221.74543790283204,211.4298220256424,221.53703790283203,212.6388620256424Q221.37663790283204,214.1133120256424,221.18333790283202,217.2152120256424Q221.04183790283204,219.4850120256424,220.92923790283203,220.8442120256424Q220.94743790283204,220.9852120256424,220.94743790283204,221.1273120256424Q220.94743790283204,221.1761120256424,220.94523790283202,221.2249120256424Q220.79693790283204,224.5870120256424,221.25693790283202,227.9229120256424L222.27213790283204,235.1122120256424Q222.62513790283202,237.73731202564238,222.83603790283203,239.79981202564238Z" fill-rule="evenodd" fill="url(#master_svg8_7_9465)" fill-opacity="1" style="mix-blend-mode:hue"/></g><g><path d="M256.7889534912109,337.03335150146484C254.29065349121095,341.25295150146485,251.04935349121092,345.01835150146485,247.21095349121094,348.1597515014648C243.45115349121093,351.22495150146483,239.14705349121093,353.60505150146486,234.50805349121094,355.18435150146485L232.14536349121093,356.14225150146484L231.99292349121095,353.68615150146485L230.95129349121095,338.0895515014648C230.72263349121093,332.88245150146486,229.98586349121095,327.7245515014648,229.35073349121095,322.54205150146487C227.92800349121094,312.15245150146484,226.30204349121092,301.81205150146485,224.44741449121094,291.49617150146486L224.16795349121094,289.89967350146486L226.12420349121095,289.45756150146485C232.01836349121095,288.26521550146487,238.15895349121092,289.1356845014648,243.45095349121095,291.91372150146486C248.91475349121094,294.54183150146486,253.52825349121093,298.5686815014648,256.7889534912109,303.5558515014649C260.14715349121093,308.56345150146484,261.91375349121097,314.41275150146487,261.8700534912109,320.3805515014648C261.64455349121096,326.25515150146487,259.89745349121097,331.98095150146486,256.7889534912109,337.03335150146484ZM250.69155349121093,334.03685150146487C251.61985349121093,331.9217515014648,252.26855349121092,329.70185150146483,252.62245349121093,327.42975150146486C252.88815349121094,325.19385150146485,252.88815349121094,322.93585150146487,252.62245349121093,320.69995150146485Q252.13995349121095,316.27925150146484,248.65915349121093,308.05065150146487Q243.31755349121093,300.6375515014648,239.53845349121093,297.98043150146486C235.65905349121093,295.19608150146485,231.06244349121093,293.4966815014648,226.25123349121094,293.06811150146484L227.92802349121095,291.00493150146485Q229.70642349121093,301.34535150146485,232.80592349121093,322.1244515014648Q234.17785349121093,332.56315150146486,234.43185349121094,337.81935150146484L235.44815349121095,353.5633515014648L232.90753349121093,352.0159515014648C240.87705349121094,348.26695150146486,247.20125349121093,341.8916515014648,250.74235349121093,334.03685150146487L250.69155349121093,334.03685150146487Z" fill="url(#master_svg9_7_9465)" fill-opacity="1"/><path d="M258.67635349121093,338.19455150146484Q263.71845349121094,329.9994515014648,264.0844534912109,320.46565150146483Q264.08585349121097,320.4312515014648,264.0860534912109,320.39675150146485Q264.12125349121095,315.58535150146486,262.7266534912109,310.96745150146484Q261.33305349121093,306.35305150146485,258.64375349121093,302.34325150146486Q253.33135349121093,294.2180415014648,244.44635349121094,289.9334815014648Q240.15305349121093,287.6871315014648,235.32445349121093,287.00264150146484Q230.47874349121093,286.31574150146486,225.68481349121095,287.28552150146487Q225.66019349121095,287.29050150146486,225.63569349121093,287.2960315014648L223.67944849121093,287.73815150146487Q223.57657549121095,287.76140150146483,223.47637549121094,287.79431150146485Q223.37617549121094,287.82722150146486,223.27955449121094,287.86951150146484Q223.18293249121095,287.91179150146485,223.09076349121094,287.96305450146485Q222.99859349121093,288.01432050146485,222.91171349121095,288.0741085014648Q222.82482349121094,288.13389750146484,222.74401349121095,288.20166650146484Q222.66320349121094,288.26943550146484,222.58919349121095,288.3445735014648Q222.51517349121093,288.41971050146486,222.44863349121093,288.50153750146484Q222.38209349121092,288.58336550146487,222.32362349121092,288.67114150146483Q222.26515349121092,288.75891850146485,222.21529349121093,288.85185100146487Q222.16542349121093,288.94478376146486,222.12460349121093,289.04203250146486Q222.08378349121094,289.13928150146484,222.05238349121095,289.23996650146483Q222.02099349121093,289.34065250146483,221.99929349121095,289.4438645014648Q221.97760349121094,289.54707750146486,221.96581349121095,289.65188350146485Q221.95401349121093,289.75668950146485,221.95223349121093,289.86214150146486Q221.95044349121093,289.9675915014648,221.95868349121093,290.07274150146486Q221.96691349121093,290.17788150146487,221.98510349121094,290.28177150146485L222.26634349121093,291.88830150146487Q224.99377449121093,307.05885150146486,227.15115349121095,322.81155150146486Q227.25905349121095,323.69205150146485,227.48020349121094,325.44765150146486Q228.55137349121094,333.9507515014648,228.73738349121095,338.18675150146487Q228.73849349121093,338.21195150146485,228.74017349121092,338.23715150146484L229.78113349121094,353.82345150146483L229.93358349121092,356.2795515014648Q229.95595349121095,356.64015150146486,230.09168349121094,356.97485150146485Q230.13258349121094,357.0757515014649,230.18318349121094,357.17215150146484Q230.23377349121094,357.26855150146486,230.29357349121094,357.35955150146486Q230.35337349121093,357.4505515014648,230.42180349121094,357.53515150146484Q230.49023349121094,357.61985150146484,230.56663349121095,357.69745150146485Q230.64303349121093,357.77495150146484,230.72666349121093,357.84465150146485Q230.81030349121093,357.91435150146486,230.90036349121092,357.97555150146485Q230.99042349121095,358.03665150146486,231.08604349121094,358.08875150146486Q231.18167349121094,358.1407515014648,231.28193349121094,358.18315150146486Q231.38219349121093,358.2256515014648,231.48613349121095,358.25795150146485Q231.59007349121094,358.29035150146484,231.69668349121093,358.31245150146486Q231.80329349121095,358.33445150146486,231.91155349121092,358.3459515014648Q232.01981349121093,358.3574515014648,232.12868349121095,358.35825150146485Q232.23754349121094,358.3590515014648,232.34596349121094,358.34925150146483Q232.45438349121093,358.3393515014649,232.56131349121094,358.3189515014648Q232.66825349121095,358.29855150146483,232.77266349121095,358.26765150146485Q232.87708349121093,358.23685150146486,232.97797349121095,358.19595150146483L235.28295349121095,357.2614515014649Q242.64035349121093,354.74505150146484,248.61445349121095,349.8746515014648Q254.71985349121093,344.87795150146485,258.67635349121093,338.19455150146484ZM240.41705349121094,350.12825150146483Q243.25485349121095,348.52585150146484,245.80745349121094,346.4448515014648Q251.30565349121093,341.94495150146486,254.90155349121093,335.8721515014648Q259.32505349121095,328.68225150146486,259.65435349121094,320.3300515014648Q259.6793534912109,316.20765150146485,258.48385349121094,312.24885150146486Q257.28225349121095,308.27015150146485,254.93415349121094,304.76855150146486Q250.28705349121094,297.66095150146487,242.49035349121093,293.91075150146486Q242.45535349121093,293.8939015014648,242.42095349121092,293.87583150146486Q238.79135349121094,291.97049150146483,234.70235349121094,291.39085150146485Q232.44735349121095,291.07119150146485,230.20576349121094,291.17642150146486Q230.22827349121093,291.30816150146484,230.25086349121094,291.44081150146485Q235.97505349121093,292.6951215014648,240.81305349121095,296.1676315014648Q244.89735349121094,299.03935150146486,250.45705349121093,306.75515150146487Q250.60285349121094,306.9575515014648,250.70005349121095,307.18735150146483Q254.30765349121094,315.7154515014648,254.82295349121094,320.43835150146487Q255.25405349121093,324.06485150146483,254.82295349121094,327.69135150146485Q254.81825349121095,327.73115150146486,254.81205349121095,327.77085150146485Q254.27245349121094,331.2356515014649,252.91455349121094,334.47575150146486Q252.86515349121095,334.7202515014649,252.76265349121093,334.94765150146486Q249.94205349121094,341.20405150146485,245.05885349121093,346.12675150146487Q242.88285349121094,348.32045150146485,240.41705349121094,350.12825150146483ZM237.24185349121095,346.95155150146485L236.64535349121093,337.71235150146487Q236.38685349121093,332.3649515014648,234.99775349121094,321.79755150146485Q232.64172349121094,306.00295150146485,231.04691349121094,296.2253815014648Q234.90145349121093,297.37997150146487,238.26385349121094,299.79325150146485Q241.68805349121095,302.20085150146485,246.71515349121094,309.14405150146484Q249.97885349121094,316.9029515014648,250.42185349121092,320.96145150146486Q250.78835349121093,324.04485150146485,250.42655349121094,327.12835150146486Q249.93615349121094,330.24365150146485,248.66235349121092,333.14625150146486Q248.57835349121095,333.3375515014649,248.53165349121093,333.54115150146487Q246.06815349121095,338.81595150146484,241.91235349121092,343.00545150146485Q239.74065349121094,345.1946515014648,237.24185349121095,346.95155150146485Z" fill-rule="evenodd" fill="url(#master_svga_7_9465)" fill-opacity="1"/></g></g></g></svg>